<svg xmlns="http://www.w3.org/2000/svg" viewBox="0 0 32.25 40"><defs><style>.cls-1{fill:#fff;}</style></defs><g id="Layer_2" data-name="Layer 2"><g id="레이어_6" data-name="레이어 6"><path class="cls-1" d="M22.89,40a3.56,3.56,0,0,1-3.33-4.8l.1-.26.21-.49c.15-.34.37-.84.66-1.48l.6-1.31a.09.09,0,0,0,0-.11.11.11,0,0,0-.07,0H21L18.09,33a3.56,3.56,0,0,1-4.91-4.43l.1-.26.21-.49c.15-.34.38-.84.66-1.48l.6-1.31a.1.1,0,0,0-.09-.14h0l-2.9,1.44a3.64,3.64,0,0,1-1.59.37,3.56,3.56,0,0,1-3.33-4.8l.1-.26.21-.49.67-1.48.59-1.31a.1.1,0,0,0-.09-.14h0l-2.9,1.44A3.64,3.64,0,0,1,3.75,20a3.56,3.56,0,0,1-3.33-4.8L.52,15l.21-.48c.15-.35.38-.85.67-1.49.48-1.06,1.15-2.54,2-4.38C4.63,5.93,5.89,3.22,6.24,2.47l.09-.21A3.57,3.57,0,0,1,9.56.2a3.48,3.48,0,0,1,1.49.33,3.56,3.56,0,0,1,1.73,4.72L11.24,8.58a.09.09,0,0,0,0,.11.11.11,0,0,0,.07,0h.05l3-1.48a3.64,3.64,0,0,1,1.59-.37,3.55,3.55,0,0,1,3.22,5.05l-1.54,3.33a.09.09,0,0,0,0,.11.11.11,0,0,0,.07,0h.05l3-1.48a3.63,3.63,0,0,1,1.58-.37,3.51,3.51,0,0,1,2.48,1,3.56,3.56,0,0,1,.75,4L24,21.9A.09.09,0,0,0,24,22a.11.11,0,0,0,.07,0h.05l3-1.48a3.63,3.63,0,0,1,1.58-.37,3.51,3.51,0,0,1,2.48,1,3.56,3.56,0,0,1,.75,4c-2.47,5.34-5.21,11.29-5.66,12.34a3.35,3.35,0,0,1-.66,1.18A3.57,3.57,0,0,1,22.89,40Z" transform="translate(-0.1 -0.1)"/><path d="M9.56.1V.3a3.45,3.45,0,0,1,3.13,4.91L11.15,8.54a.2.2,0,0,0,.18.28l.09,0,3-1.48A3.42,3.42,0,0,1,15.94,7a3.45,3.45,0,0,1,3.13,4.91L17.53,15.2a.19.19,0,0,0,0,.22.2.2,0,0,0,.14.06l.09,0,3-1.48a3.38,3.38,0,0,1,1.53-.36,3.46,3.46,0,0,1,3.14,4.91c-.51,1.09-1,2.22-1.54,3.33a.19.19,0,0,0,0,.22.2.2,0,0,0,.14.06l.09,0,3-1.48a3.38,3.38,0,0,1,1.53-.36,3.42,3.42,0,0,1,2.41,1,3.47,3.47,0,0,1,.73,3.93c-2.48,5.33-5.21,11.29-5.66,12.36a3.37,3.37,0,0,1-.65,1.13,3.41,3.41,0,0,1-2.63,1.22,3.46,3.46,0,0,1-3.24-4.67l.1-.25.21-.49L20.63,33l.59-1.31a.2.2,0,0,0,0-.23.24.24,0,0,0-.14,0,.15.15,0,0,0-.09,0l-2.9,1.44a3.46,3.46,0,0,1-4.78-4.31l.1-.25.21-.48c.15-.35.38-.85.67-1.49L14.84,25a.18.18,0,0,0,0-.22.2.2,0,0,0-.14-.06l-.09,0-2.9,1.44A3.46,3.46,0,0,1,6.9,21.91c0-.07,0-.15.09-.25l.21-.48c.15-.35.38-.85.67-1.49l.59-1.31a.18.18,0,0,0,0-.22.2.2,0,0,0-.14-.06l-.09,0-2.9,1.44a3.45,3.45,0,0,1-3.77-.46,3.46,3.46,0,0,1-1-3.85A1.63,1.63,0,0,1,.62,15c0-.12.11-.28.2-.48s.38-.85.67-1.49C2,12,2.64,10.49,3.49,8.65L6.42,2.3A3.49,3.49,0,0,1,9.56.3V.1m0,0A3.65,3.65,0,0,0,6.24,2.22L3.31,8.56c-.85,1.85-1.52,3.33-2,4.39C1,13.59.79,14.09.64,14.44l-.21.48-.1.26a3.66,3.66,0,0,0,3.42,4.94,3.61,3.61,0,0,0,1.63-.38l2.9-1.44c-.22.49-.42.93-.6,1.31-.29.64-.51,1.14-.66,1.48l-.21.49-.1.26a3.66,3.66,0,0,0,3.42,4.94,3.61,3.61,0,0,0,1.63-.38L14.66,25c-.22.49-.42.93-.6,1.31-.29.64-.51,1.14-.66,1.48l-.21.49-.1.26a3.65,3.65,0,0,0,3.42,4.94,3.61,3.61,0,0,0,1.63-.38L21,31.62l-.6,1.31c-.29.64-.51,1.14-.66,1.48l-.21.49a2.24,2.24,0,0,0-.1.26,3.66,3.66,0,1,0,6.89,2.45c.44-1,3.19-7,5.65-12.34a3.65,3.65,0,0,0-3.32-5.19,3.6,3.6,0,0,0-1.62.38l-3,1.48,1.54-3.33a3.66,3.66,0,0,0-3.32-5.19,3.6,3.6,0,0,0-1.62.38l-3,1.48L19.25,12a3.66,3.66,0,0,0-4.94-4.81l-3,1.48,1.54-3.33A3.66,3.66,0,0,0,9.56.1Z" transform="translate(-0.1 -0.1)"/></g></g></svg>