<svg xmlns="http://www.w3.org/2000/svg" width="40" viewBox="0 0 35.04 34.02"><defs><style>.cls-1{fill:#fff;}</style></defs><g id="Layer_2" data-name="Layer 2"><g id="레이어_6" data-name="레이어 6"><path class="cls-1" d="M24,33.92a6.92,6.92,0,0,1-3.27-.82,6.79,6.79,0,0,0-6.32,0,6.92,6.92,0,0,1-3.27.82A7.06,7.06,0,0,1,5.7,31.39a6.86,6.86,0,0,1-1.52-5.68,6.78,6.78,0,0,0-1.95-6,7,7,0,0,1,3.89-12A6.78,6.78,0,0,0,11.23,4,7,7,0,0,1,23.81,4a6.78,6.78,0,0,0,5.12,3.72,7,7,0,0,1,3.89,12,6.75,6.75,0,0,0-2,6,6.86,6.86,0,0,1-1.52,5.68A7,7,0,0,1,24,33.92ZM17.52,18.3a.28.28,0,0,1,.13,0l.36.2a.59.59,0,0,0,.22,0,.46.46,0,0,0,.36-.17A.45.45,0,0,0,18.7,18l-.07-.41a.24.24,0,0,1,.08-.24l.29-.29a.47.47,0,0,0-.26-.8l-.41-.06a.28.28,0,0,1-.2-.15L18,15.71a.49.49,0,0,0-.43-.26.47.47,0,0,0-.42.26l-.19.37a.28.28,0,0,1-.2.15l-.41.06a.46.46,0,0,0-.38.32.45.45,0,0,0,.12.48l.3.29a.26.26,0,0,1,.07.24l-.07.41a.48.48,0,0,0,.11.38.46.46,0,0,0,.36.17.54.54,0,0,0,.22,0l.36-.2A.31.31,0,0,1,17.52,18.3Z"/><path d="M17.52.2a6.87,6.87,0,0,1,6.2,3.86,6.93,6.93,0,0,0,5.19,3.77,6.91,6.91,0,0,1,3.84,11.79,6.9,6.9,0,0,0-2,6.1,6.8,6.8,0,0,1-1.5,5.61A7,7,0,0,1,24,33.83,6.82,6.82,0,0,1,20.73,33a6.92,6.92,0,0,0-6.42,0,6.82,6.82,0,0,1-3.22.82,7,7,0,0,1-5.31-2.5,6.8,6.8,0,0,1-1.5-5.61,6.92,6.92,0,0,0-2-6.1A6.91,6.91,0,0,1,6.13,7.83a6.93,6.93,0,0,0,5.19-3.77A6.87,6.87,0,0,1,17.52.2m-.71,18.48a.54.54,0,0,0,.27-.07l.36-.19.08,0,.08,0,.37.19a.48.48,0,0,0,.26.07.58.58,0,0,0,.44-.21A.54.54,0,0,0,18.8,18l-.07-.41a.17.17,0,0,1,.05-.15l.29-.29a.57.57,0,0,0,.15-.58.57.57,0,0,0-.47-.39l-.4-.06a.17.17,0,0,1-.13-.1L18,15.67a.55.55,0,0,0-.51-.32.56.56,0,0,0-.51.31l-.19.37a.17.17,0,0,1-.13.1l-.4.06a.57.57,0,0,0-.32,1l.3.29a.17.17,0,0,1,0,.15l-.06.41a.54.54,0,0,0,.12.46.58.58,0,0,0,.44.21M17.52,0a7,7,0,0,0-6.38,4,6.72,6.72,0,0,1-5,3.66A7.11,7.11,0,0,0,2.16,19.77a6.7,6.7,0,0,1,1.92,5.92,7.13,7.13,0,0,0,7,8.33,7,7,0,0,0,3.32-.83,6.69,6.69,0,0,1,3.11-.77,6.76,6.76,0,0,1,3.12.77A7.1,7.1,0,0,0,31,25.69a6.68,6.68,0,0,1,1.93-5.92A7.12,7.12,0,0,0,28.94,7.63,6.72,6.72,0,0,1,23.9,4a7,7,0,0,0-6.38-4Zm-.71,18.48a.38.38,0,0,1-.37-.44l.07-.4a.37.37,0,0,0-.11-.33L16.11,17a.38.38,0,0,1,.21-.64l.4-.05a.36.36,0,0,0,.28-.21l.19-.37a.35.35,0,0,1,.33-.2.37.37,0,0,1,.34.2l.18.37a.38.38,0,0,0,.28.21l.4.05a.38.38,0,0,1,.21.64l-.29.29a.37.37,0,0,0-.11.33l.07.4a.38.38,0,0,1-.37.44.35.35,0,0,1-.17,0l-.37-.19a.31.31,0,0,0-.34,0l-.37.19a.33.33,0,0,1-.17,0Z"/></g></g></svg>