<svg width="36" height="36" viewBox="0 0 39 39" fill="none" xmlns="http://www.w3.org/2000/svg">
<!--<g filter="url(#filter0_d_609_111)">-->
<path fill-rule="evenodd" clip-rule="evenodd" d="M16.7736 6.375C11.0425 6.375 6.39648 11.021 6.39648 16.7521C6.39648 22.4833 11.0425 27.1293 16.7736 27.1293C22.5048 27.1293 27.1508 22.4833 27.1508 16.7521C27.1508 11.021 22.5048 6.375 16.7736 6.375ZM3.39648 16.7521C3.39648 9.36415 9.38564 3.375 16.7736 3.375C24.1616 3.375 30.1508 9.36415 30.1508 16.7521C30.1508 19.7674 29.1532 22.5496 27.47 24.7868L33.9571 31.2739L31.8358 33.3952L25.4094 26.9688C23.0791 28.9405 20.0652 30.1293 16.7736 30.1293C9.38564 30.1293 3.39648 24.1401 3.39648 16.7521Z" fill="black" shape-rendering="auto"/>
<!--<path d="M34.1339 31.4507L34.3107 31.2739L34.1339 31.0972L27.7991 24.7624C29.4354 22.5139 30.4008 19.7454 30.4008 16.7521C30.4008 9.22608 24.2997 3.125 16.7736 3.125C9.24757 3.125 3.14648 9.22608 3.14648 16.7521C3.14648 24.2782 9.24757 30.3793 16.7736 30.3793C20.0438 30.3793 23.0454 29.2271 25.3939 27.3068L31.659 33.572L31.8358 33.7488L32.0126 33.572L34.1339 31.4507ZM6.64648 16.7521C6.64648 11.1591 11.1806 6.625 16.7736 6.625C22.3667 6.625 26.9008 11.1591 26.9008 16.7521C26.9008 22.3452 22.3667 26.8793 16.7736 26.8793C11.1806 26.8793 6.64648 22.3452 6.64648 16.7521Z" stroke="black" stroke-opacity="0.2" stroke-width="0.5" shape-rendering="crispEdges"/>-->
<!--</g>-->
<!--<defs>
<filter id="filter0_d_609_111" x="0.896484" y="0.875" width="37.7676" height="37.2275" filterUnits="userSpaceOnUse" color-interpolation-filters="sRGB">
<feFlood flood-opacity="0" result="BackgroundImageFix"/>
<feColorMatrix in="SourceAlpha" type="matrix" values="0 0 0 0 0 0 0 0 0 0 0 0 0 0 0 0 0 0 127 0" result="hardAlpha"/>
<feOffset dx="1" dy="1"/>
<feGaussianBlur stdDeviation="1.5"/>
<feComposite in2="hardAlpha" operator="out"/>
<feColorMatrix type="matrix" values="0 0 0 0 0 0 0 0 0 0 0 0 0 0 0 0 0 0 0.25 0"/>
<feBlend mode="normal" in2="BackgroundImageFix" result="effect1_dropShadow_609_111"/>
<feBlend mode="normal" in="SourceGraphic" in2="effect1_dropShadow_609_111" result="shape"/>
</filter>
</defs>-->
</svg>
