<svg width="605" height="211" viewBox="0 0 605 211" fill="none" xmlns="http://www.w3.org/2000/svg">
<g filter="url(#filter0_d_610_167)">
<mask id="path-1-inside-1_610_167" fill="white">
<path fill-rule="evenodd" clip-rule="evenodd" d="M102.511 195.407C120.61 195.407 137.501 190.231 151.784 181.279C166.067 190.231 182.957 195.407 201.057 195.407C219.157 195.407 236.048 190.231 250.33 181.279C264.613 190.231 281.504 195.407 299.604 195.407C317.703 195.407 334.594 190.231 348.877 181.279C363.16 190.231 380.05 195.407 398.15 195.407C416.25 195.407 433.141 190.231 447.423 181.279C461.706 190.231 478.597 195.407 496.697 195.407C548.008 195.407 589.604 153.811 589.604 102.5C589.604 51.1887 548.008 9.59277 496.697 9.59277C478.597 9.59277 461.706 14.7685 447.423 23.7206C433.141 14.7685 416.25 9.59277 398.15 9.59277C380.05 9.59277 363.16 14.7685 348.877 23.7206C334.594 14.7685 317.703 9.59277 299.604 9.59277C281.504 9.59277 264.613 14.7685 250.33 23.7206C236.048 14.7685 219.157 9.59277 201.057 9.59277C182.957 9.59277 166.067 14.7685 151.784 23.7206C137.501 14.7685 120.61 9.59277 102.511 9.59277C51.1994 9.59277 9.60352 51.1887 9.60352 102.5C9.60352 153.811 51.1994 195.407 102.511 195.407Z"/>
</mask>
<path fill-rule="evenodd" clip-rule="evenodd" d="M102.511 195.407C120.61 195.407 137.501 190.231 151.784 181.279C166.067 190.231 182.957 195.407 201.057 195.407C219.157 195.407 236.048 190.231 250.33 181.279C264.613 190.231 281.504 195.407 299.604 195.407C317.703 195.407 334.594 190.231 348.877 181.279C363.16 190.231 380.05 195.407 398.15 195.407C416.25 195.407 433.141 190.231 447.423 181.279C461.706 190.231 478.597 195.407 496.697 195.407C548.008 195.407 589.604 153.811 589.604 102.5C589.604 51.1887 548.008 9.59277 496.697 9.59277C478.597 9.59277 461.706 14.7685 447.423 23.7206C433.141 14.7685 416.25 9.59277 398.15 9.59277C380.05 9.59277 363.16 14.7685 348.877 23.7206C334.594 14.7685 317.703 9.59277 299.604 9.59277C281.504 9.59277 264.613 14.7685 250.33 23.7206C236.048 14.7685 219.157 9.59277 201.057 9.59277C182.957 9.59277 166.067 14.7685 151.784 23.7206C137.501 14.7685 120.61 9.59277 102.511 9.59277C51.1994 9.59277 9.60352 51.1887 9.60352 102.5C9.60352 153.811 51.1994 195.407 102.511 195.407Z" fill="white"/>
<path d="M151.784 181.279L152.846 179.584C152.196 179.177 151.371 179.177 150.722 179.584L151.784 181.279ZM250.33 181.279L251.393 179.584C250.743 179.177 249.918 179.177 249.268 179.584L250.33 181.279ZM348.877 181.279L349.939 179.584C349.289 179.177 348.464 179.177 347.815 179.584L348.877 181.279ZM447.423 181.279L448.486 179.584C447.836 179.177 447.011 179.177 446.361 179.584L447.423 181.279ZM447.423 23.7206L446.361 25.4153C447.011 25.8224 447.836 25.8224 448.486 25.4153L447.423 23.7206ZM348.877 23.7206L347.815 25.4153C348.464 25.8224 349.289 25.8224 349.939 25.4153L348.877 23.7206ZM250.33 23.7206L249.268 25.4153C249.918 25.8224 250.743 25.8224 251.393 25.4153L250.33 23.7206ZM151.784 23.7206L150.722 25.4153C151.371 25.8224 152.196 25.8224 152.846 25.4153L151.784 23.7206ZM150.722 179.584C136.748 188.343 120.224 193.407 102.511 193.407V197.407C120.997 197.407 138.254 192.12 152.846 182.974L150.722 179.584ZM201.057 193.407C183.344 193.407 166.82 188.343 152.846 179.584L150.722 182.974C165.313 192.12 182.571 197.407 201.057 197.407V193.407ZM249.268 179.584C235.295 188.343 218.77 193.407 201.057 193.407V197.407C219.543 197.407 236.801 192.12 251.393 182.974L249.268 179.584ZM299.604 193.407C281.89 193.407 265.366 188.343 251.393 179.584L249.268 182.974C263.86 192.12 281.117 197.407 299.604 197.407V193.407ZM347.815 179.584C333.841 188.343 317.317 193.407 299.604 193.407V197.407C318.09 197.407 335.347 192.12 349.939 182.974L347.815 179.584ZM398.15 193.407C380.437 193.407 363.913 188.343 349.939 179.584L347.815 182.974C362.406 192.12 379.664 197.407 398.15 197.407V193.407ZM446.361 179.584C432.388 188.343 415.863 193.407 398.15 193.407V197.407C416.636 197.407 433.894 192.12 448.486 182.974L446.361 179.584ZM496.697 193.407C478.984 193.407 462.459 188.343 448.486 179.584L446.361 182.974C460.953 192.12 478.21 197.407 496.697 197.407V193.407ZM587.604 102.5C587.604 152.706 546.903 193.407 496.697 193.407V197.407C549.112 197.407 591.604 154.916 591.604 102.5H587.604ZM496.697 11.5928C546.903 11.5928 587.604 52.2932 587.604 102.5H591.604C591.604 50.0841 549.112 7.59277 496.697 7.59277V11.5928ZM448.486 25.4153C462.459 16.6568 478.984 11.5928 496.697 11.5928V7.59277C478.21 7.59277 460.953 12.8801 446.361 22.026L448.486 25.4153ZM398.15 11.5928C415.863 11.5928 432.388 16.6568 446.361 25.4153L448.486 22.026C433.894 12.8801 416.636 7.59277 398.15 7.59277V11.5928ZM349.939 25.4153C363.913 16.6568 380.437 11.5928 398.15 11.5928V7.59277C379.664 7.59277 362.406 12.8801 347.815 22.026L349.939 25.4153ZM299.604 11.5928C317.317 11.5928 333.841 16.6568 347.815 25.4153L349.939 22.026C335.347 12.8801 318.09 7.59277 299.604 7.59277V11.5928ZM251.393 25.4153C265.366 16.6568 281.89 11.5928 299.604 11.5928V7.59277C281.117 7.59277 263.86 12.8801 249.268 22.026L251.393 25.4153ZM201.057 11.5928C218.77 11.5928 235.295 16.6568 249.268 25.4153L251.393 22.026C236.801 12.8801 219.543 7.59277 201.057 7.59277V11.5928ZM152.846 25.4153C166.82 16.6568 183.344 11.5928 201.057 11.5928V7.59277C182.571 7.59277 165.313 12.8801 150.722 22.026L152.846 25.4153ZM102.511 11.5928C120.224 11.5928 136.748 16.6568 150.722 25.4153L152.846 22.026C138.254 12.8801 120.997 7.59277 102.511 7.59277V11.5928ZM11.6035 102.5C11.6035 52.2932 52.304 11.5928 102.511 11.5928V7.59277C50.0949 7.59277 7.60352 50.0841 7.60352 102.5H11.6035ZM102.511 193.407C52.304 193.407 11.6035 152.706 11.6035 102.5H7.60352C7.60352 154.916 50.0949 197.407 102.511 197.407V193.407Z" fill="black" mask="url(#path-1-inside-1_610_167)"/>
<path d="M86.2633 88.416C86.4835 89.8474 87.1442 93.1508 88.4655 96.5642C90.5577 102.4 97.2745 116.715 112.47 127.946L115.113 125.193C96.7239 112.42 87.6947 92.2699 87.6947 74.7621V62.7598H83.9509V74.7621C83.9509 92.1598 76.133 110.769 55.1016 127.065L57.8544 129.598C75.6925 115.834 81.4183 102.4 83.5105 96.5642C84.8318 92.8204 85.1622 89.8474 85.2723 88.416H86.2633ZM107.735 93.0407H132.51V147.436H136.254V55.1621H132.51V89.9575H107.735V93.0407Z" fill="black"/>
<path d="M164.403 73.4399C164.403 82.7994 175.194 89.0758 199.529 89.0758C223.533 89.0758 234.654 82.7994 234.654 73.4399C234.654 64.0803 223.533 57.9141 199.529 57.9141C175.194 57.9141 164.403 64.0803 164.403 73.4399ZM168.147 73.4399C168.147 64.5208 182.241 60.9972 199.529 60.9972C216.706 60.9972 230.91 64.5208 230.91 73.4399C230.91 82.3589 216.706 85.9926 199.529 85.9926C182.241 85.9926 168.147 82.3589 168.147 73.4399ZM245.225 102.73V99.6465H153.832V102.73H197.657V114.622H165.944V117.815H229.479V130.918H165.944V150.518H235.315V147.325H169.798V134.001H233.223V114.622H201.4V102.73H245.225Z" fill="black"/>
<path d="M334.409 107.905C323.398 110.328 314.259 110.768 299.504 110.768H270.214V90.1771H331.987V86.9839H270.214V66.9435H333.088V63.8604H266.36V113.961H299.394C316.131 113.961 326.151 113.301 335.07 110.988L334.409 107.905ZM344.87 136.865V133.671H254.578V136.865H344.87Z" fill="black"/>
<path d="M433.606 147.436V55.1621H429.863V120.348C415.218 125.744 393.085 126.735 373.045 126.735H363.795V97.2249H403.656V62.7598H359.941V65.843H399.912V94.1418H359.941V129.818H372.935C395.838 129.818 416.319 128.497 429.863 123.652V147.436H433.606Z" fill="black"/>
<path d="M532.631 63.8604H460.618V66.9435H494.973V67.6042C494.973 79.3862 490.018 95.4625 457.755 105.152L459.737 108.015C481.539 101.188 489.798 92.1592 493.762 85.6625C495.083 83.5704 495.744 80.3772 496.074 78.9457H497.395C497.726 80.3772 498.717 83.4603 499.928 85.5524C503.672 91.3884 511.049 100.748 533.622 106.474L535.604 103.501C503.782 96.0131 498.496 79.3862 498.496 67.6042V66.9435H532.631V63.8604ZM541.77 136.865V133.671H451.479V136.865H541.77Z" fill="black"/>
</g>
<defs>
<filter id="filter0_d_610_167" x="0.603516" y="0.592773" width="604" height="209.814" filterUnits="userSpaceOnUse" color-interpolation-filters="sRGB">
<feFlood flood-opacity="0" result="BackgroundImageFix"/>
<feColorMatrix in="SourceAlpha" type="matrix" values="0 0 0 0 0 0 0 0 0 0 0 0 0 0 0 0 0 0 127 0" result="hardAlpha"/>
<feOffset dx="3" dy="3"/>
<feGaussianBlur stdDeviation="6"/>
<feComposite in2="hardAlpha" operator="out"/>
<feColorMatrix type="matrix" values="0 0 0 0 0 0 0 0 0 0 0 0 0 0 0 0 0 0 0.1 0"/>
<feBlend mode="normal" in2="BackgroundImageFix" result="effect1_dropShadow_610_167"/>
<feBlend mode="normal" in="SourceGraphic" in2="effect1_dropShadow_610_167" result="shape"/>
</filter>
</defs>
</svg>
