<svg xmlns="http://www.w3.org/2000/svg" viewBox="0 0 176.13 198.06"><defs><style>.cls-1{fill:#cc3;}</style></defs><g id="Layer_2" data-name="Layer 2"><g id="레이어_6" data-name="레이어 6"><path class="cls-1" d="M84.46,197.06V107a1,1,0,0,0-1-1,1,1,0,0,0-.5.13l-78,45-3.6-6.24,78-45a1,1,0,0,0,.5-.86,1,1,0,0,0-.5-.87l-78-45L5,46.89l78,45a1,1,0,0,0,.5.13,1,1,0,0,0,1-1V1h7.21V91.05a1,1,0,0,0,.5.87,1,1,0,0,0,.5.13,1,1,0,0,0,.5-.13l78-45,3.61,6.25-78,45a1,1,0,0,0-.5.87,1,1,0,0,0,.5.86l78,45-3.61,6.24-78-45a1,1,0,0,0-.5-.13,1,1,0,0,0-.5.13,1,1,0,0,0-.5.87v90.05Z"/><path d="M90.67,2V91.05a2,2,0,0,0,1,1.73,2,2,0,0,0,1,.27,2,2,0,0,0,1-.27l77.12-44.52,2.6,4.51L96.28,97.3a2,2,0,0,0-1,1.73,2,2,0,0,0,1,1.73l77.11,44.52-2.6,4.52L93.67,105.27a2,2,0,0,0-1-.26,2,2,0,0,0-1,.26,2,2,0,0,0-1,1.74v89.05H85.46V107a2,2,0,0,0-2-2,2,2,0,0,0-1,.26L5.34,149.8l-2.61-4.52,77.12-44.52a2,2,0,0,0,1-1.73,2,2,0,0,0-1-1.73L2.73,52.77l2.61-4.51L82.46,92.78a2,2,0,0,0,1,.27,2,2,0,0,0,2-2V2h5.21m2-2H83.46V91.05L4.61,45.52,0,53.5,78.85,99,0,144.55l4.61,8L83.46,107v91.05h9.21V107l78.85,45.52,4.61-8L97.28,99,176.13,53.5l-4.61-8L92.67,91.05V0Z"/></g></g></svg>