<svg xmlns="http://www.w3.org/2000/svg" viewBox="0 0 198.06 194.09"><defs><style>.cls-1{fill:#6fc;}</style></defs><g id="Layer_2" data-name="Layer 2"><g id="레이어_4" data-name="레이어 4"><path class="cls-1" d="M98.77,193.09a93.32,93.32,0,0,1-28.36-4.5c-31.57-10.05-56.72-38.54-65.64-74.34a134.44,134.44,0,0,1,4.59-78C17.17,15.51,35.37,1,53.62,1A33.3,33.3,0,0,1,58,1.29C67.89,2.61,77.35,4.7,84.2,15.61c7.64,12.16,11.43,34.54,11.61,68.44C95.82,86.17,97.59,88,99,88s3.21-1.81,3.22-3.93c.17-33.89,4-56.28,11.6-68.44,6.86-10.91,16.31-13,26.22-14.32A33.26,33.26,0,0,1,144.43,1c18.26,0,36.46,14.51,44.27,35.29a134.44,134.44,0,0,1,4.59,78c-8.93,35.8-34.08,64.29-65.65,74.34a93.21,93.21,0,0,1-28.35,4.5Z"/><path d="M144.43,2c17.85,0,35.67,14.24,43.33,34.64A133.42,133.42,0,0,1,192.32,114a110.8,110.8,0,0,1-24.1,46.49,91.16,91.16,0,0,1-68.92,31.6h-.54a91.2,91.2,0,0,1-68.93-31.6A110.78,110.78,0,0,1,5.74,114a133.33,133.33,0,0,1,4.55-77.36C18,16.24,35.78,2,53.62,2a31.45,31.45,0,0,1,4.24.28c10,1.34,18.86,3.3,25.5,13.87,7.53,12,11.27,34.2,11.45,67.9C94.82,86.59,96.87,89,99,89h0c2.15,0,4.21-2.39,4.22-4.93.17-33.7,3.92-55.91,11.45-67.9,6.63-10.57,15.47-12.53,25.5-13.87A31.31,31.31,0,0,1,144.43,2m0-2a34,34,0,0,0-4.5.3C119.32,3.05,101.64,9.06,101.25,84c0,1.6-1.37,2.94-2.22,2.94h0c-.86,0-2.22-1.34-2.22-2.94-.39-75-18.07-81-38.69-83.74a33.79,33.79,0,0,0-4.5-.3C35.31,0,16.5,14.43,8.42,35.94A134.77,134.77,0,0,0,3.8,114.49c9.05,36.31,34.27,64.85,66.31,75.06a94.17,94.17,0,0,0,28.65,4.54h.54A94.22,94.22,0,0,0,128,189.55c32-10.21,57.26-38.75,66.31-75.06a134.69,134.69,0,0,0-4.63-78.55C181.55,14.43,162.74,0,144.43,0Z"/></g></g></svg>