<svg xmlns="http://www.w3.org/2000/svg" viewBox="0 0 114.98 198.06"><defs><style>.cls-1{fill:#693;}</style></defs><g id="Layer_2" data-name="Layer 2"><g id="레이어_4" data-name="레이어 4"><path class="cls-1" d="M57.4,197.06a9.54,9.54,0,0,1-6.79-2.82L5.49,149.12a9.61,9.61,0,0,1,6.79-16.39,9.51,9.51,0,0,1,6.79,2.82l29.76,29.76a1,1,0,0,0,.71.29.84.84,0,0,0,.38-.08,1,1,0,0,0,.62-.92v-1.75a1.05,1.05,0,0,0-.29-.71L3.81,115.71a9.6,9.6,0,0,1,13.58-13.58l31.44,31.44a1,1,0,0,0,.71.3,1,1,0,0,0,1-1V131a1,1,0,0,0-.29-.7L10.87,90.87A9.6,9.6,0,0,1,24.45,77.29l24.38,24.39a1,1,0,0,0,.71.29,1,1,0,0,0,.38-.07,1,1,0,0,0,.62-.93V99a1,1,0,0,0-.29-.7L18.1,66.12A9.6,9.6,0,0,1,31.68,52.54L48.83,69.7a1,1,0,0,0,.71.29.84.84,0,0,0,.38-.08,1,1,0,0,0,.62-.92V66.54a1.05,1.05,0,0,0-.29-.71L27.41,43A9.6,9.6,0,1,1,41,29.42l7.85,7.85a1,1,0,0,0,.71.29,1,1,0,0,0,1-1V34.34a1,1,0,0,0-.29-.7l-11-11a9.62,9.62,0,0,1,0-13.58A9.52,9.52,0,0,1,46,6.27a9.66,9.66,0,0,1,3.41.62A1,1,0,0,0,49.8,7a.92.92,0,0,0,.46-.11,1,1,0,0,0,.51-.63,6.94,6.94,0,0,1,13.43,0,1,1,0,0,0,.51.63.92.92,0,0,0,.46.11,1,1,0,0,0,.35-.06,9.6,9.6,0,0,1,10.2,15.76l-11,11a1,1,0,0,0-.29.71v2.17a1,1,0,0,0,1,1,1,1,0,0,0,.71-.3L74,29.33A9.6,9.6,0,1,1,87.57,42.9L64.73,65.74a1,1,0,0,0-.29.71v2.41a1,1,0,0,0,.62.93,1,1,0,0,0,.38.07,1,1,0,0,0,.71-.29L83.3,52.41A9.6,9.6,0,1,1,96.88,66L64.73,98.14a1,1,0,0,0-.29.71v2a1,1,0,0,0,1,1,1,1,0,0,0,.71-.3L90.53,77.14a9.57,9.57,0,0,1,6.79-2.81h0a9.6,9.6,0,0,1,6.79,16.39L64.73,130.09a1,1,0,0,0-.29.71v1.89a1,1,0,0,0,1,1,1,1,0,0,0,.71-.3L97.59,102a9.6,9.6,0,0,1,13.58,13.58L64.73,162a1,1,0,0,0-.29.71v1.75a1,1,0,0,0,.62.93,1,1,0,0,0,.38.07,1,1,0,0,0,.71-.29l29.76-29.76A9.6,9.6,0,0,1,109.49,149l-45.3,45.29A9.51,9.51,0,0,1,57.4,197.06Z"/><path d="M57.49,2a6,6,0,0,1,5.74,4.43,2,2,0,0,0,1,1.26,2,2,0,0,0,.92.22,1.94,1.94,0,0,0,.71-.13,8.64,8.64,0,0,1,3.06-.56A8.6,8.6,0,0,1,75,21.9l-11,11a2,2,0,0,0-.59,1.42v2.17a2,2,0,0,0,1.24,1.84,1.82,1.82,0,0,0,.76.16,2,2,0,0,0,1.41-.59L74.7,30A8.61,8.61,0,0,1,86.87,42.2L64,65a2,2,0,0,0-.59,1.41v2.41a2,2,0,0,0,1.24,1.85,2,2,0,0,0,2.17-.43L84,53.12A8.6,8.6,0,1,1,96.17,65.28L64,97.43a2,2,0,0,0-.59,1.42v2a2,2,0,0,0,1.24,1.84,1.82,1.82,0,0,0,.76.16,2,2,0,0,0,1.41-.59L91.24,77.85A8.6,8.6,0,1,1,103.4,90L64,129.38a2,2,0,0,0-.59,1.42v1.89a2,2,0,0,0,1.24,1.84,1.82,1.82,0,0,0,.76.16,2,2,0,0,0,1.41-.59L98.3,102.66a8.6,8.6,0,1,1,12.16,12.16L64,161.25a2,2,0,0,0-.59,1.42v1.75a2,2,0,0,0,1.24,1.85,2,2,0,0,0,2.17-.43l29.77-29.76a8.6,8.6,0,1,1,12.16,12.16l-45.3,45.3a8.59,8.59,0,0,1-12.16,0L6.2,148.42a8.6,8.6,0,1,1,12.16-12.17L48.13,166a2,2,0,0,0,1.41.59,2.07,2.07,0,0,0,.77-.15,2,2,0,0,0,1.23-1.85v-1.75a2,2,0,0,0-.59-1.41L4.52,115a8.61,8.61,0,0,1,0-12.16,8.59,8.59,0,0,1,12.16,0l31.45,31.44a2,2,0,0,0,1.41.59,2.07,2.07,0,0,0,.77-.15,2,2,0,0,0,1.23-1.85V131a2,2,0,0,0-.59-1.41L11.58,90.16A8.6,8.6,0,1,1,23.74,78l24.39,24.39a2,2,0,0,0,1.41.58,2.07,2.07,0,0,0,.77-.15A2,2,0,0,0,51.54,101V99A2,2,0,0,0,51,97.56L18.81,65.41A8.6,8.6,0,1,1,31,53.25L48.13,70.4a2,2,0,0,0,1.41.59,2.07,2.07,0,0,0,.77-.15A2,2,0,0,0,51.54,69V66.54A2,2,0,0,0,51,65.13L28.11,42.29A8.61,8.61,0,0,1,40.28,30.12L48.13,38a2,2,0,0,0,1.41.59,2.07,2.07,0,0,0,.77-.15,2,2,0,0,0,1.23-1.85V34.34A2,2,0,0,0,51,32.93l-11-11A8.59,8.59,0,0,1,46,7.27a8.64,8.64,0,0,1,3.06.56,2.07,2.07,0,0,0,.7.13,2,2,0,0,0,.92-.23,2,2,0,0,0,1-1.27A5.94,5.94,0,0,1,57.49,2m0-2A8,8,0,0,0,49.8,6a10.6,10.6,0,0,0-11.25,17.4l11,11v2.22l-7.85-7.85a10.6,10.6,0,0,0-15,15L49.54,66.54V69L32.38,51.83a10.6,10.6,0,0,0-15,15L49.54,99v2L25.16,76.59a10.6,10.6,0,0,0-15,15L49.54,131v1.92L18.1,101.42a10.61,10.61,0,0,0-15,15l46.44,46.43v1.75L19.78,134.84a10.6,10.6,0,0,0-15,15L49.91,195a10.59,10.59,0,0,0,15,0l45.29-45.29a10.6,10.6,0,0,0-15-15L65.44,164.42v-1.75l46.44-46.44a10.6,10.6,0,0,0-15-15L65.44,132.69V130.8l39.38-39.38a10.6,10.6,0,0,0-15-15L65.44,100.82v-2L97.59,66.7a10.6,10.6,0,1,0-15-15L65.44,68.86V66.45L88.28,43.61a10.6,10.6,0,1,0-15-15l-7.85,7.85V34.3l11-11A10.6,10.6,0,0,0,65.17,5.91,7.94,7.94,0,0,0,57.49,0Z"/></g></g></svg>