<svg xmlns="http://www.w3.org/2000/svg" viewBox="0 0 198.06 198.06"><defs><style>.cls-1{fill:#963;}</style></defs><g id="Layer_2" data-name="Layer 2"><g id="레이어_4" data-name="레이어 4"><path d="M90.37,197.21A98,98,0,0,1,2,108.86c.28-.49.55-1,.82-1.52a19.66,19.66,0,0,1,2.93-4.57,4.17,4.17,0,0,1,1.38-1,2.94,2.94,0,0,1,1.08-.18A16.13,16.13,0,0,1,13.15,103a18.06,18.06,0,0,0,5.75,1.49A4.47,4.47,0,0,0,21,104a3.22,3.22,0,0,0,.82-.62c1.25-1.25,1.86-3.57,2.46-5.81s1.2-4.56,2.39-5.74a2.52,2.52,0,0,1,.52-.42,3.86,3.86,0,0,1,2.1-.48,23.68,23.68,0,0,1,4.22.58,25.58,25.58,0,0,0,4.59.62,5.06,5.06,0,0,0,3.09-.83,3.14,3.14,0,0,0,.4-.34c1.37-1.37,1.7-4,2-6.54s.64-5,1.85-6.22l.2-.19a5.32,5.32,0,0,1,3.39-.8c.93,0,1.94.08,3,.16s2.1.16,3.1.16c1.32,0,3.21-.12,4.41-1.22l.1-.09c1.49-1.48,1.55-4.31,1.61-7s.11-5.29,1.35-6.53,3.93-1.3,6.52-1.35c2.76-.06,5.58-.13,7.05-1.59l.09-.1c1.53-1.68,1.3-4.65,1.07-7.53-.2-2.63-.39-5.12.65-6.39l.18-.2c1.21-1.22,3.76-1.54,6.22-1.85s5.18-.65,6.54-2a3.26,3.26,0,0,0,.34-.4c1.35-1.85.77-4.81.21-7.68-.49-2.55-1-5-.1-6.32a2.87,2.87,0,0,1,.42-.53c1.19-1.18,3.5-1.79,5.74-2.38s4.57-1.21,5.81-2.46A3.35,3.35,0,0,0,104,21c1.11-2.12,0-5-1-7.83-.88-2.36-1.71-4.59-1.15-6a4.17,4.17,0,0,1,1-1.38,19.59,19.59,0,0,1,4.55-2.92c.57-.3,1.08-.56,1.55-.83a98,98,0,0,1,88.34,88.35c-.27.5-.55,1-.82,1.54a19.51,19.51,0,0,1-2.93,4.55,3.93,3.93,0,0,1-1.38,1,2.73,2.73,0,0,1-1.07.19,16.31,16.31,0,0,1-4.93-1.33,18,18,0,0,0-5.74-1.48,4.44,4.44,0,0,0-2.09.47,3.41,3.41,0,0,0-.83.61c-1.24,1.25-1.86,3.57-2.45,5.81s-1.2,4.56-2.39,5.75a4,4,0,0,1-.52.42,3.89,3.89,0,0,1-2.1.47,23.78,23.78,0,0,1-4.23-.58,25.43,25.43,0,0,0-4.58-.61,5.11,5.11,0,0,0-3.1.83,2.57,2.57,0,0,0-.4.34c-1.37,1.36-1.7,4-2,6.54s-.63,5-1.85,6.22l-.19.18a5.35,5.35,0,0,1-3.39.81c-.94,0-1.94-.08-3-.16s-2.11-.17-3.11-.17c-1.32,0-3.21.13-4.41,1.22l-.1.09c-1.48,1.49-1.54,4.32-1.6,7.06s-.12,5.28-1.36,6.52-3.92,1.3-6.52,1.36-5.57.12-7,1.59l-.1.1c-1.52,1.67-1.29,4.65-1.07,7.52.21,2.64.4,5.12-.64,6.4l-.18.2c-1.22,1.21-3.76,1.53-6.22,1.84s-5.18.66-6.55,2a3.4,3.4,0,0,0-.34.4c-1.34,1.84-.77,4.81-.21,7.67.5,2.56,1,5,.11,6.33a3.3,3.3,0,0,1-.42.52c-1.19,1.18-3.5,1.8-5.73,2.39s-4.58,1.2-5.83,2.45a3.56,3.56,0,0,0-.61.82c-1.12,2.12,0,5,1,7.84.88,2.36,1.71,4.59,1.15,6a4.32,4.32,0,0,1-1,1.38,19.59,19.59,0,0,1-4.55,2.92C91.38,196.66,90.86,196.93,90.37,197.21ZM45.44,165.48l.24,0c1.31.13,3,1.59,4.55,3,2.15,1.91,4.36,3.87,6.72,3.87a4.12,4.12,0,0,0,.86-.09,3.69,3.69,0,0,0,1.82-1.07,18.08,18.08,0,0,0,2.76-4.32,20,20,0,0,1,2.93-4.57,4.2,4.2,0,0,1,1.39-1,2.89,2.89,0,0,1,1.07-.18,16.31,16.31,0,0,1,4.93,1.33A17.91,17.91,0,0,0,78.45,164a4.44,4.44,0,0,0,2.09-.47,3.46,3.46,0,0,0,.83-.62c1.24-1.24,1.86-3.56,2.45-5.81s1.2-4.55,2.39-5.74a2.82,2.82,0,0,1,.52-.42,3.89,3.89,0,0,1,2.1-.47,23.78,23.78,0,0,1,4.23.58,25.43,25.43,0,0,0,4.58.61,5.11,5.11,0,0,0,3.1-.83,3.26,3.26,0,0,0,.4-.34c1.37-1.37,1.7-4,2-6.54s.63-5,1.85-6.22l.19-.18a5.33,5.33,0,0,1,3.39-.81c.94,0,1.94.08,3,.16s2.1.16,3.1.16c1.32,0,3.21-.12,4.41-1.21l.1-.1c1.48-1.48,1.54-4.31,1.6-7.05s.12-5.28,1.36-6.52,3.93-1.3,6.52-1.36c2.75-.06,5.58-.12,7-1.59l.1-.1c1.52-1.68,1.29-4.65,1.07-7.52-.21-2.64-.4-5.13.64-6.4l.18-.2c1.22-1.21,3.76-1.53,6.23-1.85s5.17-.65,6.53-2a3.23,3.23,0,0,0,.35-.4c1.34-1.85.77-4.81.21-7.67-.5-2.56-1-5-.11-6.33a3.42,3.42,0,0,1,.42-.52c1.19-1.19,3.5-1.8,5.74-2.39s4.57-1.21,5.81-2.45a3.21,3.21,0,0,0,.62-.83c1.11-2.12,0-5-1-7.83-.88-2.36-1.71-4.59-1.15-6a4.17,4.17,0,0,1,1-1.38,19.45,19.45,0,0,1,4.56-2.92,18.93,18.93,0,0,0,4.33-2.77,3.73,3.73,0,0,0,1.07-1.82c.58-2.67-1.63-5.17-3.77-7.59-1.48-1.67-2.88-3.24-3-4.54a5.78,5.78,0,0,1,1-3.09,18.28,18.28,0,0,0,1.1-2.34c1.12-3,.77-6.16-.86-7.8A6,6,0,0,0,162.48,31a10,10,0,0,0-3.51.66,18.79,18.79,0,0,0-2.33,1.09,6.51,6.51,0,0,1-2.84,1h-.25c-1.3-.14-2.88-1.53-4.54-3-2.15-1.9-4.37-3.87-6.73-3.87a4.12,4.12,0,0,0-.86.09A3.68,3.68,0,0,0,139.6,28a18.48,18.48,0,0,0-2.77,4.33,19.59,19.59,0,0,1-2.92,4.55,4.17,4.17,0,0,1-1.38,1,2.93,2.93,0,0,1-1.07.18,16,16,0,0,1-4.94-1.33,17.92,17.92,0,0,0-5.73-1.48,4.4,4.4,0,0,0-2.1.48,3.12,3.12,0,0,0-.82.61c-1.25,1.25-1.86,3.57-2.45,5.81s-1.21,4.56-2.39,5.74a2.82,2.82,0,0,1-.52.42,3.91,3.91,0,0,1-2.1.48,23.66,23.66,0,0,1-4.23-.58,25.53,25.53,0,0,0-4.59-.61,5.15,5.15,0,0,0-3.09.82,4.23,4.23,0,0,0-.4.34c-1.37,1.37-1.7,4-2,6.53s-.64,5-1.85,6.24l-.2.18a5.32,5.32,0,0,1-3.39.8c-.93,0-1.94-.08-3-.16s-2.1-.16-3.1-.16c-1.32,0-3.21.13-4.41,1.22l-.1.09c-1.49,1.48-1.55,4.31-1.61,7.05s-.11,5.29-1.35,6.53-3.92,1.3-6.52,1.35-5.58.13-7,1.59l-.09.1c-1.52,1.68-1.29,4.65-1.07,7.53.2,2.63.4,5.12-.65,6.4a1.57,1.57,0,0,1-.18.19c-1.21,1.22-3.76,1.54-6.22,1.85s-5.17.66-6.54,2a3.26,3.26,0,0,0-.34.4c-1.35,1.85-.77,4.81-.21,7.68.49,2.56,1,5,.1,6.33a2.78,2.78,0,0,1-.41.51c-1.19,1.19-3.51,1.8-5.75,2.4s-4.56,1.2-5.81,2.45a3.46,3.46,0,0,0-.62.83c-1.11,2.11,0,5,1,7.82.88,2.37,1.7,4.59,1.14,6a4.17,4.17,0,0,1-1,1.38,19.52,19.52,0,0,1-4.54,2.92A18.35,18.35,0,0,0,28,139.6,3.64,3.64,0,0,0,27,141.42c-.58,2.67,1.64,5.16,3.78,7.58,1.48,1.67,2.88,3.24,3,4.55a5.89,5.89,0,0,1-1,3.09,17.45,17.45,0,0,0-1.1,2.33c-1.12,3-.78,6.17.86,7.8a5.93,5.93,0,0,0,4.28,1.51,10.25,10.25,0,0,0,3.51-.65,18.12,18.12,0,0,0,2.33-1.1A6.67,6.67,0,0,1,45.44,165.48Z" transform="translate(-0.59 -0.59)"/><path d="M109.08,3.05a97,97,0,0,1,87.11,87.11q-.36.65-.69,1.29a19.06,19.06,0,0,1-2.74,4.31,3,3,0,0,1-1,.73,1.76,1.76,0,0,1-.7.12,15.82,15.82,0,0,1-4.59-1.27,18.59,18.59,0,0,0-6.08-1.54,5.55,5.55,0,0,0-2.56.58,4.53,4.53,0,0,0-1.07.8c-1.43,1.43-2.08,3.89-2.71,6.27-.53,2-1.13,4.28-2.13,5.28a1.79,1.79,0,0,1-.35.28,2.91,2.91,0,0,1-1.56.32,23.11,23.11,0,0,1-4-.56,26,26,0,0,0-4.77-.63,6.06,6.06,0,0,0-3.69,1,4.23,4.23,0,0,0-.51.44c-1.61,1.61-2,4.41-2.31,7.12-.28,2.19-.59,4.67-1.56,5.64a.69.69,0,0,1-.13.11,4.5,4.5,0,0,1-2.76.59c-.89,0-1.88-.08-2.93-.16s-2.13-.17-3.17-.17a7.59,7.59,0,0,0-5.12,1.51l-.08.08,0,0c-1.75,1.75-1.82,4.79-1.88,7.72,0,2.29-.11,4.89-1.07,5.84s-3.54,1-5.84,1.07c-2.93.06-6,.13-7.72,1.88l0,0-.1.11c-1.8,2-1.55,5.17-1.31,8.26.18,2.32.36,4.72-.43,5.69l-.11.12c-1,1-3.45,1.29-5.64,1.56-2.71.35-5.51.7-7.12,2.31a4.54,4.54,0,0,0-.45.52c-1.6,2.2-1,5.38-.38,8.46.44,2.25.89,4.57.24,5.6a2.1,2.1,0,0,1-.28.34c-1,1-3.28,1.6-5.29,2.13-2.37.63-4.83,1.28-6.26,2.71a4.46,4.46,0,0,0-.8,1.07c-1.32,2.51-.16,5.63,1,8.64.74,2,1.58,4.23,1.16,5.29a3.25,3.25,0,0,1-.74,1,18.73,18.73,0,0,1-4.31,2.75c-.41.21-.85.44-1.29.69A97,97,0,0,1,3.05,109.07c.23-.42.46-.86.68-1.28a19.07,19.07,0,0,1,2.75-4.31,3.25,3.25,0,0,1,1-.74,2.08,2.08,0,0,1,.71-.11,15.7,15.7,0,0,1,4.58,1.26,18.6,18.6,0,0,0,6.09,1.55,5.36,5.36,0,0,0,2.55-.59,4.23,4.23,0,0,0,1.07-.79c1.44-1.44,2.09-3.89,2.71-6.27.53-2,1.14-4.29,2.13-5.29a2.86,2.86,0,0,1,.35-.28,3,3,0,0,1,1.56-.32,23.45,23.45,0,0,1,4.05.57,26,26,0,0,0,4.77.63,6.1,6.1,0,0,0,3.68-1,3.65,3.65,0,0,0,.52-.45c1.61-1.61,2-4.41,2.31-7.12.27-2.19.59-4.67,1.56-5.64l.12-.11A4.58,4.58,0,0,1,49,78.18c.89,0,1.88.08,2.93.16s2.13.16,3.17.16c1.49,0,3.63-.15,5.12-1.51l.08-.07,0,0c1.75-1.75,1.81-4.78,1.88-7.72.05-2.29.11-4.88,1.06-5.84s3.55-1,5.85-1.06c2.93-.07,6-.13,7.75-1.92l.11-.12c1.8-2,1.55-5.17,1.31-8.26-.18-2.32-.37-4.72.42-5.68l.12-.13c1-1,3.45-1.28,5.64-1.56,2.71-.34,5.51-.7,7.12-2.3a5.27,5.27,0,0,0,.44-.52c1.6-2.2,1-5.39.39-8.46-.44-2.25-.89-4.58-.25-5.6a2.24,2.24,0,0,1,.29-.35c1-1,3.27-1.6,5.29-2.13,2.37-.63,4.82-1.27,6.26-2.71a4.49,4.49,0,0,0,.79-1.07c1.32-2.51.16-5.63-1-8.64-.73-2-1.57-4.23-1.15-5.29a3.25,3.25,0,0,1,.74-1,18.72,18.72,0,0,1,4.31-2.74l1.29-.69m22.37,34a15.59,15.59,0,0,1-4.59-1.27,18.72,18.72,0,0,0-6.07-1.54,5.4,5.4,0,0,0-2.56.59,4.23,4.23,0,0,0-1.07.79c-1.44,1.44-2.08,3.89-2.71,6.27-.53,2-1.14,4.29-2.13,5.29a1.79,1.79,0,0,1-.35.28,3,3,0,0,1-1.56.32,23.11,23.11,0,0,1-4-.56,26.18,26.18,0,0,0-4.78-.64,6.1,6.1,0,0,0-3.68,1,4.41,4.41,0,0,0-.52.45c-1.61,1.6-2,4.41-2.31,7.12-.27,2.19-.59,4.67-1.56,5.64l-.12.11a4.58,4.58,0,0,1-2.76.58c-.89,0-1.88-.07-2.93-.15s-2.13-.17-3.17-.17c-1.49,0-3.63.15-5.12,1.51l-.08.08,0,0c-1.75,1.75-1.81,4.78-1.88,7.72,0,2.29-.1,4.88-1.06,5.84s-3.55,1-5.84,1.06c-2.94.07-6,.13-7.76,1.92l-.11.12c-1.79,2-1.55,5.17-1.31,8.26.18,2.32.37,4.72-.42,5.68l-.11.13c-1,1-3.45,1.28-5.65,1.56-2.71.34-5.51.7-7.11,2.3a4.29,4.29,0,0,0-.45.52c-1.6,2.21-1,5.38-.38,8.46.43,2.25.88,4.58.24,5.6a2.26,2.26,0,0,1-.28.35c-1,1-3.28,1.6-5.29,2.13-2.37.63-4.83,1.27-6.27,2.71a4.69,4.69,0,0,0-.79,1.07c-1.32,2.51-.16,5.63,1,8.64.74,2,1.57,4.23,1.15,5.29a3.05,3.05,0,0,1-.73,1,19,19,0,0,1-4.32,2.74,19.48,19.48,0,0,0-4.57,2.95A4.68,4.68,0,0,0,26,141.2c-.69,3.17,1.8,6,4,8.47,1.24,1.4,2.65,3,2.75,4a5.26,5.26,0,0,1-.92,2.52,19.62,19.62,0,0,0-1.15,2.46c-1.27,3.44-.84,6.92,1.09,8.85a7,7,0,0,0,5,1.8,11.28,11.28,0,0,0,3.86-.71,19.42,19.42,0,0,0,2.45-1.16,6.24,6.24,0,0,1,2.38-.92h.14c1,.1,2.58,1.52,4,2.76,2.28,2,4.64,4.12,7.38,4.12a4.83,4.83,0,0,0,1.08-.11,4.63,4.63,0,0,0,2.31-1.35,19.07,19.07,0,0,0,2.95-4.57A18.94,18.94,0,0,1,66,163a3.17,3.17,0,0,1,1-.74,2,2,0,0,1,.7-.11,15.77,15.77,0,0,1,4.58,1.27A18.83,18.83,0,0,0,78.45,165,5.43,5.43,0,0,0,81,164.4a4,4,0,0,0,1.06-.79c1.44-1.44,2.09-3.89,2.72-6.26.53-2,1.13-4.3,2.13-5.29a1.68,1.68,0,0,1,.34-.28,3,3,0,0,1,1.57-.32,23.11,23.11,0,0,1,4,.56,26,26,0,0,0,4.77.63,6,6,0,0,0,3.68-1,3.67,3.67,0,0,0,.52-.44c1.61-1.61,2-4.41,2.31-7.13.28-2.19.59-4.66,1.56-5.64l.13-.11a4.57,4.57,0,0,1,2.75-.58c.9,0,1.88.08,2.94.16s2.13.16,3.17.16c1.48,0,3.62-.15,5.11-1.5l.08-.08,0,0c1.75-1.75,1.82-4.78,1.88-7.72,0-2.28.11-4.88,1.06-5.84s3.56-1,5.85-1.06c2.93-.06,6-.13,7.72-1.88l0,0,.11-.11c1.8-2,1.55-5.18,1.31-8.27-.18-2.31-.36-4.71.43-5.68l.11-.12c1-1,3.45-1.29,5.64-1.56,2.71-.35,5.51-.7,7.12-2.31a4.32,4.32,0,0,0,.44-.52c1.61-2.2,1-5.38.39-8.46-.44-2.25-.89-4.58-.24-5.6a2.1,2.1,0,0,1,.28-.34c1-1,3.27-1.6,5.29-2.14,2.37-.62,4.83-1.27,6.26-2.71A4,4,0,0,0,164.4,81c1.33-2.51.17-5.63-1-8.65-.74-2-1.58-4.23-1.16-5.28a3.28,3.28,0,0,1,.74-1,18.92,18.92,0,0,1,4.32-2.74,18.89,18.89,0,0,0,4.56-2.95A4.59,4.59,0,0,0,173.26,58c.69-3.16-1.81-6-4-8.46-1.25-1.41-2.66-3-2.76-4a5.34,5.34,0,0,1,.92-2.51,18.28,18.28,0,0,0,1.16-2.46c1.27-3.45.84-6.92-1.09-8.85a7,7,0,0,0-5-1.81,11,11,0,0,0-3.85.72,19.62,19.62,0,0,0-2.46,1.15,6.12,6.12,0,0,1-2.38.93h-.14c-1-.1-2.57-1.51-4-2.76-2.29-2-4.65-4.12-7.39-4.12a5.47,5.47,0,0,0-1.07.11,4.74,4.74,0,0,0-2.31,1.35,19.36,19.36,0,0,0-3,4.58,18.86,18.86,0,0,1-2.74,4.3,3.1,3.1,0,0,1-1,.74,1.83,1.83,0,0,1-.71.11M108.65,1c-.57.32-1.17.64-1.79,1a20,20,0,0,0-4.8,3.1,5.05,5.05,0,0,0-1.18,1.72c-.7,1.77.19,4.17,1.14,6.72s2,5.29,1.06,7a2.38,2.38,0,0,1-.44.59c-1,1.05-3.24,1.63-5.36,2.19-2.36.62-4.81,1.27-6.19,2.65a4.46,4.46,0,0,0-.56.69c-1.07,1.69-.56,4.3,0,7s1,5.4,0,6.9a2.09,2.09,0,0,1-.24.28c-1.12,1.13-3.58,1.44-6,1.74-2.63.33-5.35.68-6.81,2.13l-.25.27c-1.29,1.59-1.08,4.27-.86,7.11.2,2.66.42,5.42-.8,6.76l-.08.08c-1.18,1.18-3.81,1.24-6.35,1.3-2.8.06-5.69.12-7.21,1.65s-1.59,4.41-1.65,7.21c-.06,2.54-.11,5.16-1.3,6.35l-.08.07a5.59,5.59,0,0,1-3.74,1c-1,0-2-.08-3-.16S50,76.18,49,76.18a6.25,6.25,0,0,0-4,1l-.28.25c-1.45,1.45-1.79,4.17-2.13,6.8-.3,2.38-.61,4.84-1.73,6a2.09,2.09,0,0,1-.28.24,4.23,4.23,0,0,1-2.51.64,24.22,24.22,0,0,1-4.4-.6,24.9,24.9,0,0,0-4.42-.6,4.87,4.87,0,0,0-2.63.63,3.94,3.94,0,0,0-.69.56c-1.38,1.38-2,3.83-2.65,6.19-.56,2.12-1.14,4.31-2.19,5.36a2.38,2.38,0,0,1-.59.44,3.42,3.42,0,0,1-1.62.36A17.29,17.29,0,0,1,13.51,102a16.79,16.79,0,0,0-5.28-1.39,4.05,4.05,0,0,0-1.45.25,5.25,5.25,0,0,0-1.72,1.18,20.67,20.67,0,0,0-3.1,4.8c-.32.62-.64,1.22-1,1.78a99,99,0,0,0,89.59,89.59c.56-.32,1.17-.64,1.79-1a20.39,20.39,0,0,0,4.79-3.1,5,5,0,0,0,1.18-1.72c.71-1.77-.19-4.18-1.13-6.72s-2-5.3-1.07-7a2.61,2.61,0,0,1,.44-.58c1.06-1.06,3.25-1.63,5.36-2.19,2.37-.63,4.82-1.28,6.19-2.65a3.66,3.66,0,0,0,.56-.7c1.07-1.69.57-4.29,0-7.05s-1-5.4,0-6.9a2.09,2.09,0,0,1,.24-.28c1.13-1.12,3.58-1.43,6-1.73,2.63-.34,5.35-.68,6.8-2.14a2.16,2.16,0,0,0,.25-.27c1.3-1.58,1.09-4.26.87-7.1-.21-2.67-.42-5.42.8-6.76l.07-.09c1.19-1.18,3.82-1.24,6.36-1.29,2.79-.06,5.68-.13,7.21-1.65s1.59-4.42,1.65-7.21c.05-2.54.11-5.17,1.29-6.35l.08-.08a5.61,5.61,0,0,1,3.74-1c1,0,2,.08,3,.16s2.1.17,3.07.17a6.28,6.28,0,0,0,4-1c.09-.07.18-.16.27-.24,1.45-1.46,1.8-4.18,2.13-6.81.3-2.37.61-4.83,1.74-6l.28-.24a4.26,4.26,0,0,1,2.51-.63,25,25,0,0,1,4.39.59,24.12,24.12,0,0,0,4.42.6,4.84,4.84,0,0,0,2.63-.63,3.66,3.66,0,0,0,.7-.56c1.37-1.37,2-3.82,2.65-6.19.55-2.11,1.13-4.3,2.19-5.36a2.4,2.4,0,0,1,.58-.44,3.48,3.48,0,0,1,1.63-.35,17.43,17.43,0,0,1,5.39,1.42A16.79,16.79,0,0,0,191,98.61a3.8,3.8,0,0,0,1.44-.26,5.1,5.1,0,0,0,1.72-1.18,20.28,20.28,0,0,0,3.1-4.79c.33-.62.64-1.22,1-1.79A99,99,0,0,0,108.65,1Zm22.8,38.05a3.85,3.85,0,0,0,1.45-.25,5.25,5.25,0,0,0,1.72-1.18,20.67,20.67,0,0,0,3.1-4.8,17.76,17.76,0,0,1,2.59-4.08,2.76,2.76,0,0,1,1.32-.81,2.88,2.88,0,0,1,.65-.07c2,0,4.05,1.84,6.06,3.62,1.79,1.59,3.48,3.09,5.11,3.25l.34,0c1.81,0,3.4-1.42,5.53-2.21a9.33,9.33,0,0,1,3.16-.59,5,5,0,0,1,3.58,1.22c1.27,1.27,1.67,3.93.63,6.75-.83,2.26-2.39,3.91-2.19,5.87.17,1.62,1.67,3.32,3.26,5.11,2,2.23,4,4.53,3.55,6.71a2.84,2.84,0,0,1-.81,1.32,17.85,17.85,0,0,1-4.09,2.59,20.08,20.08,0,0,0-4.79,3.1,5.14,5.14,0,0,0-1.19,1.72c-.7,1.77.19,4.17,1.14,6.72s2,5.29,1.06,7a2.29,2.29,0,0,1-.43.58c-1.06,1.06-3.25,1.63-5.36,2.19-2.37.63-4.82,1.27-6.2,2.65a4,4,0,0,0-.55.7c-1.07,1.69-.57,4.29,0,7s1.05,5.41,0,6.91a3.08,3.08,0,0,1-.24.27c-1.13,1.13-3.58,1.44-6,1.74-2.63.33-5.35.68-6.8,2.13a3.33,3.33,0,0,0-.25.28c-1.3,1.58-1.09,4.26-.87,7.1.21,2.66.42,5.42-.8,6.76l-.08.08c-1.18,1.19-3.81,1.25-6.35,1.3-2.79.06-5.69.13-7.21,1.65s-1.59,4.42-1.65,7.21c0,2.54-.11,5.17-1.29,6.35l-.08.08a5.61,5.61,0,0,1-3.74,1c-1,0-2-.08-3-.15s-2.11-.17-3.08-.17a6.32,6.32,0,0,0-4,1,3.2,3.2,0,0,0-.27.25c-1.46,1.46-1.8,4.18-2.13,6.81-.3,2.37-.62,4.83-1.74,6a2.09,2.09,0,0,1-.28.24,4.19,4.19,0,0,1-2.51.64,25,25,0,0,1-4.39-.59,24.12,24.12,0,0,0-4.42-.6,4.84,4.84,0,0,0-2.63.62,4.65,4.65,0,0,0-.7.56c-1.37,1.38-2,3.83-2.65,6.2-.56,2.11-1.13,4.3-2.19,5.36a2.48,2.48,0,0,1-.58.43,3.49,3.49,0,0,1-1.63.36,17.29,17.29,0,0,1-5.39-1.42,16.79,16.79,0,0,0-5.28-1.39,3.8,3.8,0,0,0-1.44.26,4.87,4.87,0,0,0-1.72,1.18,19.78,19.78,0,0,0-3.1,4.79,18.19,18.19,0,0,1-2.59,4.09,2.82,2.82,0,0,1-1.33.81,3.49,3.49,0,0,1-.65.06c-2,0-4.05-1.83-6.06-3.61-1.79-1.59-3.48-3.09-5.11-3.26h-.34c-1.81,0-3.39,1.42-5.53,2.2a9.09,9.09,0,0,1-3.16.59,5,5,0,0,1-3.58-1.22c-1.27-1.27-1.66-3.93-.63-6.74.84-2.27,2.39-3.92,2.19-5.87-.16-1.63-1.66-3.32-3.25-5.11-2-2.23-4-4.54-3.55-6.71a2.72,2.72,0,0,1,.81-1.32,18,18,0,0,1,4.09-2.6,20.18,20.18,0,0,0,4.79-3.1,5,5,0,0,0,1.18-1.71c.71-1.78-.19-4.18-1.14-6.73s-2-5.29-1.06-7a2.17,2.17,0,0,1,.44-.58c1.05-1.06,3.24-1.64,5.36-2.2,2.37-.62,4.81-1.27,6.19-2.65a3.61,3.61,0,0,0,.56-.69c1.07-1.69.56-4.29,0-7.05s-1-5.4,0-6.9a2.09,2.09,0,0,1,.24-.28c1.12-1.12,3.58-1.44,6-1.74,2.63-.33,5.35-.67,6.8-2.13l.25-.27c1.29-1.59,1.09-4.27.87-7.1-.21-2.67-.42-5.43.79-6.77l.08-.08c1.18-1.18,3.81-1.24,6.35-1.3,2.8-.06,5.69-.12,7.21-1.65s1.59-4.41,1.65-7.21c.06-2.54.12-5.16,1.3-6.35l.08-.07a5.61,5.61,0,0,1,3.74-1c1,0,2,.08,3,.16s2.11.16,3.08.16a6.25,6.25,0,0,0,4-1l.28-.25c1.45-1.45,1.8-4.17,2.13-6.8.3-2.38.61-4.83,1.74-6a1.61,1.61,0,0,1,.28-.24,4.18,4.18,0,0,1,2.5-.64,25.13,25.13,0,0,1,4.4.6,25,25,0,0,0,4.42.6,4.87,4.87,0,0,0,2.63-.63,3.61,3.61,0,0,0,.69-.56c1.38-1.38,2-3.82,2.65-6.19.56-2.12,1.14-4.31,2.2-5.36a2.17,2.17,0,0,1,.58-.44,3.43,3.43,0,0,1,1.63-.35,17.39,17.39,0,0,1,5.39,1.41,16.67,16.67,0,0,0,5.27,1.39Z" transform="translate(-0.59 -0.59)"/><path class="cls-1" d="M57,170.37c-1.6,0-3.53-1.71-5.39-3.36s-3.72-3.3-5.68-3.5a3.15,3.15,0,0,0-.44,0,8.12,8.12,0,0,0-3.78,1.28,16.68,16.68,0,0,1-2.09,1,8.21,8.21,0,0,1-2.82.53,4.08,4.08,0,0,1-2.87-.92c-.88-.88-1.38-3-.4-5.7a17.31,17.31,0,0,1,1-2.08,7.42,7.42,0,0,0,1.26-4.23c-.2-1.95-1.8-3.76-3.5-5.67s-3.69-4.16-3.32-5.84a1.81,1.81,0,0,1,.53-.83,17.89,17.89,0,0,1,3.85-2.41,21.07,21.07,0,0,0,5-3.28,6.05,6.05,0,0,0,1.4-2c.85-2.13-.11-4.71-1.13-7.44-.85-2.29-1.81-4.88-1.11-6.21a1.47,1.47,0,0,1,.26-.34c.86-.86,3-1.43,4.9-1.93,2.5-.66,5.08-1.34,6.65-2.91a5.54,5.54,0,0,0,.69-.86c1.29-2,.74-4.83.17-7.78-.45-2.33-1-5-.13-6.12a1,1,0,0,1,.13-.16c.89-.89,3.28-1.19,5.38-1.45,2.8-.36,5.69-.72,7.39-2.42.11-.11.21-.23.31-.34,1.55-1.91,1.33-4.78,1.09-7.82-.18-2.34-.38-5,.54-6l.07-.06c.88-.88,3.41-.94,5.64-1,3-.06,6.1-.13,7.9-1.94s1.88-4.9,1.94-7.9c0-2.23.11-4.76,1-5.66l.06-.06a4.77,4.77,0,0,1,3.05-.68c.92,0,1.95.08,2.94.16s2.15.16,3.16.16a7.3,7.3,0,0,0,4.66-1.25l.35-.32c1.69-1.7,2.06-4.58,2.41-7.38.27-2.12.57-4.5,1.45-5.38a1.07,1.07,0,0,1,.16-.14,3.3,3.3,0,0,1,1.92-.44,24.26,24.26,0,0,1,4.21.57,24.85,24.85,0,0,0,4.61.62,5.74,5.74,0,0,0,3.16-.79,4.71,4.71,0,0,0,.87-.69c1.57-1.57,2.25-4.14,2.91-6.63.5-1.91,1.07-4.06,1.93-4.93a2,2,0,0,1,.35-.26,2.44,2.44,0,0,1,1.16-.24,16.55,16.55,0,0,1,5,1.36,17.46,17.46,0,0,0,5.65,1.45,5,5,0,0,0,1.81-.32,6.05,6.05,0,0,0,2-1.4,20.91,20.91,0,0,0,3.28-5A17.36,17.36,0,0,1,141,29.44a1.76,1.76,0,0,1,.83-.53,2,2,0,0,1,.43-.05c1.6,0,3.53,1.71,5.4,3.37s3.72,3.3,5.67,3.5l.45,0a8.08,8.08,0,0,0,3.78-1.28,16.75,16.75,0,0,1,2.09-1,8.4,8.4,0,0,1,2.81-.53,4.11,4.11,0,0,1,2.88.93c.87.88,1.37,3,.39,5.69a16,16,0,0,1-1,2.09,7.46,7.46,0,0,0-1.25,4.23c.2,2,1.8,3.75,3.5,5.67s3.68,4.16,3.32,5.83a1.88,1.88,0,0,1-.54.83A17.3,17.3,0,0,1,166,60.63a21.18,21.18,0,0,0-5,3.28,6,6,0,0,0-1.4,2.06c-.85,2.13.11,4.71,1.12,7.44.85,2.28,1.82,4.87,1.12,6.2a1.34,1.34,0,0,1-.26.34c-.86.87-3,1.43-4.9,1.93-2.5.66-5.08,1.35-6.65,2.91a5.24,5.24,0,0,0-.7.87c-1.28,2-.74,4.82-.17,7.77.46,2.34,1,5,.14,6.13a1.07,1.07,0,0,1-.14.16c-.88.88-3.27,1.18-5.37,1.45-2.8.35-5.69.72-7.39,2.42-.11.11-.22.22-.32.34-1.55,1.9-1.32,4.77-1.09,7.82.18,2.34.39,5-.54,6l-.06.07c-.88.88-3.41.93-5.64,1-3,.07-6.1.13-7.91,1.94s-1.87,4.91-1.94,7.9c0,2.23-.1,4.77-1,5.66l-.06.06a4.73,4.73,0,0,1-3,.68c-.93,0-2-.08-2.94-.15s-2.16-.17-3.17-.17a7.2,7.2,0,0,0-4.65,1.26c-.12.1-.24.2-.35.31-1.69,1.7-2.06,4.59-2.42,7.39-.26,2.11-.56,4.49-1.45,5.38l-.16.14a3.34,3.34,0,0,1-1.92.44h0a23.42,23.42,0,0,1-4.2-.58,25.78,25.78,0,0,0-4.61-.61,5.78,5.78,0,0,0-3.17.78,5,5,0,0,0-.86.69c-1.57,1.58-2.25,4.16-2.91,6.65-.51,1.9-1.07,4-1.94,4.91a1.34,1.34,0,0,1-.34.26,2.49,2.49,0,0,1-1.16.24,16.66,16.66,0,0,1-5-1.36,17.55,17.55,0,0,0-5.63-1.45,4.78,4.78,0,0,0-1.81.33,5.9,5.9,0,0,0-2.06,1.4,21,21,0,0,0-3.28,5,17.17,17.17,0,0,1-2.41,3.85,1.88,1.88,0,0,1-.83.54A2.12,2.12,0,0,1,57,170.37Z" transform="translate(-0.59 -0.59)"/><path d="M142.28,29.86c1.22,0,3.17,1.73,4.74,3.11,2,1.81,4,3.52,6.23,3.75a4.89,4.89,0,0,0,.54,0,8.94,8.94,0,0,0,4.26-1.4,17.56,17.56,0,0,1,2-.93,7.23,7.23,0,0,1,2.47-.47,3.16,3.16,0,0,1,2.17.64c.66.66.95,2.51.17,4.64a16.75,16.75,0,0,1-.94,2,8.31,8.31,0,0,0-1.37,4.8c.23,2.27,1.94,4.19,3.75,6.23,1.49,1.69,3.35,3.78,3.09,5a1,1,0,0,1-.27.34,17,17,0,0,1-3.6,2.24,21.53,21.53,0,0,0-5.28,3.46,7,7,0,0,0-1.62,2.39c-1,2.49.08,5.37,1.12,8.16.7,1.88,1.66,4.45,1.16,5.39a.44.44,0,0,1-.08.1c-.67.67-2.77,1.22-4.46,1.67-2.62.69-5.33,1.41-7.09,3.17a6.38,6.38,0,0,0-.84,1c-1.49,2.36-.88,5.48-.3,8.5.36,1.81.89,4.54.31,5.34l0,0c-.64.64-3.14,1-4.79,1.17-3,.37-6,.76-8,2.7-.13.14-.26.27-.38.42-1.8,2.21-1.56,5.42-1.31,8.53.14,1.81.35,4.56-.26,5.22l0,0c-.62.62-3.35.68-5,.71-3,.07-6.49.14-8.58,2.24s-2.17,5.54-2.24,8.58c0,1.62-.09,4.34-.7,5l0,0c-.14.13-.67.43-2.39.43-.89,0-1.89-.07-2.87-.15s-2.19-.17-3.24-.17a8.31,8.31,0,0,0-5.28,1.48,5.22,5.22,0,0,0-.43.39c-1.93,1.93-2.32,5-2.7,8-.21,1.66-.52,4.16-1.17,4.8l0,0a2.39,2.39,0,0,1-1.33.25,22.87,22.87,0,0,1-4-.56,26.47,26.47,0,0,0-4.8-.63,6.75,6.75,0,0,0-3.7.93,6.38,6.38,0,0,0-1,.84c-1.76,1.76-2.48,4.47-3.17,7.1-.45,1.68-1,3.78-1.67,4.45a.35.35,0,0,1-.1.08,1.48,1.48,0,0,1-.7.13,16.32,16.32,0,0,1-4.7-1.3,18.15,18.15,0,0,0-6-1.51,5.91,5.91,0,0,0-2.18.4,7.13,7.13,0,0,0-2.4,1.62,21.69,21.69,0,0,0-3.46,5.29,16.77,16.77,0,0,1-2.23,3.59,1.28,1.28,0,0,1-.33.27h0a.86.86,0,0,1-.23,0c-1.22,0-3.16-1.72-4.73-3.11-2-1.81-4-3.52-6.23-3.75a5.15,5.15,0,0,0-.55,0,8.89,8.89,0,0,0-4.25,1.39,14.73,14.73,0,0,1-2,.93,7.14,7.14,0,0,1-2.47.47,3.12,3.12,0,0,1-2.16-.63c-.67-.66-1-2.52-.17-4.64a17.56,17.56,0,0,1,.93-2,8.35,8.35,0,0,0,1.37-4.8c-.23-2.27-1.93-4.2-3.75-6.24-1.49-1.68-3.34-3.77-3.09-4.95a1.18,1.18,0,0,1,.27-.34,17.53,17.53,0,0,1,3.61-2.24A21.44,21.44,0,0,0,39,136a6.92,6.92,0,0,0,1.63-2.4c1-2.48-.08-5.36-1.12-8.15-.7-1.88-1.66-4.46-1.17-5.39a.44.44,0,0,1,.08-.1c.68-.67,2.77-1.23,4.46-1.67,2.62-.7,5.34-1.41,7.1-3.17a5.83,5.83,0,0,0,.83-1c1.49-2.37.89-5.48.3-8.5-.35-1.81-.88-4.55-.31-5.34l0,0c.64-.64,3.14-1,4.8-1.16,3-.38,6-.77,8-2.7a5.22,5.22,0,0,0,.39-.43c1.8-2.2,1.55-5.41,1.31-8.52-.14-1.82-.35-4.56.25-5.23l0-.05c.61-.61,3.34-.67,5-.71,3-.06,6.49-.14,8.58-2.23s2.17-5.54,2.23-8.58c0-1.63.1-4.35.7-5l0,0c.15-.13.67-.44,2.4-.44.88,0,1.89.08,2.87.15s2.18.17,3.23.17A8.29,8.29,0,0,0,95.93,64a5.14,5.14,0,0,0,.42-.38c1.94-1.94,2.33-5,2.7-8,.21-1.65.53-4.15,1.17-4.8l0,0a2.31,2.31,0,0,1,1.33-.26,24,24,0,0,1,4,.56,25.54,25.54,0,0,0,4.8.64,6.76,6.76,0,0,0,3.7-.94,5.47,5.47,0,0,0,1-.84c1.76-1.75,2.47-4.47,3.17-7.09.44-1.69,1-3.78,1.67-4.46l.1-.08a1.63,1.63,0,0,1,.7-.12,16.29,16.29,0,0,1,4.69,1.29,17.91,17.91,0,0,0,6,1.51,5.93,5.93,0,0,0,2.19-.39A7,7,0,0,0,136,39a21.63,21.63,0,0,0,3.46-5.28,17.72,17.72,0,0,1,2.23-3.6,1.51,1.51,0,0,1,.34-.27h0l.22,0M57.18,169.35h0m85.1-141.49a2.88,2.88,0,0,0-.65.07,2.76,2.76,0,0,0-1.32.81,17.76,17.76,0,0,0-2.59,4.08,20.67,20.67,0,0,1-3.1,4.8,5.25,5.25,0,0,1-1.72,1.18,3.85,3.85,0,0,1-1.45.25,16.67,16.67,0,0,1-5.27-1.39,17.39,17.39,0,0,0-5.39-1.41,3.32,3.32,0,0,0-1.63.35,2.17,2.17,0,0,0-.58.44c-1.06,1.05-1.64,3.24-2.2,5.36-.62,2.37-1.27,4.81-2.65,6.19a3.61,3.61,0,0,1-.69.56,4.87,4.87,0,0,1-2.63.63,25,25,0,0,1-4.42-.6,25.13,25.13,0,0,0-4.4-.6,4.18,4.18,0,0,0-2.5.64,1.61,1.61,0,0,0-.28.24c-1.13,1.13-1.44,3.58-1.74,6-.33,2.63-.68,5.35-2.13,6.8l-.28.25a6.25,6.25,0,0,1-4,1c-1,0-2-.08-3.08-.16s-2.06-.16-3-.16a5.61,5.61,0,0,0-3.74,1l-.08.07c-1.18,1.19-1.24,3.81-1.3,6.35-.06,2.8-.12,5.69-1.65,7.21s-4.41,1.59-7.21,1.65c-2.54.06-5.17.12-6.35,1.3l-.08.08c-1.21,1.34-1,4.1-.79,6.77.22,2.83.42,5.51-.87,7.1l-.25.27c-1.45,1.46-4.17,1.8-6.8,2.13-2.38.3-4.84.62-6,1.74a2.09,2.09,0,0,0-.24.28c-1.09,1.5-.56,4.24,0,6.9s1,5.36,0,7.05a3.61,3.61,0,0,1-.56.69c-1.38,1.38-3.82,2-6.19,2.65-2.12.56-4.31,1.14-5.36,2.2a2.17,2.17,0,0,0-.44.58c-.91,1.72.1,4.41,1.06,7s1.85,5,1.14,6.73a5,5,0,0,1-1.18,1.71,20.18,20.18,0,0,1-4.79,3.1,18,18,0,0,0-4.09,2.6,2.72,2.72,0,0,0-.81,1.32c-.47,2.17,1.57,4.48,3.55,6.71,1.59,1.79,3.09,3.48,3.25,5.11.2,2-1.35,3.6-2.19,5.87-1,2.81-.64,5.47.63,6.74a5.06,5.06,0,0,0,3.58,1.22,9.09,9.09,0,0,0,3.16-.59c2.13-.78,3.72-2.2,5.53-2.2h.34c1.63.17,3.32,1.67,5.11,3.26,2,1.78,4.08,3.61,6.06,3.61a3.49,3.49,0,0,0,.65-.06,2.82,2.82,0,0,0,1.33-.81,18.19,18.19,0,0,0,2.59-4.09,19.78,19.78,0,0,1,3.1-4.79,4.87,4.87,0,0,1,1.72-1.18,3.8,3.8,0,0,1,1.44-.26,16.79,16.79,0,0,1,5.28,1.39A17.29,17.29,0,0,0,78.45,163a3.37,3.37,0,0,0,1.63-.36,2.48,2.48,0,0,0,.58-.43c1.06-1.06,1.63-3.25,2.19-5.36.63-2.37,1.28-4.82,2.65-6.2a4.65,4.65,0,0,1,.7-.56,4.82,4.82,0,0,1,2.63-.62,24.12,24.12,0,0,1,4.42.6,24.84,24.84,0,0,0,4.39.59,4.19,4.19,0,0,0,2.51-.64,2.09,2.09,0,0,0,.28-.24c1.12-1.12,1.44-3.58,1.74-6,.33-2.63.67-5.35,2.13-6.81a3.2,3.2,0,0,1,.27-.25,6.32,6.32,0,0,1,4-1c1,0,2,.08,3.08.17s2.06.15,3,.15a5.61,5.61,0,0,0,3.74-1l.08-.08c1.18-1.18,1.24-3.81,1.29-6.35.06-2.79.13-5.69,1.65-7.21s4.42-1.59,7.21-1.65c2.54,0,5.17-.11,6.35-1.3l.08-.08c1.22-1.34,1-4.1.8-6.76-.22-2.84-.43-5.52.87-7.1a3.33,3.33,0,0,1,.25-.28c1.45-1.45,4.17-1.8,6.8-2.13,2.38-.3,4.83-.61,6-1.74a3.08,3.08,0,0,0,.24-.27c1.09-1.5.55-4.25,0-6.91s-1-5.35,0-7a4,4,0,0,1,.55-.7c1.38-1.38,3.83-2,6.2-2.65,2.11-.56,4.3-1.13,5.36-2.19a2.29,2.29,0,0,0,.43-.58c.91-1.73-.09-4.42-1.06-7s-1.84-5-1.14-6.72a5.14,5.14,0,0,1,1.19-1.72,20.08,20.08,0,0,1,4.79-3.1,17.85,17.85,0,0,0,4.09-2.59,2.84,2.84,0,0,0,.81-1.32c.47-2.18-1.58-4.48-3.55-6.71-1.59-1.79-3.09-3.49-3.26-5.11-.2-2,1.36-3.61,2.19-5.87,1-2.82.64-5.48-.63-6.75A5,5,0,0,0,162.48,32a9.33,9.33,0,0,0-3.16.59c-2.13.79-3.72,2.21-5.53,2.21l-.34,0c-1.63-.16-3.32-1.66-5.11-3.25-2-1.78-4.08-3.62-6.06-3.62Z" transform="translate(-0.59 -0.59)"/><path class="cls-1" d="M1.74,105.14A98,98,0,0,1,99.61,1.59c1.84,0,3.69,0,5.54.16a16,16,0,0,0-3.79,2.61A6,6,0,0,0,100,6.42c-.84,2.12.11,4.7,1.13,7.43.85,2.29,1.81,4.88,1.12,6.21a1.34,1.34,0,0,1-.27.34c-.86.86-3,1.43-4.89,1.93-2.51.66-5.09,1.34-6.66,2.91a4.71,4.71,0,0,0-.69.87c-1.28,2-.74,4.82-.17,7.77.45,2.33,1,5,.14,6.12a1.07,1.07,0,0,1-.14.16c-.89.89-3.27,1.19-5.38,1.46-2.8.35-5.69.71-7.38,2.41a3.49,3.49,0,0,0-.32.35c-1.55,1.9-1.33,4.77-1.09,7.81.18,2.34.38,5-.54,6l-.06.06c-.88.88-3.41.94-5.64,1-3,.06-6.1.13-7.91,1.94s-1.87,4.9-1.94,7.9c0,2.23-.1,4.76-1,5.66l-.07.06a4.77,4.77,0,0,1-3,.68c-.92,0-2-.08-2.94-.15s-2.15-.17-3.16-.17a7.25,7.25,0,0,0-4.66,1.26l-.34.31c-1.7,1.69-2.06,4.58-2.42,7.38-.27,2.11-.57,4.5-1.45,5.39l-.16.13a3.27,3.27,0,0,1-1.92.45,24.36,24.36,0,0,1-4.2-.58,25.07,25.07,0,0,0-4.61-.62,5.75,5.75,0,0,0-3.17.79,5.07,5.07,0,0,0-.87.69C23.68,92,23,94.53,22.33,97c-.5,1.9-1.07,4-1.93,4.92a1.62,1.62,0,0,1-.34.26,2.49,2.49,0,0,1-1.16.24,16.66,16.66,0,0,1-5-1.36,17.35,17.35,0,0,0-5.63-1.45,5,5,0,0,0-1.82.32,6,6,0,0,0-2,1.41A16.46,16.46,0,0,0,1.74,105.14Z" transform="translate(-0.59 -0.59)"/><path d="M99.61,2.59c.75,0,1.5,0,2.24,0a10.84,10.84,0,0,0-1.2,1A7.16,7.16,0,0,0,99,6.05c-1,2.48.09,5.37,1.12,8.15.7,1.89,1.66,4.46,1.17,5.39a.44.44,0,0,1-.08.1c-.67.67-2.77,1.23-4.46,1.68-2.62.69-5.33,1.41-7.09,3.16a6.72,6.72,0,0,0-.84,1c-1.49,2.37-.89,5.48-.3,8.5.35,1.81.88,4.55.31,5.35,0,0,0,0,0,0-.64.64-3.14.95-4.8,1.16-3,.38-6,.77-8,2.7a3.78,3.78,0,0,0-.38.43c-1.81,2.2-1.56,5.41-1.32,8.52.14,1.82.35,4.56-.25,5.23l0,0c-.62.61-3.35.67-5,.71-3,.07-6.5.14-8.59,2.23S58.33,66,58.26,69.08c0,1.62-.1,4.34-.7,5h0c-.15.13-.67.44-2.4.44-.88,0-1.89-.08-2.87-.15s-2.18-.17-3.23-.17a8.29,8.29,0,0,0-5.29,1.48l-.42.38C41.39,78,41,81,40.63,84c-.21,1.66-.53,4.15-1.17,4.8l0,0a2.25,2.25,0,0,1-1.33.26,23.72,23.72,0,0,1-4-.56,26.61,26.61,0,0,0-4.81-.64,6.06,6.06,0,0,0-4.74,1.78c-1.75,1.76-2.47,4.47-3.17,7.09-.44,1.69-1,3.79-1.67,4.46a.31.31,0,0,1-.1.08,1.53,1.53,0,0,1-.69.13,16.24,16.24,0,0,1-4.7-1.3,18,18,0,0,0-6-1.51A5.87,5.87,0,0,0,6.05,99a7.06,7.06,0,0,0-2.4,1.63,12.1,12.1,0,0,0-1,1.2,97,97,0,0,1,97-99.26m0-2A99,99,0,0,0,1,108.64c.32-.56.64-1.16,1-1.78a20.67,20.67,0,0,1,3.1-4.8,5.25,5.25,0,0,1,1.72-1.18,4.05,4.05,0,0,1,1.45-.25A16.79,16.79,0,0,1,13.51,102a17.29,17.29,0,0,0,5.39,1.42,3.42,3.42,0,0,0,1.62-.36,2.38,2.38,0,0,0,.59-.44c1.05-1,1.63-3.24,2.19-5.36.62-2.36,1.27-4.81,2.65-6.19a3.94,3.94,0,0,1,.69-.56,4.87,4.87,0,0,1,2.63-.63,24.9,24.9,0,0,1,4.42.6,24.22,24.22,0,0,0,4.4.6,4.23,4.23,0,0,0,2.51-.64,2.09,2.09,0,0,0,.28-.24c1.12-1.12,1.43-3.58,1.73-6,.34-2.63.68-5.35,2.13-6.8l.28-.25a6.25,6.25,0,0,1,4-1c1,0,2,.08,3.08.16s2.06.16,3,.16a5.59,5.59,0,0,0,3.74-1l.08-.07c1.19-1.19,1.24-3.81,1.3-6.35.06-2.8.12-5.69,1.65-7.21s4.41-1.59,7.21-1.65c2.54-.06,5.17-.12,6.35-1.3l.08-.08c1.22-1.34,1-4.1.8-6.76-.22-2.84-.43-5.52.86-7.11l.25-.27c1.46-1.45,4.18-1.8,6.81-2.13,2.37-.3,4.83-.61,6-1.74a2.09,2.09,0,0,0,.24-.28c1.09-1.5.56-4.24,0-6.9s-1-5.36,0-7a4.46,4.46,0,0,1,.56-.69c1.38-1.38,3.83-2,6.19-2.65,2.12-.56,4.31-1.14,5.36-2.19a2.38,2.38,0,0,0,.44-.59c.91-1.72-.09-4.41-1.06-7s-1.84-4.95-1.14-6.72a5.05,5.05,0,0,1,1.18-1.72,20,20,0,0,1,4.8-3.1c.62-.33,1.22-.65,1.79-1q-4.52-.4-9-.41Z" transform="translate(-0.59 -0.59)"/><path class="cls-1" d="M99.62,197.64c-1.84,0-3.69,0-5.53-.15a16.31,16.31,0,0,0,3.79-2.62,5.91,5.91,0,0,0,1.4-2.05c.85-2.13-.11-4.71-1.13-7.44-.85-2.29-1.81-4.88-1.11-6.2a1.34,1.34,0,0,1,.26-.34c.86-.87,3-1.44,4.91-1.94,2.5-.66,5.08-1.34,6.64-2.91a4.63,4.63,0,0,0,.7-.86c1.28-2,.74-4.82.16-7.77-.45-2.34-1-5-.13-6.13a1.07,1.07,0,0,1,.14-.16c.88-.88,3.27-1.18,5.37-1.45,2.81-.36,5.7-.72,7.39-2.42.11-.11.22-.23.32-.35,1.54-1.89,1.32-4.77,1.09-7.81-.18-2.34-.39-5,.54-6l.06-.07c.88-.88,3.41-.93,5.65-1,3-.07,6.09-.14,7.9-1.95s1.87-4.9,1.94-7.89c0-2.24.1-4.77,1-5.67l.06,0a4.72,4.72,0,0,1,3.05-.69c.93,0,1.95.08,2.94.16s2.16.17,3.17.17a7.26,7.26,0,0,0,4.65-1.26l.34-.31c1.7-1.7,2.07-4.6,2.42-7.39.27-2.11.57-4.5,1.46-5.38a1.07,1.07,0,0,1,.16-.14,3.34,3.34,0,0,1,1.92-.44,24.28,24.28,0,0,1,4.2.57,25,25,0,0,0,4.61.62,5.78,5.78,0,0,0,3.17-.78,5.68,5.68,0,0,0,.87-.7c1.56-1.57,2.24-4.15,2.9-6.64.5-1.9,1.07-4,1.94-4.91a1.14,1.14,0,0,1,.34-.26,2.47,2.47,0,0,1,1.16-.24,17,17,0,0,1,5,1.35A17.32,17.32,0,0,0,191,99.61a4.78,4.78,0,0,0,1.81-.33,6.19,6.19,0,0,0,2.06-1.4,16.28,16.28,0,0,0,2.61-3.79A98,98,0,0,1,99.62,197.64Z" transform="translate(-0.59 -0.59)"/><path d="M196.62,97.38a97,97,0,0,1-97,99.26c-.74,0-1.49,0-2.24,0a11,11,0,0,0,1.21-1,7,7,0,0,0,1.62-2.39c1-2.49-.08-5.37-1.12-8.16-.7-1.88-1.66-4.46-1.16-5.39a.23.23,0,0,1,.08-.1c.67-.67,2.77-1.23,4.45-1.67,2.63-.69,5.34-1.41,7.1-3.17a5.83,5.83,0,0,0,.83-1c1.5-2.36.89-5.48.3-8.5-.35-1.81-.88-4.55-.3-5.34,0,0,0,0,0,0,.64-.64,3.14-1,4.79-1.17,3-.37,6-.76,8-2.7l.38-.42c1.8-2.21,1.55-5.42,1.31-8.53-.14-1.81-.35-4.56.26-5.23l0,0c.64-.61,3.35-.67,5-.7,3-.07,6.48-.15,8.57-2.24s2.17-5.54,2.23-8.58c0-1.63.1-4.35.71-5l0,0c.14-.13.67-.44,2.39-.44.89,0,1.89.08,2.87.16s2.19.17,3.23.17a8.34,8.34,0,0,0,5.29-1.48,5.22,5.22,0,0,0,.43-.39c1.93-1.94,2.32-5,2.7-8,.21-1.65.52-4.15,1.16-4.79l0,0a2.48,2.48,0,0,1,1.34-.25,22.87,22.87,0,0,1,4,.56,26.47,26.47,0,0,0,4.8.63,6.67,6.67,0,0,0,3.7-.94,5.83,5.83,0,0,0,1-.83c1.76-1.76,2.47-4.47,3.17-7.1.44-1.68,1-3.78,1.67-4.45l.1-.09a1.63,1.63,0,0,1,.7-.12A16.21,16.21,0,0,1,185,99.09a18.05,18.05,0,0,0,6,1.52,5.91,5.91,0,0,0,2.18-.4,7.13,7.13,0,0,0,2.4-1.62,11,11,0,0,0,1-1.21m1.62-6.79c-.33.57-.64,1.17-1,1.79a20.28,20.28,0,0,1-3.1,4.79,5.1,5.1,0,0,1-1.72,1.18,3.8,3.8,0,0,1-1.44.26,16.79,16.79,0,0,1-5.28-1.39,17.36,17.36,0,0,0-5.39-1.42,3.48,3.48,0,0,0-1.63.35,2.4,2.4,0,0,0-.58.44c-1.06,1.06-1.64,3.25-2.19,5.36-.63,2.37-1.28,4.82-2.65,6.19a3.66,3.66,0,0,1-.7.56,4.84,4.84,0,0,1-2.63.63,24.12,24.12,0,0,1-4.42-.6,25,25,0,0,0-4.39-.59,4.26,4.26,0,0,0-2.51.63l-.28.24c-1.13,1.13-1.44,3.59-1.74,6-.33,2.63-.68,5.35-2.13,6.81-.09.08-.18.17-.27.24a6.28,6.28,0,0,1-4,1c-1,0-2-.08-3.07-.17s-2.06-.16-3-.16a5.61,5.61,0,0,0-3.74,1l-.08.08c-1.18,1.18-1.24,3.81-1.29,6.35-.06,2.79-.13,5.68-1.65,7.21s-4.42,1.59-7.21,1.65c-2.54.05-5.17.11-6.36,1.29l-.07.09c-1.22,1.34-1,4.09-.8,6.76.22,2.84.43,5.52-.87,7.1a2.16,2.16,0,0,1-.25.27c-1.45,1.46-4.17,1.8-6.8,2.14-2.38.3-4.83.61-6,1.73a2.09,2.09,0,0,0-.24.28c-1.09,1.5-.55,4.25,0,6.9s1,5.36,0,7.05a3.66,3.66,0,0,1-.56.7c-1.37,1.37-3.82,2-6.19,2.65-2.11.56-4.3,1.13-5.36,2.19a2.61,2.61,0,0,0-.44.58c-.9,1.72.1,4.41,1.07,7s1.84,5,1.13,6.72a5,5,0,0,1-1.18,1.72,20.39,20.39,0,0,1-4.79,3.1c-.62.32-1.23.64-1.79,1,3,.28,6,.41,9,.41a99,99,0,0,0,98.62-108Z" transform="translate(-0.59 -0.59)"/></g></g></svg>