<svg xmlns="http://www.w3.org/2000/svg" viewBox="0 0 95.43 202.05"><defs><style>.cls-1{fill:#fff;}.cls-2{fill:#66c;}</style></defs><g id="Layer_2" data-name="Layer 2"><g id="레이어_4" data-name="레이어 4"><path class="cls-1" d="M12.7,146.44a130.5,130.5,0,0,1-7.24-31.29c-.49-4.73-1-9.38-1.57-13.88v-.12C1.85,83.81.1,68.83,1.51,56.33a61,61,0,0,1,5.79-20c2.54-5.11,5.39-8.69,7.61-9.59a4.94,4.94,0,0,1,1.2-.31,3.44,3.44,0,0,1,.46,0c1.87,0,3.89,1.35,6.75,3.66,1.76,1.49,3.56,3.13,5.35,4.89-9,19.35-13.58,37.14-13.94,54.36-.14,7.23-.71,14.89-1.26,22.3C12.53,124.29,11.64,136.42,12.7,146.44Z"/><path d="M16.57,27.41c1.57,0,3.5,1.32,6.09,3.41,1.58,1.34,3.19,2.8,4.8,4.36C18.58,54.41,14.09,72.13,13.73,89.3c-.14,7.21-.71,14.85-1.25,22.24-.72,9.72-1.42,19.13-1.23,27.53a141,141,0,0,1-4.79-24c-.5-4.77-1-9.44-1.58-14V101c-2-17.28-3.76-32.2-2.37-44.57A60.36,60.36,0,0,1,8.19,36.78c2.88-5.76,5.55-8.48,7.09-9.1a4,4,0,0,1,.94-.25l.35,0m0-2a5.64,5.64,0,0,0-2,.42c-2.47,1-5.43,4.66-8.13,10.06A62.08,62.08,0,0,0,.52,56.22c-1.43,12.61.33,27.64,2.37,45,.53,4.54,1.08,9.23,1.58,14,1.86,15.78,5.46,28.92,10.74,39.29-4.54-16.13.06-42.34.52-65.22.43-20.66,7.11-39.64,14.14-54.6-2.28-2.27-4.31-4.09-5.92-5.44-3.07-2.49-5.22-3.89-7.38-3.89Z"/><path class="cls-1" d="M27.6,174.72a1,1,0,0,1-.64-.23,40.35,40.35,0,0,1-11.88-17c-.29-.77-.56-1.63-.84-2.62-3.14-11.18-2-26.74-.77-43.21.55-7.41,1.12-15.07,1.26-22.3.36-17.41,5-35.4,14.24-55,1.12-2.38,2.32-4.8,3.54-7.19C36.66,19,40.19,12.66,43,8.32,45.88,4.16,48.51,1,54.36,1,59.2,1,65.88,3.85,71,8.1c5.49,4.46,9.87,10.9,13,19.13,5.49,15.14,7.42,35.18,9.65,58.39L94,89.25c1.64,16.77-1.15,34.11-8.28,51.54a1,1,0,0,1-.78.61h-.15a1,1,0,0,1-.77-.36,2.28,2.28,0,0,0-1.74-.52c-4.48,0-14.34,4.9-24.52,14.27-4.81,3.7-10.85,6.84-16.18,9.6-3.25,1.68-6.31,3.26-8.61,4.73A8.81,8.81,0,0,0,28.55,174a1,1,0,0,1-.67.64A.9.9,0,0,1,27.6,174.72Z"/><path d="M54.36,2c4.18,0,10.67,2.44,16,6.86S80,19.68,83,27.58c5.74,15.81,7.62,37.64,10,61.76,1.86,19.07-2.34,36.71-8.22,51.07a3.13,3.13,0,0,0-2.51-.88c-4.83,0-14.88,5-25.2,14.54-7.55,5.81-18.51,10.31-24.65,14.22a9.65,9.65,0,0,0-4.8,5.43A39.38,39.38,0,0,1,16,157.09c-.3-.81-.57-1.66-.81-2.53-4.54-16.13.06-42.34.52-65.22.43-20.66,7.11-39.64,14.14-54.6,1.18-2.5,2.37-4.89,3.53-7.16,4-7.9,7.58-14.3,10.46-18.72C46.9,4.44,49.26,2,54.36,2m0-2C48,0,45.12,3.5,42.21,7.73A214.47,214.47,0,0,0,31.62,26.67c-1.23,2.4-2.43,4.83-3.56,7.22-9.28,19.73-14,37.86-14.33,55.41-.14,7.21-.71,14.85-1.25,22.24-1.23,16.57-2.39,32.21.8,43.56.29,1,.57,1.9.86,2.69a41.22,41.22,0,0,0,12.18,17.47,2,2,0,0,0,1.28.46,1.7,1.7,0,0,0,.55-.08,2,2,0,0,0,1.35-1.29A7.7,7.7,0,0,1,33.37,170l.1-.07c2.27-1.44,5.32-3,8.53-4.68,5.37-2.79,11.46-5.94,16.27-9.64l.14-.11c10-9.2,19.55-14,23.84-14h0a1.82,1.82,0,0,1,1,.17,2,2,0,0,0,1.53.72l.31,0a2,2,0,0,0,1.54-1.23c7.2-17.58,10-35.08,8.36-52l-.35-3.62c-2.24-23.28-4.17-43.38-9.71-58.63-3.2-8.42-7.68-15-13.32-19.59C66.35,2.94,59.42,0,54.36,0Z"/><path class="cls-2" d="M46.46,201.05c-10.7,0-16.36-9.81-19.22-18.05-1.28-3.68-1.48-6.91-.59-9.59a10.72,10.72,0,0,1,5.27-6c2.33-1.48,5.42-3.09,8.7-4.79,5.26-2.72,11.22-5.81,15.82-9.35,11-10.11,21.09-14.74,25.81-14.74a4,4,0,0,1,3.28,1.25,3,3,0,0,1,.58,1.12C89,151.77,64,195.35,54.89,199.19a21.84,21.84,0,0,1-8.43,1.86Z"/><path d="M82.25,139.53a3.13,3.13,0,0,1,2.51.88,2,2,0,0,1,.38.75c2.72,10.15-21.83,53.41-30.64,57.11a20.69,20.69,0,0,1-8,1.78c-10.88,0-16.1-11.1-18.28-17.37-.93-2.68-1.57-6-.58-9a9.65,9.65,0,0,1,4.8-5.43c6.14-3.91,17.1-8.41,24.65-14.22,10.32-9.5,20.37-14.54,25.2-14.54m0-2c-6.08,0-16.72,6-26.49,15-4.52,3.46-10.4,6.51-15.6,9.21-3.27,1.69-6.37,3.3-8.78,4.83a11.6,11.6,0,0,0-5.68,6.52c-1,2.9-.76,6.34.59,10.24,4.2,12.08,11.36,18.72,20.17,18.72a22.88,22.88,0,0,0,8.82-1.94c5.53-2.32,14.56-16,20.62-27,3.13-5.7,13.2-24.89,11.17-32.46a4,4,0,0,0-.77-1.5,5,5,0,0,0-4-1.61Z"/></g></g></svg>