<svg xmlns="http://www.w3.org/2000/svg" viewBox="0 0 149.8 200.06"><defs><style>.cls-1,.cls-2{fill:#fff;}.cls-2,.cls-3{stroke:#000;stroke-linecap:round;stroke-linejoin:round;stroke-width:2px;}.cls-3{fill:#c36;}</style></defs><g id="Layer_2" data-name="Layer 2"><g id="레이어_4" data-name="레이어 4"><path class="cls-1" d="M74.76,198.9l-.12-.14Z"/><path d="M74.64,198.76l.12.14-.12-.14Zm.12.14Z"/><path class="cls-1" d="M77.58,196c-.14.17-.28.34-.42.49C77.3,196.3,77.44,196.13,77.58,196Z"/><path d="M77.58,196h0Zm0,0-.09.12.09-.12Zm-.09.12-.33.37.33-.37Z"/><path class="cls-1" d="M79.39,193.85l-1.67,2Z"/><path d="M79.39,193.85h0Zm0,0-1.67,2,1.67-2Z"/><path class="cls-1" d="M76.26,197.5l-.24.27Z"/><path d="M76.26,197.5Zm0,0-.05.06.05-.06Zm-.05.06-.19.21.19-.21Z"/><path class="cls-1" d="M74.16,198.22l-.24-.28Z"/><path d="M73.92,197.94l.24.28-.24-.28Z"/><path class="cls-1" d="M72.12,195.86C62.62,184.79,31,147,13.31,113,31,147,62.63,184.8,72.12,195.86Z"/><path d="M13.31,113C31,147,62.63,184.8,72.12,195.86,62.62,184.79,31,147,13.31,113Z"/><path class="cls-1" d="M72.66,196.48l-.48-.55Z"/><path d="M72.18,195.93l.33.38-.33-.38Zm.33.38.15.17-.15-.17Z"/><path class="cls-1" d="M74.9,199.06h0l-.09-.11Z"/><path d="M74.81,199l.09.11-.09-.11Z"/><path class="cls-1" d="M136.48,113c-16.75,32.11-45.89,67.68-57,80.82C90.58,180.68,119.73,145.11,136.48,113Z"/><path d="M136.48,113h0Zm0,0c-16.75,32.12-45.89,67.68-57,80.82,11.15-13.13,40.3-48.7,57-80.82Z"/><path class="cls-1" d="M73.82,197.83l-1.16-1.34Z"/><path d="M72.66,196.49c.14.15.27.31.39.45-.12-.14-.25-.3-.39-.45Zm.39.45.77.89-.77-.89Z"/><path class="cls-1" d="M77.05,196.58l-.65.75Z"/><path d="M77.05,196.58l-.65.75.65-.75Z"/><path class="cls-1" d="M75.08,198.85l0-.06Z"/><path d="M75.13,198.79l0,.05,0-.05Zm0,.05h0Z"/><path class="cls-1" d="M75.39,198.49l0,0Z"/><path d="M75.39,198.49l0,0,0,0Z"/><path class="cls-1" d="M75.83,198l-.17.2Z"/><path d="M75.83,198h0Zm0,0-.17.2.17-.2Z"/><path class="cls-1" d="M74.63,198.75l-.35-.39Z"/><path d="M74.28,198.36l.35.39-.35-.39Z"/><path class="cls-2" d="M18.33,112.19A10.18,10.18,0,0,1,30,96.12,10.17,10.17,0,0,1,46.08,84.45,10.17,10.17,0,0,1,65,78.31a10.17,10.17,0,0,1,19.86,0,10.17,10.17,0,0,1,18.89,6.14,10.17,10.17,0,0,1,16.07,11.67,10.17,10.17,0,0,1,11.67,16.07,10.05,10.05,0,0,1,5,.8C143.83,98.9,148.8,85.47,148.8,74.9A73.9,73.9,0,0,0,1,74.9C1,85.47,6,98.9,13.31,113A10.07,10.07,0,0,1,18.33,112.19Z"/><path class="cls-3" d="M75.37,198.52l0,0,.27-.3.17-.2.19-.22.24-.27.14-.17.65-.75.11-.13c.14-.15.28-.32.42-.49l.14-.16,1.67-2,0,0c11.16-13.14,40.3-48.71,57-80.82h0a10.05,10.05,0,0,0-5-.8,10.17,10.17,0,0,0-11.67-16.07,10.17,10.17,0,0,0-16.07-11.67,10.17,10.17,0,0,0-18.89-6.14,10.17,10.17,0,0,0-19.86,0,10.17,10.17,0,0,0-18.89,6.14A10.17,10.17,0,0,0,30,96.12a10.18,10.18,0,0,0-11.68,16.07,10.07,10.07,0,0,0-5,.8h0c17.71,34,49.31,71.8,58.81,82.87l.06.07.48.55h0l1.16,1.34.1.11.24.28.12.14.35.39h0l.12.14,0,0,.09.11h0s.06-.08.18-.21l0-.06Z"/></g></g></svg>