<svg xmlns="http://www.w3.org/2000/svg" viewBox="0 0 165.79 183.2"><defs><style>.cls-1{fill:#f96;}</style></defs><g id="Layer_2" data-name="Layer 2"><g id="레이어_4" data-name="레이어 4"><path class="cls-1" d="M95.58,183.2c-18.53,0-40.94-7.81-57.09-19.9-17.8-12.88-29.32-31.45-34.26-55.19C-1,85.61,3,64.33,15.56,46.54,29.9,26.53,47,12.48,65.08,5.9A68.61,68.61,0,0,1,88.55,2c14.87,0,29.76,4.12,40.83,11.31,17.79,11,29.28,31,34.18,59.48,5.26,27.51,1.12,54.39-11.35,73.79-13.65,21.25-30.67,33.75-49.23,36.15A56.27,56.27,0,0,1,95.58,183.2ZM79.45,23.81A6.69,6.69,0,0,0,78,24a6.18,6.18,0,0,0-3.62,2.27,4.77,4.77,0,0,0-.91,3.94A5.23,5.23,0,0,0,78.82,34a6.85,6.85,0,0,0,1.42-.15c3.1-.69,5.13-3.47,4.52-6.21A5.23,5.23,0,0,0,79.45,23.81Z" transform="translate(-1 -1)"/><path d="M88.55,3c14.69,0,29.37,4.06,40.33,11.17C146.39,25,157.73,44.74,162.58,73c5.21,27.23,1.12,53.86-11.22,73-13.48,21-30.26,33.33-48.52,35.7a54.17,54.17,0,0,1-7.26.46c-18.33,0-40.5-7.73-56.52-19.72-17.57-12.72-29-31.08-33.86-54.62C.08,85.67,4,64.67,16.37,47.13,30.6,27.28,47.56,13.35,65.44,6.84A67.44,67.44,0,0,1,88.55,3M78.82,35a8.14,8.14,0,0,0,1.63-.18,7.17,7.17,0,0,0,4.2-2.65,5.83,5.83,0,0,0,1.09-4.75,6.22,6.22,0,0,0-6.29-4.65,8.2,8.2,0,0,0-1.63.17,7.12,7.12,0,0,0-4.19,2.65,5.8,5.8,0,0,0-1.1,4.75A6.24,6.24,0,0,0,78.82,35M88.55,1A69.53,69.53,0,0,0,64.74,5c-18.24,6.65-35.53,20.83-50,41C2,64-2,85.55,3.25,108.31c5,24,16.65,42.77,34.64,55.79,16.31,12.21,39,20.1,57.69,20.1a56.53,56.53,0,0,0,7.53-.48c18.85-2.44,36.12-15.1,49.94-36.6,12.61-19.61,16.8-46.76,11.49-74.5C159.59,43.81,148,23.57,129.93,12.47,118.69,5.18,103.61,1,88.55,1ZM78.82,33A4.24,4.24,0,0,1,74.49,30c-.49-2.2,1.2-4.44,3.76-5a5.58,5.58,0,0,1,1.2-.13,4.26,4.26,0,0,1,4.34,3.08c.48,2.2-1.2,4.44-3.77,5a5.53,5.53,0,0,1-1.2.14Z" transform="translate(-1 -1)"/><path d="M78.82,32a3.25,3.25,0,0,1-3.36-2.3,2.82,2.82,0,0,1,.56-2.3,4.24,4.24,0,0,1,2.45-1.52,4.73,4.73,0,0,1,1-.1,3.25,3.25,0,0,1,3.36,2.3c.37,1.65-1,3.37-3,3.82a4.59,4.59,0,0,1-1,.1Z" transform="translate(-1 -1)"/><path d="M79.45,26.81a2.29,2.29,0,0,1,2.38,1.51,1.83,1.83,0,0,1-.38,1.49A3.25,3.25,0,0,1,79.59,31a3.37,3.37,0,0,1-.77.09,2.31,2.31,0,0,1-2.38-1.52A1.87,1.87,0,0,1,76.82,28a3.38,3.38,0,0,1,2.63-1.22m0-2a5.58,5.58,0,0,0-1.2.13c-2.56.57-4.25,2.81-3.76,5A4.25,4.25,0,0,0,78.82,33,5.53,5.53,0,0,0,80,32.9c2.57-.57,4.25-2.81,3.77-5a4.26,4.26,0,0,0-4.34-3.08Z" transform="translate(-1 -1)"/></g></g></svg>