<svg xmlns="http://www.w3.org/2000/svg" viewBox="0 0 135.72 200.15"><defs><style>.cls-1{fill:#030;stroke:#000;stroke-miterlimit:10;stroke-width:2px;}</style></defs><g id="Layer_2" data-name="Layer 2"><g id="레이어_4" data-name="레이어 4"><path class="cls-1" d="M59.24,105c23.58-14.91,51.62-17.14,75.47-6.12,0-.13,0-.27,0-.41,0-3-.11-6.08-.3-9.09-25.63-10.3-55-7.35-79.79,8.34a100.47,100.47,0,0,0-28.93,28A111.85,111.85,0,0,1,53.17,89C75,69.91,102.73,61.23,130.68,64.4c-.73-3-1.54-6-2.45-8.9C99,53.11,70.3,62.57,47.5,82.49a119.49,119.49,0,0,0-26.78,33.87A128.38,128.38,0,0,1,48.4,69.72a109.94,109.94,0,0,1,71.82-34.43q-2-4.2-4.34-8.25A118.21,118.21,0,0,0,42.12,63.82a134.62,134.62,0,0,0-27.35,44C20.44,82,30.64,59.62,45,42.46,60.73,23.75,80.32,12.4,103.42,8.62Q100.36,4.75,97,1.1c-22.9,4.95-42.91,17.12-58.6,35.82C23.18,55.09,12,79.6,6.06,107.81.23,135.53-.58,167.12,3.71,199.15h10.5l.14-1.64c3.75-44.08,24.65-62.95,41.53-71,22-10.53,51.36-8.46,71.35,5l3.16,2.14c.75-3,1.41-6,2-9.08l-.3-.2c-10.49-7.09-23.87-11.67-37.67-12.92a80.92,80.92,0,0,0-42.22,7.26,72.77,72.77,0,0,0-22.68,16.89A91.79,91.79,0,0,1,59.24,105Z"/></g></g></svg>