<svg xmlns="http://www.w3.org/2000/svg" viewBox="0 0 130.62 200.06"><defs><style>.cls-1{fill:#390;}.cls-1,.cls-2{stroke:#000;stroke-linecap:round;stroke-linejoin:round;stroke-width:2px;}.cls-2{fill:#9c3;}</style></defs><g id="Layer_2" data-name="Layer 2"><g id="레이어_4" data-name="레이어 4"><path class="cls-1" d="M129.53,75.62v48.65c0,.86,0,1.73.05,2.59.19,4.56.2,25.41-16,25.41-13.67,0-15.92-18.29-16.18-27.45-.49,7.63-3.2,21.12-16.25,21.12-15.57,0-16.1-23.79-15.92-30.66-.39,5.94-2.76,24.23-17.07,24.23-16.09,0-15.17-28.7-15-32-.18,3-2,25.85-16.58,25.85-12.78,0-15-21.93-15.45-29.73v67.44c0,.87,0,1.73-.05,2.59-.2,4.56-.2,25.42,16,25.42,13.66,0,15.91-18.29,16.18-27.46.49,7.63,3.2,21.13,16.25,21.13,15.57,0,16.09-23.79,15.92-30.66.39,5.93,2.76,24.22,17.06,24.22,16.1,0,15.17-28.69,15-32,.18,3,2,25.85,16.57,25.85,15.55,0,15.55-32.44,15.55-32.44V78.77Q129.62,77.14,129.53,75.62Z"/><path class="cls-2" d="M16.54,133.34c14.54,0,16.4-22.89,16.58-25.85-.17,3.32-1.09,32,15,32,14.31,0,16.68-18.29,17.07-24.23-.18,6.87.35,30.66,15.92,30.66,13,0,15.76-13.49,16.25-21.12.26,9.16,2.51,27.45,16.18,27.45,16.24,0,16.23-20.85,16-25.41,0-.86-.05-1.73-.05-2.59v-59A64.26,64.26,0,0,0,65.26,1h0A64.26,64.26,0,0,0,1,65.26v35.65s0,1,.09,2.7C1.49,111.41,3.76,133.34,16.54,133.34Z"/></g></g></svg>