<svg xmlns="http://www.w3.org/2000/svg" viewBox="0 0 198.06 198.06"><defs><style>.cls-1{fill:#f60;}</style></defs><g id="Layer_2" data-name="Layer 2"><g id="레이어_4" data-name="레이어 4"><path class="cls-1" d="M99,197.06a3.58,3.58,0,0,1-3.57-3.58l.68-25.79a3.09,3.09,0,0,0-2.82-3.17H93a3.1,3.1,0,0,0-3,2.64L86.14,192.7a3.57,3.57,0,0,1-3.52,2.92,4.18,4.18,0,0,1-.61-.05,3.59,3.59,0,0,1-2.9-4.14l5.15-25.27A3.09,3.09,0,0,0,82,162.55a3.34,3.34,0,0,0-.85-.12,3.08,3.08,0,0,0-2.93,2.12L70.07,189a3.59,3.59,0,0,1-3.36,2.33,3.36,3.36,0,0,1-1.21-.22,3.56,3.56,0,0,1-2.13-4.57l9.46-24a3.1,3.1,0,0,0-1.57-3.94,3.16,3.16,0,0,0-1.35-.31,3.08,3.08,0,0,0-2.72,1.62l-12.31,22.7A3.58,3.58,0,0,1,50,183.92a3.49,3.49,0,0,1-1.65-2.17,3.52,3.52,0,0,1,.35-2.71l13.49-22a3.12,3.12,0,0,0-5.1-3.57L41,173.7a3.57,3.57,0,0,1-5.45-4.61l17.11-19.32a3.12,3.12,0,0,0-4.4-4.4L28.94,162.5a3.59,3.59,0,0,1-5-.46,3.6,3.6,0,0,1,.44-5L44.57,141a3.08,3.08,0,0,0,.61-4.19,3.12,3.12,0,0,0-2.56-1.36,3,3,0,0,0-1.61.46l-22,13.5a3.52,3.52,0,0,1-1.75.46A3.6,3.6,0,0,1,14.13,148a3.55,3.55,0,0,1-.35-2.71,3.59,3.59,0,0,1,1.66-2.17l22.67-12.29A3.12,3.12,0,0,0,36.62,125a3,3,0,0,0-1.14.22l-24,9.47a3.52,3.52,0,0,1-1.18.2A3.57,3.57,0,0,1,9.05,128l24.46-8.18a3.09,3.09,0,0,0,2-3.73,3.13,3.13,0,0,0-3-2.34,3.26,3.26,0,0,0-.62.06L6.6,119A3.7,3.7,0,0,1,6,119a3.56,3.56,0,0,1-3.52-3,3.5,3.5,0,0,1,.6-2.66,3.52,3.52,0,0,1,2.3-1.48l25.52-3.8a3.12,3.12,0,0,0-.46-6.2l-25.91.69a3.57,3.57,0,0,1,0-7.14l25.8.68a3.12,3.12,0,0,0,.54-6.2L5.36,86.14A3.6,3.6,0,0,1,2.49,82a3.56,3.56,0,0,1,3.52-3,3.31,3.31,0,0,1,.62,0L31.9,84.26a3.18,3.18,0,0,0,.62.06,3.12,3.12,0,0,0,1-6.07L9,70.07a3.5,3.5,0,0,1-2-1.84,3.55,3.55,0,0,1-.13-2.73,3.6,3.6,0,0,1,3.37-2.35,3.36,3.36,0,0,1,1.21.22l24,9.46a3.21,3.21,0,0,0,1.14.22,3.13,3.13,0,0,0,1.49-5.86L15.42,54.88a3.53,3.53,0,0,1-1.64-2.16,3.57,3.57,0,0,1,5.23-4L41,62.2a3,3,0,0,0,1.61.45,3.12,3.12,0,0,0,2-5.55L24.35,41a3.56,3.56,0,0,1,2.32-6.28,3.52,3.52,0,0,1,2.29.83L48.29,52.69a3.07,3.07,0,0,0,2.05.77,3.12,3.12,0,0,0,2.35-5.17L35.56,28.94a3.54,3.54,0,0,1-.8-2.58A3.48,3.48,0,0,1,36,23.94a3.53,3.53,0,0,1,2.29-.84,3.6,3.6,0,0,1,2.74,1.27L57.1,44.57a3.1,3.1,0,0,0,4.2.61A3.11,3.11,0,0,0,62.2,41L48.69,19a3.56,3.56,0,0,1,3.1-5.33,3.57,3.57,0,0,1,3.1,1.78l12.3,22.67a3.08,3.08,0,0,0,2.72,1.62,3.13,3.13,0,0,0,2.92-4.25l-9.47-24A3.58,3.58,0,0,1,65.5,6.91a3.59,3.59,0,0,1,4.58,2.14l8.17,24.46a3.09,3.09,0,0,0,2.93,2.11,3.15,3.15,0,0,0,.81-.1,3.11,3.11,0,0,0,2.27-3.62L79.1,6.6A3.58,3.58,0,0,1,82,2.49a3.14,3.14,0,0,1,.61-.05,3.56,3.56,0,0,1,3.52,2.95L90,30.91a3.1,3.1,0,0,0,3,2.64l.27,0a3.1,3.1,0,0,0,2.87-3.16L95.46,4.54a3.57,3.57,0,0,1,7.14,0l-.69,25.8a3.1,3.1,0,0,0,2.83,3.16l.31,0a3.12,3.12,0,0,0,3.06-2.64l3.81-25.55a3.56,3.56,0,0,1,3.51-2.92,3.18,3.18,0,0,1,.62.05A3.58,3.58,0,0,1,119,6.63L113.79,31.9A3.1,3.1,0,0,0,116,35.5a2.84,2.84,0,0,0,.84.12,3.09,3.09,0,0,0,2.93-2.11L128,9a3.58,3.58,0,0,1,4.56-2.11,3.6,3.6,0,0,1,2.14,4.58l-9.46,24a3.12,3.12,0,0,0,5.64,2.63l12.31-22.69A3.57,3.57,0,0,1,149.35,19L135.86,41A3.11,3.11,0,0,0,141,44.57L157,24.35a3.56,3.56,0,0,1,2.72-1.25,3.6,3.6,0,0,1,2.29.83,3.55,3.55,0,0,1,1.25,2.43,3.49,3.49,0,0,1-.81,2.6L145.37,48.29a3.12,3.12,0,0,0,4.4,4.4l19.34-17.13a3.57,3.57,0,0,1,4.57,5.49L153.48,57.1a3.12,3.12,0,0,0,3.57,5.1l22-13.51A3.58,3.58,0,0,1,183.92,50a3.52,3.52,0,0,1,.35,2.71,3.49,3.49,0,0,1-1.65,2.17l-22.68,12.3a3.12,3.12,0,0,0,2.63,5.64l24-9.47a3.35,3.35,0,0,1,1.19-.21,3.59,3.59,0,0,1,3.36,2.35A3.58,3.58,0,0,1,189,70.08l-24.46,8.17a3.12,3.12,0,0,0,1,6.07,3.34,3.34,0,0,0,.62-.06l25.3-5.16a3.57,3.57,0,0,1,1.21,7l-25.52,3.8a3.12,3.12,0,0,0,.45,6.2l25.91-.68a3.57,3.57,0,0,1,0,7.14l-25.79-.69a3.12,3.12,0,0,0-.54,6.2l25.55,3.81a3.6,3.6,0,0,1,2.87,4.13,3.58,3.58,0,0,1-3.52,3,4.21,4.21,0,0,1-.62,0l-25.27-5.16a3.34,3.34,0,0,0-.62-.06,3.12,3.12,0,0,0-1,6.07L189,128a3.57,3.57,0,0,1-2.46,6.7l-24-9.46a2.92,2.92,0,0,0-1.13-.22,3.13,3.13,0,0,0-1.5,5.86l22.7,12.31a3.58,3.58,0,0,1,1.28,4.86,3.59,3.59,0,0,1-4.88,1.31l-22-13.49a3.12,3.12,0,0,0-3.57,5.09L173.7,157a3.53,3.53,0,0,1,1.24,2.4,3.57,3.57,0,0,1-5.85,3l-19.32-17.11a3.12,3.12,0,0,0-2.05-.78,3,3,0,0,0-2.19.91,3.12,3.12,0,0,0-.16,4.27l17.13,19.34a3.57,3.57,0,0,1-5.49,4.57L141,153.48a3.08,3.08,0,0,0-2.42-1.17,3.13,3.13,0,0,0-2.67,4.74l13.5,22a3.58,3.58,0,0,1-1.32,4.85,3.56,3.56,0,0,1-1.77.48,3.61,3.61,0,0,1-3.11-1.79l-12.29-22.67a3.11,3.11,0,0,0-2.72-1.62,3,3,0,0,0-1.32.3,3.1,3.1,0,0,0-1.6,3.95l9.47,24a3.57,3.57,0,0,1-2.15,4.55,3.31,3.31,0,0,1-1.2.22A3.59,3.59,0,0,1,128,189l-8.18-24.46a3.07,3.07,0,0,0-3.73-2,3.12,3.12,0,0,0-2.28,3.62l5.16,25.3a3.57,3.57,0,0,1-2.9,4.11,4.21,4.21,0,0,1-.62.05,3.58,3.58,0,0,1-3.52-3l-3.8-25.52a3.11,3.11,0,0,0-3.06-2.64h-.27a3.11,3.11,0,0,0-2.87,3.17l.69,25.82A3.57,3.57,0,0,1,99,197.06Z"/><path d="M99,2a2.57,2.57,0,0,1,2.57,2.55l-.69,25.79a4.11,4.11,0,0,0,3.78,4.19l.36,0a4.12,4.12,0,0,0,4-3.49l3.8-25.52a2.6,2.6,0,0,1,2.53-2.1,3.4,3.4,0,0,1,.45,0,2.56,2.56,0,0,1,1.65,1.06,2.58,2.58,0,0,1,.44,1.9L112.81,31.7a4.11,4.11,0,0,0,3,4.78,4.23,4.23,0,0,0,1.06.14,4.09,4.09,0,0,0,3.88-2.79l8.18-24.46a2.57,2.57,0,0,1,4.83,1.75l-9.46,24a4.11,4.11,0,0,0,2.11,5.23,4.16,4.16,0,0,0,1.74.38,4.07,4.07,0,0,0,3.59-2.14L144,15.92a2.59,2.59,0,0,1,2.23-1.26,2.56,2.56,0,0,1,2.22,3.83L135,40.48A4.11,4.11,0,0,0,136.18,46a4.11,4.11,0,0,0,5.56-.8l16-20.2a2.58,2.58,0,0,1,2-.9,2.61,2.61,0,0,1,1.65.6,2.56,2.56,0,0,1,.9,1.75,2.52,2.52,0,0,1-.57,1.85L144.62,47.62a4.11,4.11,0,0,0,.2,5.64,4.09,4.09,0,0,0,5.61.17l19.32-17.1a2.54,2.54,0,0,1,1.63-.58,2.56,2.56,0,0,1,1.68,4.52l-20.2,16a4.12,4.12,0,0,0,2.57,7.33,4,4,0,0,0,2.14-.6l22-13.49a2.66,2.66,0,0,1,1.26-.33A2.57,2.57,0,0,1,182.14,54l-22.67,12.3a4.08,4.08,0,0,0-1.76,5.32l0,.05a4.07,4.07,0,0,0,5.21,2.08l24-9.46a2.45,2.45,0,0,1,.85-.15,2.57,2.57,0,0,1,.91,5L164.23,77.3a4.12,4.12,0,0,0,1.31,8,3.8,3.8,0,0,0,.82-.08l25.27-5.15a3,3,0,0,1,.42,0,2.6,2.6,0,0,1,2.53,2.13,2.56,2.56,0,0,1-2.06,3L167,89a4.1,4.1,0,0,0-3.47,4.44,4.05,4.05,0,0,0,4.07,3.74h.11l25.8-.68a2.57,2.57,0,0,1,0,5.14l-25.8-.69h-.11a4.12,4.12,0,0,0-.6,8.19l25.52,3.8a2.57,2.57,0,0,1-.47,5.1,3,3,0,0,1-.42,0l-25.27-5.16a4.56,4.56,0,0,0-.82-.08,4.12,4.12,0,0,0-1.31,8l24.46,8.18a2.58,2.58,0,0,1,1.51,3.28,2.57,2.57,0,0,1-2.42,1.69,2.7,2.7,0,0,1-.85-.14l-24-9.46a4.08,4.08,0,0,0-1.5-.29,4.12,4.12,0,0,0-2,7.73L182.13,144a2.57,2.57,0,0,1-2.57,4.45l-22-13.49a4.12,4.12,0,0,0-4.71,6.74l20.2,16a2.57,2.57,0,0,1-3.31,3.94l-19.32-17.11a4.12,4.12,0,0,0-5.81,5.81l17.11,19.32a2.58,2.58,0,0,1-.33,3.6,2.51,2.51,0,0,1-1.65.6,2.6,2.6,0,0,1-2-.89l-16-20.2a4.12,4.12,0,0,0-6.74,4.71l13.49,22a2.57,2.57,0,0,1-2.22,3.84,2.59,2.59,0,0,1-2.23-1.27l-12.3-22.66a4.11,4.11,0,0,0-7.44,3.47l9.46,24a2.57,2.57,0,0,1-1.55,3.27,2.34,2.34,0,0,1-.86.16,2.58,2.58,0,0,1-2.42-1.67l-8.18-24.46a4.1,4.1,0,0,0-3.88-2.8,4.34,4.34,0,0,0-1.1.15,4.11,4.11,0,0,0-3,4.78L118,191.63a2.56,2.56,0,0,1-.44,1.89,2.52,2.52,0,0,1-1.65,1.06,2.28,2.28,0,0,1-.45,0,2.61,2.61,0,0,1-2.53-2.1L109.1,167a4.12,4.12,0,0,0-4-3.49h-.4a4.09,4.09,0,0,0-3.74,4.18l.69,25.8a2.57,2.57,0,0,1-5.14,0l.68-25.8a4.08,4.08,0,0,0-3.73-4.18H93A4.11,4.11,0,0,0,89,167l-3.81,25.52a2.59,2.59,0,0,1-2.53,2.1,2.25,2.25,0,0,1-.44,0,2.57,2.57,0,0,1-2.09-3l5.15-25.27a4.11,4.11,0,0,0-3-4.79,4.3,4.3,0,0,0-1.07-.14,4.1,4.1,0,0,0-3.88,2.8l-8.17,24.46a2.58,2.58,0,0,1-2.42,1.67,2.35,2.35,0,0,1-.87-.16,2.59,2.59,0,0,1-1.54-3.27l9.46-24a4.11,4.11,0,0,0-2.12-5.23,4,4,0,0,0-1.73-.39,4.09,4.09,0,0,0-3.6,2.15L54,182.13a2.58,2.58,0,0,1-3.5.93,2.6,2.6,0,0,1-.95-3.5l13.49-22a4.12,4.12,0,0,0-6.73-4.71l-16,20.2a2.6,2.6,0,0,1-2,.89,2.51,2.51,0,0,1-1.65-.6,2.56,2.56,0,0,1-.33-3.6l17.1-19.32a4.09,4.09,0,0,0-.16-5.6l0,0a4.07,4.07,0,0,0-2.89-1.2,4.13,4.13,0,0,0-2.72,1L28.3,161.73a2.51,2.51,0,0,1-1.62.58A2.56,2.56,0,0,1,25,157.79l20.2-16A4.1,4.1,0,0,0,46,136.2l0,0a4.12,4.12,0,0,0-3.36-1.75,4.17,4.17,0,0,0-2.14.6l-22,13.49a2.49,2.49,0,0,1-1.25.33A2.57,2.57,0,0,1,15.92,144l22.67-12.3a4.12,4.12,0,0,0-2-7.73,4,4,0,0,0-1.5.29l-24,9.46a2.75,2.75,0,0,1-.85.14,2.56,2.56,0,0,1-2.34-3.65,2.54,2.54,0,0,1,1.43-1.32l24.46-8.18a4.12,4.12,0,0,0-1.31-8,4.47,4.47,0,0,0-.82.08L6.43,118A3,3,0,0,1,6,118a2.57,2.57,0,0,1-.47-5.1l25.52-3.8a4.12,4.12,0,0,0-.61-8.19h-.11l-25.79.69a2.57,2.57,0,0,1,0-5.14l25.79.68h.11A4.11,4.11,0,0,0,31.06,89L5.54,85.15A2.57,2.57,0,0,1,3.9,84.1a2.57,2.57,0,0,1,2.11-4,3,3,0,0,1,.42,0L31.7,85.24a3.74,3.74,0,0,0,.82.08,4.12,4.12,0,0,0,1.31-8L9.37,69.13a2.57,2.57,0,0,1,.91-5,2.4,2.4,0,0,1,.84.15l24,9.46a4,4,0,0,0,1.5.29,4.13,4.13,0,0,0,2-7.74L15.92,54a2.57,2.57,0,0,1,2.57-4.45l22,13.49A4.11,4.11,0,0,0,46,61.92l0-.05a4.09,4.09,0,0,0-.8-5.55L25,40.27a2.56,2.56,0,0,1,1.67-4.52,2.52,2.52,0,0,1,1.63.58L47.62,53.44a4.12,4.12,0,0,0,2.72,1,4.06,4.06,0,0,0,2.89-1.19l0,0a4.09,4.09,0,0,0,.17-5.61L36.33,28.3a2.52,2.52,0,0,1-.57-1.85A2.57,2.57,0,0,1,40.27,25l16,20.2a4.11,4.11,0,0,0,5.53.82l0,0a4.1,4.1,0,0,0,1.15-5.5l-13.49-22A2.57,2.57,0,0,1,50.51,15a2.58,2.58,0,0,1,3.5.92l12.3,22.67a4.1,4.1,0,0,0,3.6,2.14,4.15,4.15,0,0,0,1.77-.4,4.1,4.1,0,0,0,2.08-5.21l-9.46-24a2.52,2.52,0,0,1,.1-1.94A2.52,2.52,0,0,1,66.71,7.7a2.58,2.58,0,0,1,2.42,1.67L77.3,33.83a4.09,4.09,0,0,0,3.88,2.79,4.41,4.41,0,0,0,1.11-.15,4.09,4.09,0,0,0,2.95-4.77L80.09,6.43a2.58,2.58,0,0,1,2.09-3l.44,0a2.59,2.59,0,0,1,2.53,2.1L89,31.06a4.11,4.11,0,0,0,4,3.49l.4,0a4.1,4.1,0,0,0,3.74-4.19L96.46,4.55A2.57,2.57,0,0,1,99,2m0-2a4.58,4.58,0,0,0-4.57,4.57l.68,25.82a2.09,2.09,0,0,1-1.91,2.14H93a2.1,2.1,0,0,1-2.07-1.79L87.13,5.21a4.58,4.58,0,0,0-4.51-3.77,5.35,5.35,0,0,0-.79.06,4.6,4.6,0,0,0-3.71,5.3l5.16,25.3a2.1,2.1,0,0,1-1.51,2.44h0a2.1,2.1,0,0,1-2.53-1.36L71,8.7a4.59,4.59,0,0,0-4.31-3A4.64,4.64,0,0,0,65.16,6h0a4.59,4.59,0,0,0-2.73,5.86l9.47,24a2.09,2.09,0,0,1-1.07,2.67h0a2,2,0,0,1-.89.2,2.1,2.1,0,0,1-1.84-1.09L55.76,14.94a4.59,4.59,0,0,0-4-2.28,4.49,4.49,0,0,0-2.28.61,4.58,4.58,0,0,0-1.67,6.24l13.51,22a2.09,2.09,0,0,1-.59,2.81l0,0a2,2,0,0,1-1.2.38A2.11,2.11,0,0,1,57.88,44L41.81,23.73a4.57,4.57,0,1,0-7,5.88L51.94,49a2.1,2.1,0,0,1-.09,2.87l0,0a2.11,2.11,0,0,1-2.87.09L29.61,34.81a4.57,4.57,0,1,0-5.88,7L44,57.88a2.09,2.09,0,0,1,.41,2.84l0,0a2.1,2.1,0,0,1-1.72.89,2.16,2.16,0,0,1-1.09-.3l-22-13.51a4.57,4.57,0,0,0-4.57,7.92l22.7,12.31a2.1,2.1,0,0,1,.89,2.73v0a2.11,2.11,0,0,1-1.9,1.22,2.07,2.07,0,0,1-.77-.15l-24-9.47a4.46,4.46,0,0,0-1.55-.28A4.57,4.57,0,0,0,8.7,71L33.19,79.2a2.09,2.09,0,0,1,1.36,2.53v0a2.09,2.09,0,0,1-2,1.55,2,2,0,0,1-.42,0L6.8,78.12A5.39,5.39,0,0,0,6,78.05a4.57,4.57,0,0,0-.8,9.08l25.55,3.8a2.1,2.1,0,0,1,1.78,2.26v0a2.11,2.11,0,0,1-2.09,1.91h-.06L4.57,94.46a4.57,4.57,0,1,0,0,9.14l25.82-.69h.06a2.11,2.11,0,0,1,2.09,1.92v0a2.09,2.09,0,0,1-1.78,2.25L5.21,110.93A4.57,4.57,0,0,0,6,120a4.29,4.29,0,0,0,.79-.07l25.3-5.16a2,2,0,0,1,.42,0,2.09,2.09,0,0,1,2,1.56v0a2.1,2.1,0,0,1-1.36,2.53L8.7,127a4.57,4.57,0,0,0,1.58,8.86,4.69,4.69,0,0,0,1.55-.27l24-9.47a2.07,2.07,0,0,1,.77-.15,2.1,2.1,0,0,1,1.9,1.21v0a2.1,2.1,0,0,1-.89,2.73L14.94,142.3a4.57,4.57,0,0,0,2.3,8.52,4.45,4.45,0,0,0,2.27-.61l22-13.5a2.08,2.08,0,0,1,1.09-.31,2.11,2.11,0,0,1,1.72.9l0,0a2.08,2.08,0,0,1-.41,2.84L23.73,156.24a4.57,4.57,0,0,0,5.88,7L49,146.12a2.08,2.08,0,0,1,2.87.09l0,0a2.09,2.09,0,0,1,.09,2.86L34.81,168.45a4.57,4.57,0,0,0,7,5.87L57.88,154.1a2.14,2.14,0,0,1,1.64-.79,2.11,2.11,0,0,1,1.2.38l0,0a2.09,2.09,0,0,1,.59,2.81l-13.51,22a4.57,4.57,0,1,0,7.92,4.57l12.31-22.69a2.09,2.09,0,0,1,1.84-1.1,2.17,2.17,0,0,1,.89.2l0,0a2.09,2.09,0,0,1,1.07,2.67l-9.47,24a4.58,4.58,0,0,0,2.73,5.85h0a4.42,4.42,0,0,0,1.55.28,4.6,4.6,0,0,0,4.31-3l8.18-24.49a2.06,2.06,0,0,1,2.53-1.35h0A2.09,2.09,0,0,1,83.28,166l-5.16,25.3a4.59,4.59,0,0,0,3.71,5.29,4.29,4.29,0,0,0,.79.07,4.59,4.59,0,0,0,4.51-3.78l3.8-25.55A2.1,2.1,0,0,1,93,165.51h.23a2.09,2.09,0,0,1,1.91,2.14l-.68,25.82a4.57,4.57,0,1,0,9.14,0l-.69-25.82a2.09,2.09,0,0,1,1.92-2.14h.22a2.09,2.09,0,0,1,2.07,1.78l3.81,25.55a4.59,4.59,0,0,0,4.5,3.78,4.22,4.22,0,0,0,.79-.07,4.58,4.58,0,0,0,3.71-5.29L114.77,166a2.09,2.09,0,0,1,1.52-2.44h0a2,2,0,0,1,.54-.08,2.11,2.11,0,0,1,2,1.43L127,189.35a4.59,4.59,0,0,0,4.31,3,4.46,4.46,0,0,0,1.55-.28,4.58,4.58,0,0,0,2.73-5.85l-9.47-24a2.09,2.09,0,0,1,1.06-2.67l0,0a2.17,2.17,0,0,1,.89-.2,2.1,2.1,0,0,1,1.84,1.1l12.31,22.69a4.57,4.57,0,1,0,7.91-4.57l-13.5-22a2.09,2.09,0,0,1,.59-2.81l0,0a2.16,2.16,0,0,1,1.2-.38,2.08,2.08,0,0,1,1.64.79l16.07,20.22a4.57,4.57,0,1,0,7-5.87L146.12,149.1a2.07,2.07,0,0,1,.09-2.86l0,0a2.07,2.07,0,0,1,1.48-.62,2.12,2.12,0,0,1,1.39.53l19.34,17.12a4.51,4.51,0,0,0,2.93,1.07,4.57,4.57,0,0,0,2.94-8.07L154.1,140.17a2.1,2.1,0,0,1-.41-2.84l0,0a2.09,2.09,0,0,1,2.81-.59l22,13.5a4.49,4.49,0,0,0,2.28.61,4.57,4.57,0,0,0,2.3-8.52L160.42,130a2.09,2.09,0,0,1-.9-2.73l0,0a2.09,2.09,0,0,1,1.9-1.21,2.15,2.15,0,0,1,.77.15l24,9.47a4.64,4.64,0,0,0,1.55.27,4.57,4.57,0,0,0,1.57-8.86l-24.49-8.18a2.09,2.09,0,0,1-1.35-2.53v0a2.09,2.09,0,0,1,2-1.56,2,2,0,0,1,.42,0l25.3,5.16a4.22,4.22,0,0,0,.79.07,4.57,4.57,0,0,0,.79-9.07l-25.55-3.81a2.09,2.09,0,0,1-1.77-2.25v0a2.09,2.09,0,0,1,2.08-1.92h.06l25.82.69a4.57,4.57,0,1,0,0-9.14l-25.82.68h-.06a2.09,2.09,0,0,1-2.08-1.91v0a2.1,2.1,0,0,1,1.77-2.26l25.55-3.8a4.57,4.57,0,0,0-.79-9.08,5.27,5.27,0,0,0-.79.07L166,83.28a2,2,0,0,1-.42,0,2.09,2.09,0,0,1-2-1.55v0a2.09,2.09,0,0,1,1.35-2.53L189.35,71a4.57,4.57,0,0,0-1.57-8.87,4.42,4.42,0,0,0-1.55.28l-24,9.47a2.15,2.15,0,0,1-.77.15,2.1,2.1,0,0,1-1.9-1.22l0,0a2.09,2.09,0,0,1,.9-2.73l22.7-12.31a4.57,4.57,0,0,0-4.58-7.92l-22,13.51a2.17,2.17,0,0,1-1.1.3,2.07,2.07,0,0,1-1.71-.89l0,0a2.11,2.11,0,0,1,.41-2.84l20.22-16.07a4.57,4.57,0,0,0-5.87-7L149.11,51.94a2.11,2.11,0,0,1-1.39.52,2.06,2.06,0,0,1-1.48-.61l0,0a2.08,2.08,0,0,1-.09-2.87l17.12-19.34a4.58,4.58,0,0,0-.56-6.44,4.51,4.51,0,0,0-2.93-1.07,4.58,4.58,0,0,0-3.51,1.63L140.17,44a2.09,2.09,0,0,1-2.84.41l0,0a2.09,2.09,0,0,1-.59-2.81l13.5-22a4.57,4.57,0,0,0-1.67-6.24,4.45,4.45,0,0,0-2.27-.61,4.58,4.58,0,0,0-4,2.28L130,37.64a2.11,2.11,0,0,1-1.84,1.09,2,2,0,0,1-.89-.2h0a2.1,2.1,0,0,1-1.06-2.67l9.47-24A4.59,4.59,0,0,0,132.9,6a4.7,4.7,0,0,0-1.56-.27,4.58,4.58,0,0,0-4.3,3l-8.18,24.49a2.11,2.11,0,0,1-2,1.43,2,2,0,0,1-.54-.07h0a2.1,2.1,0,0,1-1.52-2.44l5.16-25.3a4.58,4.58,0,0,0-3.71-5.3,5.25,5.25,0,0,0-.79-.06,4.57,4.57,0,0,0-4.5,3.77l-3.81,25.55a2.09,2.09,0,0,1-2.07,1.79h-.22a2.1,2.1,0,0,1-1.92-2.15l.69-25.82A4.59,4.59,0,0,0,99,0Z"/></g></g></svg>