<svg xmlns="http://www.w3.org/2000/svg" viewBox="0 0 198.06 192.3"><defs><style>.cls-1{fill:#f9c;}</style></defs><g id="Layer_2" data-name="Layer 2"><g id="레이어_4" data-name="레이어 4"><path class="cls-1" d="M136.35,192.3a38.88,38.88,0,0,1-18.26-4.59,38.82,38.82,0,0,0-36.13,0A38.88,38.88,0,0,1,63.7,192.3a39.41,39.41,0,0,1-30.13-14.16,38.46,38.46,0,0,1-8.52-31.78A38.82,38.82,0,0,0,13.89,112,39.22,39.22,0,0,1,35.63,45.1,38.84,38.84,0,0,0,64.86,23.86a39.22,39.22,0,0,1,70.34,0A38.81,38.81,0,0,0,164.43,45.1,39.22,39.22,0,0,1,186.17,112,38.8,38.8,0,0,0,175,146.36a38.42,38.42,0,0,1-8.52,31.78,39.41,39.41,0,0,1-30.12,14.16ZM100,104.88a1.13,1.13,0,0,1,.51.12l2.06,1.08a3.1,3.1,0,0,0,4.51-3.27l-.39-2.29a1.06,1.06,0,0,1,.32-1l1.66-1.62A3.12,3.12,0,0,0,107,92.61l-2.3-.33a1.11,1.11,0,0,1-.84-.61l-1-2.08a3.11,3.11,0,0,0-5.57,0l-1,2.08a1.09,1.09,0,0,1-.83.61l-2.3.33a3.11,3.11,0,0,0-1.72,5.31L93,99.54a1.11,1.11,0,0,1,.32,1L93,102.81A3.12,3.12,0,0,0,96,106.45a3.12,3.12,0,0,0,1.45-.37L99.51,105A1.17,1.17,0,0,1,100,104.88Z" transform="translate(-1 -1)"/><path d="M100,3A37.49,37.49,0,0,1,134.3,24.31a39.81,39.81,0,0,0,30,21.78,37.5,37.5,0,0,1,30.85,26,37.5,37.5,0,0,1-9.67,39.18A39.8,39.8,0,0,0,174,146.53a37.44,37.44,0,0,1-8.3,31,38.93,38.93,0,0,1-29.37,13.81,37.81,37.81,0,0,1-17.79-4.48,39.85,39.85,0,0,0-37.06,0,37.85,37.85,0,0,1-17.8,4.48,39,39,0,0,1-29.37-13.81,37.44,37.44,0,0,1-8.29-31,39.83,39.83,0,0,0-11.45-35.25A38.21,38.21,0,0,1,35.77,46.09a39.81,39.81,0,0,0,30-21.78A37.51,37.51,0,0,1,100,3M96,107.45a4.13,4.13,0,0,0,1.91-.48l2.06-1.08h.1l2,1.08a4.11,4.11,0,0,0,6-4.33l-.39-2.29a.17.17,0,0,1,0-.1l1.67-1.62a4.11,4.11,0,0,0-2.28-7l-2.3-.33s-.06,0-.08-.06l-1-2.08a4.11,4.11,0,0,0-7.37,0l-1,2.08a.11.11,0,0,1-.09.06l-2.29.33a4.11,4.11,0,0,0-2.28,7l1.66,1.62a.1.1,0,0,1,0,.1L92,102.64A4.12,4.12,0,0,0,96,107.45M100,1A39.75,39.75,0,0,0,64,23.42h0A37.83,37.83,0,0,1,35.48,44.11h0c-33,4.8-46.16,45.34-22.29,68.61h0a37.84,37.84,0,0,1,10.88,33.47h0c-4.46,26,16.2,47.11,39.63,47.11a40.14,40.14,0,0,0,18.73-4.7h0a37.78,37.78,0,0,1,35.2,0h0a40.13,40.13,0,0,0,18.72,4.7c23.44,0,44.1-21.11,39.64-47.11h0a37.81,37.81,0,0,1,10.87-33.47h0c23.88-23.27,10.7-63.81-22.29-68.61h0A37.8,37.8,0,0,1,136.1,23.42,39.76,39.76,0,0,0,100,1ZM96,105.45A2.12,2.12,0,0,1,93.93,103l.39-2.29a2.1,2.1,0,0,0-.6-1.87L92.05,97.2a2.11,2.11,0,0,1,1.17-3.6l2.3-.33a2.11,2.11,0,0,0,1.59-1.15l1-2.09a2.11,2.11,0,0,1,3.78,0l1,2.09a2.1,2.1,0,0,0,1.58,1.15l2.3.33A2.11,2.11,0,0,1,108,97.2l-1.66,1.62a2.1,2.1,0,0,0-.61,1.87l.39,2.29a2.11,2.11,0,0,1-2.07,2.47,2.14,2.14,0,0,1-1-.25l-2-1.08a2.15,2.15,0,0,0-1-.24,2.09,2.09,0,0,0-1,.24L97,105.2a2.1,2.1,0,0,1-1,.25Z" transform="translate(-1 -1)"/></g></g></svg>