<svg xmlns="http://www.w3.org/2000/svg" viewBox="0 0 200.06 199.92"><defs><style>.cls-1{fill:#9ff;}.cls-2{fill:#fff;stroke:#000;stroke-linecap:round;stroke-linejoin:round;stroke-width:2px;}</style></defs><g id="Layer_2" data-name="Layer 2"><g id="레이어_4" data-name="레이어 4"><polygon class="cls-1" points="175.35 99.96 126.69 88.93 136.44 63.59 111.07 73.32 100.03 24.69 88.98 73.32 63.62 63.59 73.36 88.93 24.7 99.96 73.36 111 63.62 136.34 88.98 126.6 100.03 175.24 111.07 126.6 136.44 136.34 126.69 111 175.35 99.96"/><path class="cls-2" d="M199.06,100l-64-14.5L147.9,52.14l-33.35,12.8L100,1,85.51,64.94,52.16,52.14,65,85.46,1,100l64,14.51L52.16,147.79,85.51,135,100,198.92,114.55,135l33.35,12.81-12.82-33.32Zm-62.62,36.38-25.37-9.74-11,48.64L89,126.6l-25.37,9.74L73.36,111,24.7,100l48.66-11L63.61,63.58,89,73.32l11-48.63,11,48.63,25.37-9.74-9.75,25.35,48.66,11-48.66,11Z"/></g></g></svg>