<svg xmlns="http://www.w3.org/2000/svg" viewBox="0 0 198.06 190.26"><defs><style>.cls-1{fill:#fc0;}</style></defs><g id="Layer_2" data-name="Layer 2"><g id="레이어_4" data-name="레이어 4"><path class="cls-1" d="M2.4,189.26a1.28,1.28,0,0,1-1.11-.58c-.46-.71-.37-1.93.26-3.35C28,125.76,54.26,80.11,79.57,49.66,106.41,17.37,133.15,1,159.05,1c1,0,2.1,0,3.14.08,24.62,1.23,35.25,17.5,34.86,33.09C196.65,50,185.08,66,163.73,66A50.75,50.75,0,0,1,150.22,64a74.83,74.83,0,0,0-19.88-2.79A70.62,70.62,0,0,0,100.56,68a1,1,0,0,0,.42,1.91,1,1,0,0,0,.34-.06,41.86,41.86,0,0,1,14.21-2.72,30.46,30.46,0,0,1,7.2.84C136.24,71.24,140,81,139.11,88.33a17.75,17.75,0,0,1-17.75,15.86,26.08,26.08,0,0,1-11.2-2.79,41.58,41.58,0,0,0-18-4.24,47.09,47.09,0,0,0-20.31,5,1,1,0,0,0,.43,1.9,1.12,1.12,0,0,0,.35-.06,29.27,29.27,0,0,1,10.11-2,20.74,20.74,0,0,1,5.14.64c9,2.32,11.57,8.64,10.93,13.79A12,12,0,0,1,86.87,127a17.63,17.63,0,0,1-7.73-2,23.48,23.48,0,0,0-10.51-2.45c-15.34,0-30.08,14.39-34.92,19.11-10.29,10.05-18.88,25.13-29.4,46.19A2.24,2.24,0,0,1,2.4,189.26Z"/><path d="M159.05,2c1,0,2.06,0,3.09.08,23.94,1.19,34.28,17,33.91,32.06C195.67,49.46,184.44,65,163.73,65a50.07,50.07,0,0,1-13.25-1.91,75.51,75.51,0,0,0-20.14-2.83,71.67,71.67,0,0,0-30.2,6.83,2,2,0,0,0,.84,3.82,2,2,0,0,0,.68-.12,40.85,40.85,0,0,1,13.87-2.66,29.47,29.47,0,0,1,7,.81c12.86,3.15,16.5,12,15.63,19.32a16.77,16.77,0,0,1-16.76,15,25,25,0,0,1-10.77-2.69,42.48,42.48,0,0,0-18.45-4.34,48,48,0,0,0-20.74,5.07,2,2,0,0,0,.86,3.8,2.09,2.09,0,0,0,.69-.12A28,28,0,0,1,82.72,103a20.09,20.09,0,0,1,4.89.59c8.42,2.16,10.78,8,10.18,12.71A11,11,0,0,1,86.87,126a16.59,16.59,0,0,1-7.29-1.88,24.59,24.59,0,0,0-11-2.55c-15.74,0-30.7,14.6-35.62,19.4-10.39,10.14-19,25.3-29.6,46.46a1.26,1.26,0,0,1-1,.81c-.19,0-.25-.08-.27-.13-.16-.24-.27-1,.34-2.4,26.42-59.48,52.61-105,77.87-135.43,13.19-15.87,26.44-28,39.37-36C132.88,6.14,146.12,2,159.05,2m0-2C104.82,0,52.08,69.09.64,184.92c-1.55,3.49,0,5.34,1.76,5.34a3.19,3.19,0,0,0,2.8-1.92c11.42-22.86,19.56-36.5,29.21-45.92,7.37-7.2,20.56-18.83,34.22-18.83a22.5,22.5,0,0,1,10.07,2.34A18.45,18.45,0,0,0,86.87,128c14.49,0,19.51-21.69,1.24-26.37a21.45,21.45,0,0,0-5.39-.66,30.06,30.06,0,0,0-10.46,2,46,46,0,0,1,19.88-4.87,40.18,40.18,0,0,1,17.58,4.14,26.92,26.92,0,0,0,11.64,2.89c21.18,0,28.25-31.71,1.61-38.23a31.17,31.17,0,0,0-7.44-.87A42.64,42.64,0,0,0,101,68.87a69.23,69.23,0,0,1,29.36-6.65A73.49,73.49,0,0,1,150,65a51.57,51.57,0,0,0,13.78,2c43.09,0,48.9-64.36-1.5-66.88-1.06,0-2.12-.08-3.18-.08Z"/></g></g></svg>