<svg xmlns="http://www.w3.org/2000/svg" viewBox="0 0 198.06 98.1"><defs><style>.cls-1{fill:#fff;}</style></defs><g id="Layer_2" data-name="Layer 2"><g id="레이어_4" data-name="레이어 4"><path class="cls-1" d="M99,97.09c-.31,0-.63,0-.94,0A18.88,18.88,0,0,1,80.45,74.81,2.7,2.7,0,0,0,80,72.65a2.65,2.65,0,0,0-1.88-1h-.3A2.7,2.7,0,0,0,75.12,74,18.93,18.93,0,0,1,56.4,90.31c-.49,0-1,0-1.48,0A18.91,18.91,0,0,1,38.35,65.87,3.22,3.22,0,0,0,36.62,62a3.2,3.2,0,0,0-3.61.6A18.88,18.88,0,0,1,1,47.82,19,19,0,0,1,19.17,30.18l.71,0A18.77,18.77,0,0,1,33,35.48a3.22,3.22,0,0,0,2.24.91,3.12,3.12,0,0,0,1.34-.3,3.25,3.25,0,0,0,1.76-3.87A18.9,18.9,0,0,1,54.92,7.84c.5,0,1-.06,1.48-.06A18.93,18.93,0,0,1,75.12,24.14a2.7,2.7,0,0,0,2.66,2.35H78a2.74,2.74,0,0,0,2-1.07,2.67,2.67,0,0,0,.49-2.06,18.37,18.37,0,0,1-.33-3.47A18.9,18.9,0,0,1,99,1l1,0a18.94,18.94,0,0,1,17.83,17.15,18.67,18.67,0,0,1-.23,5.12,2.72,2.72,0,0,0,.49,2.15,2.65,2.65,0,0,0,1.89,1h.25a2.75,2.75,0,0,0,2.71-2.39A18.94,18.94,0,0,1,141.65,7.78c.49,0,1,0,1.49.06A18.87,18.87,0,0,1,159.7,32.22a3.24,3.24,0,0,0,1.73,3.85,3.27,3.27,0,0,0,1.38.32,3.21,3.21,0,0,0,2.24-.92,18.8,18.8,0,0,1,13.12-5.31l.72,0A19,19,0,0,1,197,47.82a18.88,18.88,0,0,1-32,14.8,3.2,3.2,0,0,0-3.59-.61,3.24,3.24,0,0,0-1.76,3.86,18.88,18.88,0,0,1-16.56,24.39c-.5,0-1,0-1.49,0A18.92,18.92,0,0,1,122.94,74a2.71,2.71,0,0,0-2.66-2.35H120a2.71,2.71,0,0,0-2,1.06,2.59,2.59,0,0,0-.49,2.06,19.23,19.23,0,0,1,.32,3.47A18.9,18.9,0,0,1,99,97.09Z"/><path d="M99,2h0L100,2a18,18,0,0,1,16.89,16.24,18.24,18.24,0,0,1-.22,4.84,3.76,3.76,0,0,0,.67,2.94,3.64,3.64,0,0,0,2.6,1.43h.34a3.76,3.76,0,0,0,3.7-3.25A17.94,17.94,0,0,1,141.65,8.78q.71,0,1.41.06a17.9,17.9,0,0,1,15.69,23.09A4.22,4.22,0,0,0,161,37a4.16,4.16,0,0,0,1.77.4,4.22,4.22,0,0,0,2.94-1.2,17.78,17.78,0,0,1,12.42-5l.68,0A18,18,0,0,1,196,47.88a17.88,17.88,0,0,1-30.27,14,4.21,4.21,0,0,0-2.94-1.19,4.11,4.11,0,0,0-1.8.41,4.23,4.23,0,0,0-2.26,5.05,17.9,17.9,0,0,1-15.69,23.09c-.47,0-.94,0-1.41,0a17.92,17.92,0,0,1-17.72-15.48,3.71,3.71,0,0,0-3.65-3.22h-.39a3.65,3.65,0,0,0-2.61,1.45,3.59,3.59,0,0,0-.67,2.85A17.9,17.9,0,0,1,99,96.09c-.3,0-.6,0-.9,0A17.93,17.93,0,0,1,81.22,79.84,17.53,17.53,0,0,1,81.44,75a3.77,3.77,0,0,0-.68-2.94,3.65,3.65,0,0,0-2.64-1.43h-.34a3.7,3.7,0,0,0-3.65,3.22A17.92,17.92,0,0,1,56.4,89.31c-.46,0-.93,0-1.4,0a18,18,0,0,1-16.39-16,17.82,17.82,0,0,1,.7-7.09A4.26,4.26,0,0,0,37,61.1a4.22,4.22,0,0,0-4.71.8A17.88,17.88,0,0,1,2,47.88,18,18,0,0,1,19.2,31.18l.68,0a17.75,17.75,0,0,1,12.43,5,4.24,4.24,0,0,0,7-4.27A17.88,17.88,0,0,1,55,8.84c.47,0,.94-.06,1.4-.06A17.93,17.93,0,0,1,74.13,24.27a3.7,3.7,0,0,0,3.65,3.22l.34,0h0A3.76,3.76,0,0,0,80.78,26a3.65,3.65,0,0,0,.67-2.85,18.15,18.15,0,0,1-.31-3.29A17.89,17.89,0,0,1,99,2m0-2A19.89,19.89,0,0,0,79.14,19.88a20.09,20.09,0,0,0,.34,3.66A1.67,1.67,0,0,1,78,25.48h-.2A1.69,1.69,0,0,1,76.11,24,19.89,19.89,0,0,0,56.4,6.78c-.51,0-1,0-1.55.06A19.87,19.87,0,0,0,37.4,32.51a2.23,2.23,0,0,1-1.2,2.66h0a2.17,2.17,0,0,1-.92.21,2.24,2.24,0,0,1-1.55-.63,19.81,19.81,0,0,0-13.82-5.6l-.75,0A19.88,19.88,0,1,0,33.7,63.34a2.24,2.24,0,0,1,1.55-.63,2.31,2.31,0,0,1,.92.2l0,0a2.23,2.23,0,0,1,1.2,2.65A19.87,19.87,0,0,0,54.85,91.25c.52,0,1,.06,1.55.06A19.89,19.89,0,0,0,76.11,74.09a1.69,1.69,0,0,1,1.67-1.48H78a1.65,1.65,0,0,1,1.49,2A19.7,19.7,0,0,0,79.23,80,20,20,0,0,0,98,98.07q.49,0,1,0a19.88,19.88,0,0,0,19.54-23.54,1.66,1.66,0,0,1,1.5-1.94h.21A1.7,1.7,0,0,1,122,74.09a19.88,19.88,0,0,0,19.7,17.22q.78,0,1.56-.06a19.9,19.9,0,0,0,17.45-25.67,2.22,2.22,0,0,1,1.19-2.65l0,0a2.22,2.22,0,0,1,2.47.43,19.88,19.88,0,1,0,14.57-34.16l-.76,0a19.78,19.78,0,0,0-13.81,5.59,2.19,2.19,0,0,1-2.48.43h0a2.21,2.21,0,0,1-1.19-2.65A19.91,19.91,0,0,0,143.21,6.84q-.78-.06-1.56-.06A19.89,19.89,0,0,0,122,24a1.74,1.74,0,0,1-1.72,1.52h-.16a1.66,1.66,0,0,1-1.49-2,19.67,19.67,0,0,0,.25-5.39A20,20,0,0,0,100.05,0q-.51,0-1,0Z"/></g></g></svg>