<svg xmlns="http://www.w3.org/2000/svg" viewBox="0 0 131.61 198.05"><defs><style>.cls-1{fill:#f69;}</style></defs><g id="Layer_2" data-name="Layer 2"><g id="레이어_4" data-name="레이어 4"><path class="cls-1" d="M64.65,198.06,32.06,165.47a.65.65,0,0,0-.21-.16l-29.48-17L5,143.72l18.59,10.73a1,1,0,0,0,.5.14,1,1,0,0,0,.71-.3,1,1,0,0,0,.16-1.2l-10.74-18.6,4.57-2.63,10.73,18.59a1,1,0,0,0,.87.5,1.07,1.07,0,0,0,.25,0,1,1,0,0,0,.75-1V128.49h5.26V150a1,1,0,0,0,.75,1,1.07,1.07,0,0,0,.25,0,1,1,0,0,0,.87-.5l10.73-18.59,4.57,2.63-10.74,18.6a1,1,0,0,0,.16,1.2,1,1,0,0,0,.71.3,1,1,0,0,0,.5-.14l19.22-11.1a1,1,0,0,0,.5-.86v-5.08a1,1,0,0,0-.29-.71L36.14,109a.83.83,0,0,0-.21-.16L10.75,94.26l2.63-4.56,15.2,8.77a1,1,0,0,0,1.21-.16,1,1,0,0,0,.16-1.2l-8.78-15.2,4.56-2.64,8.78,15.2a1,1,0,0,0,.86.5,1.09,1.09,0,0,0,.26,0,1,1,0,0,0,.74-1V76.42h5.27V94a1,1,0,0,0,.74,1l.26,0a1,1,0,0,0,.87-.5l8.78-15.2,4.56,2.64-8.78,15.2a1,1,0,0,0,.16,1.2,1,1,0,0,0,1.21.16l14.23-8.22a1,1,0,0,0,.5-.86V79.13a1,1,0,0,0-.29-.71L44.94,59.48a1,1,0,0,0-.21-.16L25.2,48l2.64-4.56,8.6,5a1,1,0,0,0,1.21-.16,1,1,0,0,0,.16-1.21l-5-8.6,4.56-2.64,5,8.61a1,1,0,0,0,.87.5l.26,0a1,1,0,0,0,.74-1V34h5.27V44a1,1,0,0,0,.74,1,1.09,1.09,0,0,0,.26,0,1,1,0,0,0,.86-.5l5-8.61,4.56,2.64-5,8.6a1,1,0,0,0,.16,1.21,1,1,0,0,0,.71.29,1,1,0,0,0,.5-.13l6.37-3.68a1,1,0,0,0,.5-.86V26.73a1,1,0,0,0-.5-.86L45.89,15.6,48.52,11l7.86,4.53a1,1,0,0,0,.5.14,1,1,0,0,0,.87-1.5L53.21,6.35l4.56-2.63,4.54,7.85a1,1,0,0,0,.86.5,1.09,1.09,0,0,0,.26,0,1,1,0,0,0,.74-1V2h5.27v9.07a1,1,0,0,0,.74,1l.26,0a1,1,0,0,0,.87-.5l4.53-7.85,4.57,2.63-4.54,7.86a1,1,0,0,0,.87,1.5,1,1,0,0,0,.5-.14L85.09,11l2.64,4.56L69.94,25.87a1,1,0,0,0-.5.86V44a1,1,0,0,0,.5.87l6.29,3.63a1,1,0,0,0,1.21-.16,1,1,0,0,0,.16-1.21l-5-8.6,4.56-2.64,5,8.61A1,1,0,0,0,83,45a1.15,1.15,0,0,0,.26,0A1,1,0,0,0,84,44V34H89.3V44a1,1,0,0,0,.74,1,1.09,1.09,0,0,0,.26,0,1,1,0,0,0,.86-.5l5-8.61,4.56,2.64-5,8.6a1,1,0,0,0,.15,1.21,1,1,0,0,0,.71.29,1,1,0,0,0,.5-.13l8.61-5L108.33,48,88.81,59.32a.65.65,0,0,0-.21.16L69.73,78.34a1,1,0,0,0-.29.71V89.44a1,1,0,0,0,.5.86l14.15,8.17a1,1,0,0,0,.5.14,1,1,0,0,0,.71-.3,1,1,0,0,0,.16-1.2l-8.78-15.2,4.56-2.64L90,94.47a1,1,0,0,0,.86.5,1.09,1.09,0,0,0,.26,0,1,1,0,0,0,.74-1V76.42h5.27V94a1,1,0,0,0,.74,1l.26,0a1,1,0,0,0,.87-.5l8.77-15.2,4.56,2.64-8.77,15.2a1,1,0,0,0,.16,1.2,1,1,0,0,0,1.21.16l15.19-8.77,2.64,4.56L97.59,108.8a1,1,0,0,0-.2.16L69.73,136.61a1,1,0,0,0-.29.71v5.17a1,1,0,0,0,.5.86l19.23,11.1a1,1,0,0,0,1.2-.16,1,1,0,0,0,.16-1.2L79.8,134.49l4.56-2.63,10.73,18.59a1,1,0,0,0,.87.5,1.15,1.15,0,0,0,.26,0,1,1,0,0,0,.74-1V128.49h5.27V150a1,1,0,0,0,.74,1,1.15,1.15,0,0,0,.26,0,1,1,0,0,0,.86-.5l10.74-18.59,4.56,2.63-10.73,18.6a1,1,0,0,0,.16,1.2,1,1,0,0,0,.7.3,1,1,0,0,0,.5-.14l18.59-10.73,2.64,4.56-29.49,17a.65.65,0,0,0-.21.16L69,198.06Zm5.79-48.18a1,1,0,0,0-1,1v36.83a1,1,0,0,0,.62.93,1,1,0,0,0,.38.07,1,1,0,0,0,.71-.29L94.5,165.07a1,1,0,0,0-.21-1.58L70.94,150A1,1,0,0,0,70.44,149.88Zm-7.27,0a1,1,0,0,0-.5.13L39.32,163.49a1,1,0,0,0-.2,1.58l23.35,23.35a1,1,0,0,0,.7.29,1.07,1.07,0,0,0,.39-.07,1,1,0,0,0,.61-.93V150.88a1,1,0,0,0-.5-.87A1,1,0,0,0,63.17,149.88Zm0-53.1a1,1,0,0,0-.5.13l-18.6,10.75a1,1,0,0,0-.49.73,1,1,0,0,0,.28.84l18.61,18.6a1,1,0,0,0,.7.3,1.09,1.09,0,0,0,.39-.08,1,1,0,0,0,.61-.92V97.78a1,1,0,0,0-.5-.87A1,1,0,0,0,63.17,96.78Zm7.27,0a1,1,0,0,0-1,1V127a1,1,0,0,0,1,1,1,1,0,0,0,.71-.3l18.52-18.51a1,1,0,0,0,.28-.84,1,1,0,0,0-.49-.73L70.94,97A1,1,0,0,0,70.44,96.83ZM63.17,51.3a1,1,0,0,0-.5.13L52.18,57.49a1,1,0,0,0-.49.73,1,1,0,0,0,.28.84l10.5,10.49a1,1,0,0,0,.7.3,1.09,1.09,0,0,0,.39-.08,1,1,0,0,0,.61-.92V52.3a1,1,0,0,0-.5-.87A1,1,0,0,0,63.17,51.3Zm7.27,0a1,1,0,0,0-.5.14,1,1,0,0,0-.5.86V68.77a1,1,0,0,0,1,1,1,1,0,0,0,.71-.29L81.56,59.06a1,1,0,0,0-.21-1.57l-10.41-6A1,1,0,0,0,70.44,51.34Z" transform="translate(-1 -1)"/><path d="M68.44,3v8.07A2,2,0,0,0,69.92,13a1.91,1.91,0,0,0,.52.07,2,2,0,0,0,1.73-1l4-7L79,6.72l-4,7a2,2,0,0,0,1.74,3,2,2,0,0,0,1-.27l7-4,1.63,2.83L69.44,25a2,2,0,0,0-1,1.73V44a2,2,0,0,0,1,1.73l6.29,3.64a2,2,0,0,0,2.74-2.74L74,38.84l2.83-1.63L81.3,45A2,2,0,0,0,83,46a1.91,1.91,0,0,0,.52-.07A2,2,0,0,0,85,44V35H88.3V44a2,2,0,0,0,1.48,1.93,1.86,1.86,0,0,0,.52.07A2,2,0,0,0,92,45l4.47-7.74,2.83,1.63-4.47,7.74A2,2,0,0,0,95.18,49a2,2,0,0,0,2.41.32l7.74-4.47L107,47.68,88.31,58.45a2.12,2.12,0,0,0-.42.32L69,77.63a2,2,0,0,0-.59,1.42V89.44a2,2,0,0,0,1,1.73l14.15,8.17a2,2,0,0,0,2.73-2.73L78.05,82.27l2.83-1.63L89.15,95a2,2,0,0,0,1.73,1,1.86,1.86,0,0,0,.52-.07A2,2,0,0,0,92.88,94V77.42h3.27V94a2,2,0,0,0,1.48,1.93,1.91,1.91,0,0,0,.52.07,2,2,0,0,0,1.73-1l8.28-14.33L111,82.27l-8.28,14.34A2,2,0,0,0,103,99a2,2,0,0,0,2.42.32l14.33-8.28,1.63,2.83-24.32,14a2.15,2.15,0,0,0-.41.32L69,135.9a2,2,0,0,0-.59,1.42v5.17a2,2,0,0,0,1,1.73l19.23,11.1a2,2,0,0,0,2.41-.32,2,2,0,0,0,.32-2.41L81.16,134.86,84,133.23,94.23,151A2,2,0,0,0,96,152a1.86,1.86,0,0,0,.52-.07A2,2,0,0,0,98,150V129.48h3.27V150a2,2,0,0,0,1.48,1.93,1.86,1.86,0,0,0,.52.07,2,2,0,0,0,1.73-1l10.23-17.72,2.83,1.63-10.23,17.73a2,2,0,0,0,.32,2.41,2,2,0,0,0,2.41.32l17.73-10.24,1.63,2.84-28.62,16.52a2.15,2.15,0,0,0-.41.32l-32.3,32.3H65.07l-32.3-32.3a1.94,1.94,0,0,0-.42-.32L3.73,147.92l1.64-2.84,17.72,10.24a2,2,0,0,0,2.42-.32,2,2,0,0,0,.31-2.41L15.59,134.86l2.83-1.63L28.65,151a2,2,0,0,0,1.74,1,1.79,1.79,0,0,0,.51-.07A2,2,0,0,0,32.39,150V129.48h3.26V150a2,2,0,0,0,1.49,1.93,1.79,1.79,0,0,0,.51.07,2,2,0,0,0,1.74-1l10.23-17.72,2.83,1.63L42.22,152.59a2,2,0,0,0,1.73,3,2,2,0,0,0,1-.27l19.22-11.1a2,2,0,0,0,1-1.73v-5.08a2,2,0,0,0-.58-1.42L36.85,108.25a2.59,2.59,0,0,0-.42-.32l-24.32-14,1.64-2.83,14.33,8.28a2,2,0,0,0,2.73-2.73L22.54,82.27l2.83-1.63L33.64,95a2,2,0,0,0,1.73,1,1.81,1.81,0,0,0,.52-.07A2,2,0,0,0,37.37,94V77.42h3.27V94a2,2,0,0,0,1.49,1.93,1.79,1.79,0,0,0,.51.07,2,2,0,0,0,1.74-1l8.27-14.33,2.83,1.63L47.21,96.61A2,2,0,0,0,47.52,99a2,2,0,0,0,1.42.59,2,2,0,0,0,1-.27l14.23-8.22a2,2,0,0,0,1-1.73V79.13a2,2,0,0,0-.58-1.42l-19-18.94a2.15,2.15,0,0,0-.41-.32L26.57,47.68l1.63-2.83,7.74,4.47a2,2,0,0,0,2.74-2.74l-4.47-7.74L37,37.21,41.51,45a2,2,0,0,0,1.73,1,1.91,1.91,0,0,0,.52-.07A2,2,0,0,0,45.24,44V35h3.27V44A2,2,0,0,0,50,45.88a1.81,1.81,0,0,0,.52.07,2,2,0,0,0,1.73-1l4.47-7.74,2.83,1.63-4.47,7.74A2,2,0,0,0,55.39,49a2,2,0,0,0,2.41.32l6.37-3.68a2,2,0,0,0,1-1.73V26.73a2,2,0,0,0-1-1.73L47.25,15.23l1.64-2.83,7,4a2,2,0,0,0,1,.27,2,2,0,0,0,1.41-.59,2,2,0,0,0,.32-2.41l-4-7L57.4,5.08l4,7a2,2,0,0,0,1.73,1,1.86,1.86,0,0,0,.52-.07,2,2,0,0,0,1.48-1.93V3h3.27M63.17,70.85a2.07,2.07,0,0,0,.77-.15,2,2,0,0,0,1.23-1.85V52.3a2,2,0,0,0-2-2,2,2,0,0,0-1,.27l-10.49,6a2,2,0,0,0-.41,3.15L61.76,70.26a2,2,0,0,0,1.41.59m7.27-.08a2,2,0,0,0,1.42-.59L82.27,59.77a2,2,0,0,0-.41-3.15l-10.42-6a2,2,0,0,0-1-.27,2,2,0,0,0-2,2V68.77a2,2,0,0,0,1.24,1.85,2,2,0,0,0,.76.15m-7.27,58.36a1.9,1.9,0,0,0,.77-.16,2,2,0,0,0,1.23-1.84V97.78a2,2,0,0,0-2-2,2,2,0,0,0-1,.27l-18.6,10.74a2,2,0,0,0-.42,3.15l18.61,18.6a2,2,0,0,0,1.41.59m7.27-.09a2,2,0,0,0,1.42-.59l18.51-18.51a2,2,0,0,0,.57-1.68,2,2,0,0,0-1-1.47L71.44,96.1a2,2,0,0,0-1-.27,2,2,0,0,0-2,2V127a2,2,0,0,0,1.24,1.85,2,2,0,0,0,.76.15m-7.27,60.67a2.07,2.07,0,0,0,.77-.15,2,2,0,0,0,1.23-1.85V150.88a2,2,0,0,0-3-1.73L38.82,162.63a2,2,0,0,0-1,1.47,2,2,0,0,0,.57,1.68l23.35,23.35a2,2,0,0,0,1.41.58m7.27,0a2,2,0,0,0,1.42-.58l23.35-23.35a2,2,0,0,0-.42-3.15L71.44,149.15a2,2,0,0,0-1-.27,2,2,0,0,0-2,2v36.83a2,2,0,0,0,1.24,1.85,2,2,0,0,0,.76.15M70.44,1H63.17V11.07l-5-8.72L51.84,6l5,8.73-8.72-5L44.52,16,63.17,26.73V43.91L56.8,47.58l5.47-9.47L56,34.48,50.51,44V33H43.24V44l-5.47-9.47-6.3,3.63,5.47,9.47-9.47-5.46-3.63,6.29L44.23,60.18,63.17,79.13V89.39L48.94,97.61l9.27-16.07-6.29-3.63L42.64,94V75.42H35.37V94L26.1,77.91l-6.3,3.63,9.28,16.07L13,88.33,9.38,94.62l26.05,15,27.74,27.74v5.08L44,153.59l11.23-19.46-6.29-3.64L37.65,150V127.48H30.39V150L19.15,130.49l-6.29,3.64,11.23,19.46L4.63,142.35,1,148.65l30.35,17.52,32.89,32.89h5.14l32.88-32.89,30.35-17.52-3.63-6.3-19.46,11.24,11.24-19.46-6.3-3.64L103.23,150V127.48H96V150L84.73,130.49l-6.3,3.64,11.24,19.46-19.23-11.1v-5.17l27.65-27.65,26.06-15-3.64-6.29-16.06,9.28,9.27-16.07-6.29-3.63L98.15,94V75.42H90.88V94L81.61,77.91l-6.3,3.63,9.28,16.07L70.44,89.44V79.05L89.31,60.18,109.7,48.41l-3.64-6.29-9.47,5.46,5.47-9.47-6.29-3.63L90.3,44V33H83V44l-5.47-9.47-6.29,3.63,5.46,9.47L70.44,44V26.73L89.09,16,85.46,9.67l-8.72,5,5-8.73L75.48,2.35l-5,8.72V1ZM63.17,68.85,52.68,58.36,63.17,52.3V68.85Zm7.27-.08V52.34l10.41,6L70.44,68.77Zm-7.27,58.36-18.6-18.61,18.6-10.74v29.35Zm7.27-.09V97.83L89,108.52,70.44,127Zm-7.27,60.67L39.82,164.36l23.35-13.48v36.83Zm7.27,0V150.88l23.35,13.48L70.44,187.71Z" transform="translate(-1 -1)"/></g></g></svg>