<svg xmlns="http://www.w3.org/2000/svg" viewBox="0 0 202.06 187.92"><defs><style>.cls-1{fill:#ff3;}.cls-2{fill:#f60;}.cls-3{fill:#fff;}</style></defs><g id="Layer_2" data-name="Layer 2"><g id="레이어_4" data-name="레이어 4"><path class="cls-1" d="M127.66,186.92A45.86,45.86,0,0,1,101,178.27a45.84,45.84,0,0,1-26.64,8.65,47.08,47.08,0,0,1-35-15.72A45.51,45.51,0,0,1,28,136.11,46.4,46.4,0,0,1,28,51.8,45.49,45.49,0,0,1,39.43,16.72,47.08,47.08,0,0,1,74.39,1,45.84,45.84,0,0,1,101,9.65,45.79,45.79,0,0,1,127.66,1a47.1,47.1,0,0,1,35,15.72A45.48,45.48,0,0,1,174,51.8a46.4,46.4,0,0,1,0,84.31,45.49,45.49,0,0,1-11.41,35.09,47.1,47.1,0,0,1-35,15.72ZM101,141.16a1,1,0,0,1,.59.19,25.08,25.08,0,0,0,14.86,5,25.75,25.75,0,0,0,19.11-8.59,24.84,24.84,0,0,0,6.18-19.55,1,1,0,0,1,.59-1,25.34,25.34,0,0,0,0-46.37,1,1,0,0,1-.59-1,24.82,24.82,0,0,0-6.18-19.55,25.75,25.75,0,0,0-19.11-8.59,25,25,0,0,0-14.86,5,1,1,0,0,1-.59.19,1,1,0,0,1-.59-.19,25,25,0,0,0-14.86-5A25.73,25.73,0,0,0,66.47,50.2a24.87,24.87,0,0,0-6.19,19.55,1,1,0,0,1-.59,1,25.34,25.34,0,0,0,0,46.37,1,1,0,0,1,.59,1,24.87,24.87,0,0,0,6.19,19.55,25.73,25.73,0,0,0,19.11,8.59,25.08,25.08,0,0,0,14.86-5A1,1,0,0,1,101,141.16Z"/><path d="M127.66,2c25.2,0,48.46,21.52,45.31,50.42h0c36.11,15.92,36.11,67.15,0,83.08h0c3.15,28.9-20.11,50.42-45.31,50.42A44.71,44.71,0,0,1,101,177h0a44.72,44.72,0,0,1-26.64,8.89c-25.19,0-48.45-21.52-45.31-50.42h0C-7,119.57-7,68.34,29.08,52.42h0C25.94,23.51,49.2,2,74.39,2A44.78,44.78,0,0,1,101,10.88h0A44.77,44.77,0,0,1,127.66,2M101,45.76a26,26,0,0,0-15.45-5.15C71,40.61,57.46,53.09,59.29,69.86c-20.95,9.24-20.95,39,0,48.2h0C57.46,134.83,71,147.31,85.58,147.31A26,26,0,0,0,101,142.16a26,26,0,0,0,15.45,5.15c14.62,0,28.11-12.48,26.29-29.25h0c20.95-9.24,20.95-39,0-48.2,1.82-16.77-11.67-29.25-26.29-29.25A26,26,0,0,0,101,45.76M74.39,0a48.06,48.06,0,0,0-35.7,16.05A46.4,46.4,0,0,0,27,51.19a47.4,47.4,0,0,0,0,85.53,46.45,46.45,0,0,0,11.72,35.15,48.1,48.1,0,0,0,35.71,16A46.75,46.75,0,0,0,101,179.49a46.71,46.71,0,0,0,26.63,8.43,48.08,48.08,0,0,0,35.71-16,46.46,46.46,0,0,0,11.73-35.15,47.4,47.4,0,0,0,0-85.53,46.45,46.45,0,0,0-11.73-35.14A48.1,48.1,0,0,0,127.66,0,46.71,46.71,0,0,0,101,8.43,46.75,46.75,0,0,0,74.39,0ZM101,47.76a2,2,0,0,0,1.18-.39,24.1,24.1,0,0,1,14.27-4.76h0a24.73,24.73,0,0,1,18.36,8.26,23.86,23.86,0,0,1,5.94,18.77,2,2,0,0,0,1.18,2,24.34,24.34,0,0,1,0,44.54,2,2,0,0,0-1.18,2,23.88,23.88,0,0,1-5.94,18.78,24.73,24.73,0,0,1-18.36,8.26,24,24,0,0,1-14.27-4.77,2,2,0,0,0-1.18-.38,2,2,0,0,0-1.18.38,24.07,24.07,0,0,1-14.27,4.77,24.73,24.73,0,0,1-18.37-8.26,23.87,23.87,0,0,1-5.93-18.78,2,2,0,0,0-1.19-2,24.35,24.35,0,0,1,0-44.54,2,2,0,0,0,1.19-2,23.85,23.85,0,0,1,5.93-18.77,24.73,24.73,0,0,1,18.37-8.26,24.12,24.12,0,0,1,14.27,4.76,2,2,0,0,0,1.18.39Z"/><path class="cls-1" d="M116.07,141.34a20.91,20.91,0,0,1-12.4-4.13L101,135.27l-2.64,1.94A21,21,0,0,1,86,141.34a21.45,21.45,0,0,1-15.92-7.16,20.75,20.75,0,0,1-5.17-16.31l.36-3.25-3-1.33a21.13,21.13,0,0,1,0-38.67l3-1.32-.36-3.25a20.77,20.77,0,0,1,5.17-16.32A21.42,21.42,0,0,1,86,46.58a21,21,0,0,1,12.41,4.13L101,52.64l2.64-1.93a20.91,20.91,0,0,1,12.4-4.13A21.42,21.42,0,0,1,132,53.73a20.73,20.73,0,0,1,5.17,16.32l-.35,3.25,3,1.32a21.13,21.13,0,0,1,0,38.67l-3,1.33.35,3.25A20.74,20.74,0,0,1,132,134.19a21.46,21.46,0,0,1-15.92,7.15Zm-17-45a1,1,0,0,1,1,1v19.12a.94.94,0,0,0,1.88,0V97.32a1,1,0,0,1,.5-.87,1,1,0,0,1,.5-.13,1,1,0,0,1,.5.13L120,106a.88.88,0,0,0,.47.13.94.94,0,0,0,.47-1.75l-16.56-9.57a1,1,0,0,1-.5-.86,1,1,0,0,1,.5-.87L121,83.53a1,1,0,0,0,.44-.57.93.93,0,0,0-.1-.71.94.94,0,0,0-.81-.48,1,1,0,0,0-.47.13l-16.56,9.57a1.13,1.13,0,0,1-.5.13,1.06,1.06,0,0,1-.5-.13,1,1,0,0,1-.5-.87V71.47a.94.94,0,0,0-1.88,0V90.6a1,1,0,0,1-.5.87,1.13,1.13,0,0,1-.5.13,1.09,1.09,0,0,1-.5-.13L82,81.9a.94.94,0,0,0-.46-.13,1,1,0,0,0-.82.48.92.92,0,0,0-.09.71,1,1,0,0,0,.43.57l16.57,9.56a1,1,0,0,1,.5.87,1,1,0,0,1-.5.86l-16.57,9.57a.95.95,0,0,0-.34,1.28,1,1,0,0,0,.82.47A.84.84,0,0,0,82,106l16.57-9.56A1,1,0,0,1,99.09,96.32Z"/><path d="M116.07,47.58a20.17,20.17,0,0,1,20.1,22.36l-.44,4,3.67,1.62c16,7.06,16,29.78,0,36.84L135.73,114l.44,4a20.17,20.17,0,0,1-20.1,22.36,19.86,19.86,0,0,1-11.81-3.94L101,134l-3.24,2.37A19.81,19.81,0,0,1,86,140.34,20.16,20.16,0,0,1,65.89,118l.43-4-3.67-1.62c-16-7.06-16-29.78,0-36.84l3.67-1.62-.43-4A20.16,20.16,0,0,1,86,47.58a19.75,19.75,0,0,1,11.81,3.94L101,53.88l3.23-2.36a19.79,19.79,0,0,1,11.81-3.94m-17,43L82.52,81a1.88,1.88,0,0,0-1-.26,1.93,1.93,0,0,0-1,3.61L97.15,94l-16.57,9.56a1.94,1.94,0,0,0,1,3.62,1.88,1.88,0,0,0,1-.26l16.57-9.56v19.12a1.94,1.94,0,0,0,3.88,0V97.32l16.56,9.56a1.91,1.91,0,0,0,1,.26,1.94,1.94,0,0,0,1-3.62L104.91,94l16.56-9.57A1.94,1.94,0,0,0,119.53,81L103,90.6V71.47a1.94,1.94,0,0,0-3.88,0V90.6m17-45a21.88,21.88,0,0,0-13,4.32l-2,1.5-2-1.5a21.91,21.91,0,0,0-13-4.32,22.42,22.42,0,0,0-16.66,7.48A21.73,21.73,0,0,0,63.9,70.15l.27,2.53-2.32,1a22.13,22.13,0,0,0,0,40.5l2.32,1-.27,2.52a21.71,21.71,0,0,0,5.42,17.09A22.43,22.43,0,0,0,86,142.34,21.92,21.92,0,0,0,99,138l2-1.5,2,1.5a21.89,21.89,0,0,0,13,4.33,22.46,22.46,0,0,0,16.67-7.49,21.75,21.75,0,0,0,5.42-17.09l-.28-2.52,2.33-1a22.13,22.13,0,0,0,0-40.5l-2.33-1,.28-2.53a21.77,21.77,0,0,0-5.42-17.09,22.48,22.48,0,0,0-16.67-7.48Zm-17,47A2,2,0,0,0,101,91.09,2,2,0,0,0,103,92.6a2,2,0,0,0,.54-.08,2,2,0,0,0-.6,1.44,2,2,0,0,0,.6,1.43,2,2,0,0,0-.54-.07,2.07,2.07,0,0,0-1,.26,2,2,0,0,0-.94,1.25,2,2,0,0,0-.94-1.25,2.1,2.1,0,0,0-1-.26,2.08,2.08,0,0,0-.55.07A2,2,0,0,0,99.15,94a2,2,0,0,0-.61-1.44,2.09,2.09,0,0,0,.55.08Z"/><path class="cls-2" d="M116.48,148.31A26.91,26.91,0,0,1,101,143.38a26.93,26.93,0,0,1-15.45,4.93A27.75,27.75,0,0,1,65,139.05a26.8,26.8,0,0,1-6.76-20.38,27.35,27.35,0,0,1,0-49.43A26.81,26.81,0,0,1,65,48.86a27.74,27.74,0,0,1,20.6-9.25A27,27,0,0,1,101,44.53a27,27,0,0,1,15.45-4.92,27.73,27.73,0,0,1,20.6,9.26,26.77,26.77,0,0,1,6.75,20.37,27.34,27.34,0,0,1,0,49.43,26.79,26.79,0,0,1-6.75,20.38,27.73,27.73,0,0,1-20.6,9.26ZM101,133a1,1,0,0,1,.59.2l3.23,2.36a18.94,18.94,0,0,0,11.22,3.75,19.45,19.45,0,0,0,14.43-6.49,18.76,18.76,0,0,0,4.67-14.76l-.43-4a1,1,0,0,1,.59-1l3.67-1.62a19.13,19.13,0,0,0,0-35l-3.67-1.62a1,1,0,0,1-.59-1l.43-4a18.75,18.75,0,0,0-4.67-14.76,19.42,19.42,0,0,0-14.43-6.49,18.93,18.93,0,0,0-11.22,3.74l-3.23,2.37a1,1,0,0,1-.59.19,1,1,0,0,1-.59-.19L97.2,52.32A18.88,18.88,0,0,0,86,48.58a19.42,19.42,0,0,0-14.43,6.49,18.75,18.75,0,0,0-4.67,14.76l.43,4a1,1,0,0,1-.59,1l-3.66,1.62a19.13,19.13,0,0,0,0,35l3.66,1.62a1,1,0,0,1,.59,1l-.43,4a18.76,18.76,0,0,0,4.67,14.76A19.42,19.42,0,0,0,86,139.34a18.89,18.89,0,0,0,11.22-3.75l3.24-2.36A1,1,0,0,1,101,133Z"/><path d="M116.48,40.61c14.62,0,28.11,12.48,26.29,29.25,20.95,9.24,20.95,39,0,48.2h0c1.82,16.77-11.67,29.25-26.29,29.25A26,26,0,0,1,101,142.16a26,26,0,0,1-15.45,5.15c-14.62,0-28.12-12.48-26.29-29.25h0c-20.95-9.24-20.95-39,0-48.2C57.46,53.09,71,40.61,85.58,40.61A26,26,0,0,1,101,45.76a26,26,0,0,1,15.45-5.15M101,53.88l-3.24-2.36A19.75,19.75,0,0,0,86,47.58,20.16,20.16,0,0,0,65.89,69.94l.43,4-3.67,1.62c-16,7.06-16,29.78,0,36.84L66.32,114l-.43,4A20.16,20.16,0,0,0,86,140.34a19.81,19.81,0,0,0,11.81-3.94L101,134l3.23,2.37a19.86,19.86,0,0,0,11.81,3.94A20.17,20.17,0,0,0,136.17,118l-.44-4,3.67-1.62c16-7.06,16-29.78,0-36.84l-3.67-1.62.44-4a20.17,20.17,0,0,0-20.1-22.36,19.79,19.79,0,0,0-11.81,3.94L101,53.88m15.45-15.27A27.87,27.87,0,0,0,101,43.32a27.91,27.91,0,0,0-15.45-4.71A28.74,28.74,0,0,0,64.23,48.2a27.69,27.69,0,0,0-7.05,20.44,28.34,28.34,0,0,0,0,50.63,27.71,27.71,0,0,0,7.05,20.45,28.77,28.77,0,0,0,21.35,9.59A27.93,27.93,0,0,0,101,144.59a27.88,27.88,0,0,0,15.45,4.72,28.75,28.75,0,0,0,21.34-9.59,27.76,27.76,0,0,0,7.06-20.45,28.34,28.34,0,0,0,0-50.63,27.75,27.75,0,0,0-7.06-20.44,28.73,28.73,0,0,0-21.34-9.59ZM101,55.88a2,2,0,0,0,1.18-.38l3.23-2.37a17.89,17.89,0,0,1,10.63-3.55h0a18.44,18.44,0,0,1,13.69,6.15,17.77,17.77,0,0,1,4.42,14l-.43,4a2,2,0,0,0,1.18,2l3.66,1.62a18.13,18.13,0,0,1,0,33.18l-3.66,1.62a2,2,0,0,0-1.18,2l.43,4a17.75,17.75,0,0,1-4.42,14,18.45,18.45,0,0,1-13.69,6.16,18,18,0,0,1-10.63-3.55l-3.23-2.37A2,2,0,0,0,101,132a2,2,0,0,0-1.18.39l-3.24,2.37A17.94,17.94,0,0,1,86,138.34a18.48,18.48,0,0,1-13.69-6.16,17.78,17.78,0,0,1-4.41-14l.43-4a2,2,0,0,0-1.18-2l-3.67-1.62a18.13,18.13,0,0,1,0-33.18l3.67-1.62a2,2,0,0,0,1.18-2l-.43-4a17.77,17.77,0,0,1,4.42-14A18.44,18.44,0,0,1,86,49.58a17.87,17.87,0,0,1,10.63,3.55l3.24,2.37a2,2,0,0,0,1.18.38Z"/><path class="cls-3" d="M101,119.38a2.94,2.94,0,0,1-2.94-2.94V99.05L83,107.75a3,3,0,0,1-1.46.39A2.94,2.94,0,0,1,79,106.67a2.94,2.94,0,0,1,1.08-4L95.15,94l-15.07-8.7a2.94,2.94,0,0,1-1.36-1.78A2.9,2.9,0,0,1,79,81.25a3,3,0,0,1,2.55-1.48,2.89,2.89,0,0,1,1.46.4l15.07,8.7V71.47a2.94,2.94,0,0,1,5.88,0v17.4L119,80.17a2.94,2.94,0,0,1,4.31,3.31A2.92,2.92,0,0,1,122,85.26L106.91,94l15.06,8.7a2.89,2.89,0,0,1,1.37,1.78,2.93,2.93,0,0,1-2.84,3.7,3,3,0,0,1-1.47-.39L104,99.05v17.39A2.94,2.94,0,0,1,101,119.38Z"/><path d="M101,69.53A1.94,1.94,0,0,1,103,71.47V90.6L119.53,81a1.94,1.94,0,1,1,1.94,3.35L104.91,94l16.56,9.56a1.94,1.94,0,0,1-1,3.62,1.91,1.91,0,0,1-1-.26L103,97.32v19.12a1.94,1.94,0,0,1-3.88,0V97.32l-16.57,9.56a1.88,1.88,0,0,1-1,.26,1.94,1.94,0,0,1-1-3.62L97.15,94,80.58,84.39a1.93,1.93,0,0,1,1-3.61,1.88,1.88,0,0,1,1,.26L99.09,90.6V71.47A1.94,1.94,0,0,1,101,69.53m0-2a4,4,0,0,0-3.94,3.94V87.14L83.52,79.3a3.94,3.94,0,0,0-5.77,4.43,3.92,3.92,0,0,0,1.83,2.4L93.15,94l-13.57,7.83a3.94,3.94,0,0,0,2,7.35,3.84,3.84,0,0,0,2-.53l13.57-7.83v15.66a3.94,3.94,0,0,0,7.88,0V100.78l13.56,7.83a3.94,3.94,0,0,0,5.78-4.43,4,4,0,0,0-1.84-2.39L108.91,94l13.56-7.83a4,4,0,0,0,1.84-2.4,3.89,3.89,0,0,0-.4-3,3.94,3.94,0,0,0-3.41-2,4,4,0,0,0-2,.52L105,87.14V71.47A4,4,0,0,0,101,67.53Z"/></g></g></svg>