<svg xmlns="http://www.w3.org/2000/svg" viewBox="0 0 59.99 202.05"><defs><style>.cls-1{fill:#c93;}.cls-2{fill:#5578ff;}</style></defs><g id="Layer_2" data-name="Layer 2"><g id="레이어_4" data-name="레이어 4"><path class="cls-1" d="M25.32,186.43a.91.91,0,0,1-.32-.06,1,1,0,0,1-.68-.94v-72a11.87,11.87,0,0,1,.08-1.33l3.66-30.62a1,1,0,0,1,.67-.82,4.55,4.55,0,0,0,1.43-.79C33.48,76.8,35,75,35.25,70.6c.33-4.86-1.13-12.08-3.71-18.39A15.07,15.07,0,0,0,26.71,46a1,1,0,0,1-.4-.73l-.54-6.48a1,1,0,0,1,.5-.95,1,1,0,0,1,.5-.13,1,1,0,0,1,.57.18C33,41.83,38.46,44,43.16,44.15a1,1,0,0,1,1,.91l2.6,29.55a10.77,10.77,0,0,1,0,1.7,1,1,0,0,1-.68.87,1.12,1.12,0,0,1-.31,0,1,1,0,0,1-.75-.34,2.79,2.79,0,0,0-1.79-1.12,1,1,0,0,0-.66.29C41.22,77.69,38.58,81,38.65,84a7.85,7.85,0,0,1,0,.84c-.14,1.68,2.37,4.7,5.7,6.88a1,1,0,0,1,.45,1l-.62,5.15a1,1,0,0,1-.4.68,1,1,0,0,1-.59.2l-.18,0a2.83,2.83,0,0,0-.5,0,18.48,18.48,0,0,0-4.74,1.27l-1.3.44c-5.31,1.82-6.38,4.37-7.16,7.26a14.09,14.09,0,0,0,.81,9.12,65.18,65.18,0,0,0,5,5.29,53.93,53.93,0,0,1,4,4.23c.27.27.58.6.87.92a1,1,0,0,1,.15,1.13,1,1,0,0,1-.89.55h-.11a8.94,8.94,0,0,0-1-.06,6,6,0,0,0-3.11.77c-2.89,1.53-4.3,5.71-4.18,8s1.12,3.12,2.88,4.67c.28.25.57.5.86.77A43.33,43.33,0,0,1,39.63,149a19.38,19.38,0,0,0,2.25,2.79,1,1,0,0,1,.33.75v11.16a1,1,0,0,1-1,1c-2.2,0-9.06,3-10.51,12.1a14.34,14.34,0,0,1-1.61,4.78,44.52,44.52,0,0,1-3,4.4A1,1,0,0,1,25.32,186.43Z"/><path d="M26.77,38.72c5.77,4,11.45,6.26,16.36,6.42l2.6,29.56a11.16,11.16,0,0,1,0,1.53,3.62,3.62,0,0,0-2.54-1.46,1.92,1.92,0,0,0-1.4.62c-1.48,1.84-4.2,5.31-4.13,8.61a6,6,0,0,1,0,.74c-.19,2.36,3,5.71,6.16,7.79l-.62,5.15a3.82,3.82,0,0,0-.68-.07c-1.3,0-3,.63-6.36,1.76-5.76,2-7,4.9-7.81,7.95a15.14,15.14,0,0,0,.92,9.91c2.86,3.54,7,6.93,9.12,9.62.33.33.63.66.91,1a11.07,11.07,0,0,0-1.15-.06,7,7,0,0,0-3.61.91c-3.25,1.72-4.82,6.25-4.68,8.93.09,3,1.88,4.12,4.07,6.13,3.55,3.4,5.68,7.42,7.31,8.86v11.16c-2.84,0-10,3.45-11.5,12.94a13.31,13.31,0,0,1-1.49,4.44,44.47,44.47,0,0,1-2.9,4.31v-72a9.71,9.71,0,0,1,.07-1.21l3.66-30.62a5.53,5.53,0,0,0,1.74-.95c3.31-3.1,5.16-5.17,5.46-10,.31-4.56-.94-11.87-3.79-18.84a16,16,0,0,0-5.15-6.63l-.54-6.48m0-2a2,2,0,0,0-1,.27,2,2,0,0,0-1,1.9l.54,6.48a2,2,0,0,0,.81,1.44,14.16,14.16,0,0,1,4.5,5.81c2.87,7,3.89,14.05,3.64,17.91-.25,4-1.58,5.64-4.78,8.64a3.56,3.56,0,0,1-1.07.57,2,2,0,0,0-1.34,1.66L23.41,112a11.64,11.64,0,0,0-.09,1.45v72a2,2,0,0,0,3.6,1.19,43.87,43.87,0,0,0,3-4.51A15,15,0,0,0,31.68,177c1.36-8.47,7.55-11.26,9.54-11.26a2,2,0,0,0,2-2V152.58a2,2,0,0,0-.67-1.49,20.88,20.88,0,0,1-2.1-2.64,44.23,44.23,0,0,0-5.16-6.18l-.91-.81c-1.77-1.56-2.49-2.27-2.54-3.93-.11-2.14,1.21-5.84,3.61-7.1l.08-.05a5.08,5.08,0,0,1,2.6-.63c.3,0,.61,0,.94.05h.21a2,2,0,0,0,1.48-3.34c-.28-.31-.57-.63-.89-1-1.08-1.31-2.52-2.73-4-4.23A68.1,68.1,0,0,1,31,116.17a13.3,13.3,0,0,1-.68-8.4c.73-2.68,1.7-4.86,6.51-6.51l1.29-.43a19,19,0,0,1,4.42-1.22,1.55,1.55,0,0,1,.31,0,1.55,1.55,0,0,0,.37,0,2,2,0,0,0,2-1.76l.61-5.15a2,2,0,0,0-.89-1.91c-3.38-2.2-5.34-5-5.26-6a7.48,7.48,0,0,0,0-1c-.06-2.56,2.4-5.7,3.57-7.17a2.39,2.39,0,0,1,1,.78,2,2,0,0,0,1.5.67,2,2,0,0,0,.63-.1,2,2,0,0,0,1.36-1.75,12.48,12.48,0,0,0,0-1.83L45.12,45a2,2,0,0,0-1.92-1.82c-4.52-.16-9.8-2.25-15.29-6.07a2,2,0,0,0-1.14-.36Z"/><path class="cls-2" d="M27.05,83c-2.29,0-4.67-.94-7-1.85l-1.17-.46-1.06-.51c-3.71-1.8-7.55-3.65-10.32-9.77C4.82,63.76,3.31,56.19,3.65,51s2.4-7.52,5.78-10.68a6.73,6.73,0,0,1,4.4-1.54c2.29,0,4.67.94,7,1.85l1.19.47,1,.5A29.46,29.46,0,0,1,27.9,44.4a17,17,0,0,1,5.47,7c2.71,6.6,4.22,14.17,3.88,19.31s-2.4,7.53-5.78,10.68a6.45,6.45,0,0,1-2.1,1.17,7.22,7.22,0,0,1-2.31.37Z"/><path d="M13.84,39.82c2.47,0,5.15,1.24,7.79,2.25a35.36,35.36,0,0,1,5.68,3.13,16,16,0,0,1,5.15,6.63c2.85,7,4.1,14.28,3.79,18.84-.3,4.84-2.15,6.91-5.46,10a5.53,5.53,0,0,1-1.74.95,6.1,6.1,0,0,1-2,.32c-2.47,0-5.16-1.23-7.79-2.24-4-2-8-3.46-10.83-9.76-2.86-7-4.1-14.29-3.79-18.84.3-4.84,2.15-6.92,5.46-10a5.78,5.78,0,0,1,3.73-1.27m0-2a7.79,7.79,0,0,0-5,1.71l-.11.1C5.29,42.86,3,45.4,2.65,51,2.3,56.27,3.84,64,6.59,70.71l0,.06C9.54,77.22,13.54,79.16,17.41,81l1,.47.17.07,1.16.46C22.1,83,24.57,84,27.06,84a8.16,8.16,0,0,0,2.64-.42A7.76,7.76,0,0,0,32,82.24a.52.52,0,0,0,.11-.1c3.46-3.22,5.75-5.76,6.1-11.35.35-5.28-1.2-13-3.94-19.72l0-.06a17.92,17.92,0,0,0-5.79-7.42,29.74,29.74,0,0,0-5-2.85l-.94-.46-.17-.08-1.18-.46c-2.39-.94-4.86-1.92-7.33-1.92Z"/><path class="cls-2" d="M48,132.06a1,1,0,0,1-.66-.25,12.23,12.23,0,0,0-3.12-1.67h0a23.74,23.74,0,0,0-5-1.32,1,1,0,0,1-.64-.32c-.27-.3-.56-.62-.88-.94a55.69,55.69,0,0,0-3.94-4.13,68.6,68.6,0,0,1-5.25-5.56.82.82,0,0,1-.12-.2,16.14,16.14,0,0,1-1-10.52c.88-3.28,2.24-6.58,8.47-8.72l1.3-.43c2.64-.89,4.09-1.38,5.38-1.38a4.21,4.21,0,0,1,.87.09,6.78,6.78,0,0,1,2.4,1,33.62,33.62,0,0,1,6,5.74,20.86,20.86,0,0,1,4.74,11.31,39.57,39.57,0,0,1-.27,9.3c-.78,3.92-2,7.44-8.15,8Z"/><path d="M42.49,97.61a3.82,3.82,0,0,1,.68.07,6.05,6.05,0,0,1,2.07.92A33.09,33.09,0,0,1,51,104.13a19.86,19.86,0,0,1,4.51,10.76,38.66,38.66,0,0,1-.26,9.07c-.8,4-2,6.66-7.24,7.1a13.34,13.34,0,0,0-3.38-1.84,26,26,0,0,0-5.39-1.41c-.28-.3-.58-.63-.91-1-2.17-2.69-6.26-6.08-9.12-9.62a15.14,15.14,0,0,1-.92-9.91c.82-3,2.05-6,7.81-7.95,3.41-1.13,5.06-1.76,6.36-1.76m0-2c-1.45,0-3,.51-5.69,1.43l-1.3.43c-6.71,2.3-8.22,6-9.11,9.34a.58.58,0,0,0,0,.14,17.09,17.09,0,0,0,1.07,11.14,2.7,2.7,0,0,0,.25.4A68.31,68.31,0,0,0,33,124.13c1.47,1.45,2.86,2.82,3.8,4l.13.15c.31.31.59.62.85.91a2,2,0,0,0,1.27.64,22.58,22.58,0,0,1,4.83,1.28h0a11.39,11.39,0,0,1,2.78,1.48,2,2,0,0,0,1.32.49h.16c6.87-.57,8.27-4.79,9-8.7,0,0,0-.07,0-.11a41.08,41.08,0,0,0,.28-9.54,21.88,21.88,0,0,0-5-11.84A34.73,34.73,0,0,0,46.41,97l-.12-.08a8,8,0,0,0-2.74-1.19,6.24,6.24,0,0,0-1.06-.1Z"/><path class="cls-2" d="M48.05,95.37a3.45,3.45,0,0,1-.94-.14,14.21,14.21,0,0,1-3.87-1.86c-3.46-2.25-6.84-5.82-6.61-8.71a4.52,4.52,0,0,0,0-.64c-.08-3.74,2.91-7.46,4.34-9.25a.6.6,0,0,1,.08-.08,2.92,2.92,0,0,1,2.11-.92,4.51,4.51,0,0,1,3.28,1.8,15.35,15.35,0,0,1,2.8,5.24c.12.36.26.71.4,1,2,4.73,2.38,9.83.86,12.12a2.92,2.92,0,0,1-2.47,1.39Z"/><path d="M43.18,74.77a3.62,3.62,0,0,1,2.54,1.46,14.69,14.69,0,0,1,2.6,4.91c.13.37.27.75.43,1.11,2.43,5.72,2.33,12.12-.7,12.12a2.38,2.38,0,0,1-.68-.1,13.58,13.58,0,0,1-3.58-1.74c-3.2-2.08-6.35-5.43-6.16-7.79a6,6,0,0,0,0-.74c-.07-3.3,2.65-6.77,4.13-8.61a1.92,1.92,0,0,1,1.4-.62m0-2A3.91,3.91,0,0,0,40.36,74a1.07,1.07,0,0,0-.14.16C38.7,76,35.56,79.94,35.65,84a4.87,4.87,0,0,1,0,.54c-.29,3.53,3.62,7.39,7.06,9.63a15.88,15.88,0,0,0,4.13,2,4.84,4.84,0,0,0,1.22.17,3.87,3.87,0,0,0,3.3-1.83c2-3,1-8.9-.76-13.07-.14-.33-.27-.66-.38-1a16.38,16.38,0,0,0-3-5.58,5.36,5.36,0,0,0-4-2.14Z"/><path class="cls-2" d="M42.33,154.14a2.71,2.71,0,0,1-1.78-.81A20.58,20.58,0,0,1,38,150.21a41.27,41.27,0,0,0-4.8-5.76l-.82-.74c-1.86-1.64-3.47-3.07-3.56-6.09-.14-2.77,1.41-7.84,5.21-9.84a7.93,7.93,0,0,1,4.08-1,11,11,0,0,1,1.26.07,25.18,25.18,0,0,1,5.48,1.42l.12,0a14,14,0,0,1,3.71,2,5.46,5.46,0,0,1,1.82,4.35c.1,3.31-1.36,9.24-2.84,13.05s-3,5.9-4.54,6.25a2,2,0,0,1-.8.18Z"/><path d="M38.12,127.75a11.07,11.07,0,0,1,1.15.06,26,26,0,0,1,5.39,1.41A13.34,13.34,0,0,1,48,131.06a4.47,4.47,0,0,1,1.47,3.62c.1,3.19-1.36,9-2.77,12.67-1.46,3.86-2.87,5.52-3.93,5.65a1,1,0,0,1-.48.14,1.83,1.83,0,0,1-1.12-.56c-1.63-1.44-3.76-5.46-7.31-8.86-2.19-2-4-3.14-4.07-6.13-.14-2.68,1.43-7.21,4.68-8.93a7,7,0,0,1,3.61-.91m0-2a9,9,0,0,0-4.58,1.16c-4.16,2.22-5.86,7.74-5.7,10.78.09,3.42,2,5.12,3.88,6.77.27.23.54.48.83.74a40.93,40.93,0,0,1,4.65,5.6,22.42,22.42,0,0,0,2.68,3.28,3.67,3.67,0,0,0,2.45,1.06,2.88,2.88,0,0,0,1.12-.23c1.91-.48,3.6-2.73,5.16-6.86,1.51-3.89,3-10,2.9-13.44a6.47,6.47,0,0,0-2.16-5.06,14.79,14.79,0,0,0-3.9-2.16l-.14-.06-.12,0a26.32,26.32,0,0,0-5.7-1.46,13,13,0,0,0-1.37-.08Z"/><path class="cls-2" d="M27.12,201.06a7.55,7.55,0,0,1-4.73-1.36c-2.5-1.48-4.28-4.62-1.81-9a31.67,31.67,0,0,1,3.32-5l.62-.83a43.43,43.43,0,0,0,2.83-4.2,12.31,12.31,0,0,0,1.37-4.1c1.55-9.73,8.9-13.78,12.49-13.79h0a4.1,4.1,0,0,1,.74.06c3,.64,4.21,6.18,5.33,12.81.09.53.18,1,.26,1.5,1.24,7-1,14.37-5.45,17.94s-10.48,6-15,6Z"/><path d="M41.23,163.74a2.64,2.64,0,0,1,.51,0c2.93.62,4,9,4.81,13.5,1.13,6.37-.79,13.54-5.08,17s-10.1,5.78-14.35,5.78A6.61,6.61,0,0,1,23,198.87c-2.49-1.43-3.5-4.16-1.5-7.73a38.08,38.08,0,0,1,3.86-5.71,44.47,44.47,0,0,0,2.9-4.31,13.31,13.31,0,0,0,1.49-4.44c1.51-9.49,8.66-12.94,11.5-12.94h0m0-2h0c-3.88,0-11.82,4.31-13.47,14.63a11.39,11.39,0,0,1-1.25,3.77,41.36,41.36,0,0,1-2.77,4.09l-.61.82a33.37,33.37,0,0,0-3.42,5.18c-2.28,4.13-1.43,8.15,2.15,10.3a8.56,8.56,0,0,0,5.29,1.52c4.7,0,11-2.5,15.6-6.22s7.1-11.56,5.8-18.9c-.08-.46-.16-1-.25-1.49-1.22-7.24-2.45-12.85-6.12-13.61a4.42,4.42,0,0,0-.92-.09Z"/><path class="cls-2" d="M44.59,51.87a1.86,1.86,0,0,1-.66-.11,1,1,0,0,1-.71-.83c-.19-1.45-.38-3.06-.57-4.81-5-.28-10.66-2.55-16.45-6.58-1.48-1-2.95-2.16-4.37-3.36a135.92,135.92,0,0,0-11.27-9.41C3.05,21-1.09,17.84,2.08,8.49c2.42-6.13,8.29-7,14.1-7.47l1.56,0c5.65,0,13.07.69,20.37,6.1,6.71,5.32,12.14,10.55,15.74,14l.29.27c3.78,4,5.55,6.14,4.6,12,0,.35,0,.74-.05,1.16-.12,4.35-.34,11.63-7.08,15.07Q46.33,51.87,44.59,51.87Z"/><path d="M17.74,2c5.94,0,12.92.83,19.78,5.9,6.82,5.41,12.34,10.76,15.92,14.21,3.58,3.75,5.23,5.62,4.29,11.25h0c-.19,3.87.28,11.9-6.59,15.4-4.3,1.81-5.94,2.11-6.56,2.11-.31,0-.37-.08-.38-.08h0q-.33-2.53-.66-5.64l-.42,0c-4.91-.16-10.59-2.4-16.36-6.42-1.43-1-2.87-2.1-4.3-3.3C7.58,21.36-1.12,21.06,3,8.82,5.11,3.55,10,2.47,16.25,2l1.49,0m0-2L16.21,0H16.1C10.25.45,3.79,1.46,1.17,8.08l0,.09c-3.4,10,1.19,13.55,8.81,19.39A135.1,135.1,0,0,1,21.1,36.87l.08.08c1.45,1.22,2.95,2.37,4.44,3.41,5.62,3.91,11.16,6.21,16.12,6.7.17,1.44.33,2.78.49,4a2,2,0,0,0,1.39,1.66,3,3,0,0,0,1,.15c.84,0,2.5-.24,7.34-2.26l.13-.07c7.27-3.71,7.51-11.66,7.63-15.93,0-.39,0-.75,0-1.09,1-6.31-1-8.74-4.84-12.79l-.06-.07-.27-.26C51,16.93,45.49,11.67,38.76,6.34l0,0C31.17.72,23.54,0,17.74,0Z"/></g></g></svg>