<svg xmlns="http://www.w3.org/2000/svg" viewBox="0 0 198.06 198.05"><defs><style>.cls-1{fill:#cf3;}</style></defs><g id="Layer_2" data-name="Layer 2"><g id="레이어_4" data-name="레이어 4"><path class="cls-1" d="M27.9,197.05a26.9,26.9,0,1,1,16.18-48.38,1,1,0,0,0,.6.2,1,1,0,0,0,.71-.29l8.35-8.35a1,1,0,0,0,.09-1.31A26.9,26.9,0,0,1,75.31,95.84a26.66,26.66,0,0,1,16.19,5.41,1,1,0,0,0,.6.2,1,1,0,0,0,.71-.29l8.35-8.35a1,1,0,0,0,.09-1.31,26.9,26.9,0,0,1,21.48-43.08,26.66,26.66,0,0,1,16.19,5.41,1,1,0,0,0,.6.2,1,1,0,0,0,.71-.29l8.35-8.35a1,1,0,0,0,.09-1.31A26.9,26.9,0,1,1,197.06,27.9,26.91,26.91,0,0,1,154,49.39a1,1,0,0,0-.6-.21,1,1,0,0,0-.71.3l-8.35,8.35a1,1,0,0,0-.09,1.31,27,27,0,0,1-2.46,35.2,26.71,26.71,0,0,1-19,7.88h0a26.67,26.67,0,0,1-16.19-5.42,1,1,0,0,0-.6-.2,1,1,0,0,0-.7.3l-8.35,8.35a1,1,0,0,0-.1,1.3,27,27,0,0,1-2.46,35.21,26.91,26.91,0,0,1-35.2,2.46,1,1,0,0,0-.61-.2,1,1,0,0,0-.7.29l-8.35,8.35a1,1,0,0,0-.09,1.31,27,27,0,0,1-2.47,35.21A26.71,26.71,0,0,1,27.9,197.05Z"/><path d="M170.15,2a25.9,25.9,0,0,1,18.32,44.22,25.9,25.9,0,0,1-33.89,2.37,2,2,0,0,0-1.21-.41,2,2,0,0,0-1.41.59l-8.35,8.35a2,2,0,0,0-.19,2.62,25.9,25.9,0,0,1-20.68,41.48A25.69,25.69,0,0,1,107.16,96a2,2,0,0,0-2.62.18l-8.35,8.35a2,2,0,0,0-.18,2.62,26,26,0,0,1-2.38,33.89,25.9,25.9,0,0,1-33.89,2.37,2,2,0,0,0-2.62.19L48.77,152a2,2,0,0,0-.18,2.61A25.89,25.89,0,0,1,27.9,196.05a25.9,25.9,0,1,1,15.58-46.58,2,2,0,0,0,2.62-.19l8.35-8.35a2,2,0,0,0,.18-2.61A26,26,0,0,1,57,104.42a25.92,25.92,0,0,1,33.9-2.37,2,2,0,0,0,1.2.4,2,2,0,0,0,1.42-.58l8.35-8.35a2,2,0,0,0,.18-2.62A26,26,0,0,1,104.42,57a25.92,25.92,0,0,1,33.9-2.37,2,2,0,0,0,2.61-.18l8.35-8.35a2,2,0,0,0,.19-2.62,26,26,0,0,1,2.37-33.89A25.7,25.7,0,0,1,170.15,2m0-2a27.9,27.9,0,0,0-22.28,44.68L139.52,53A27.9,27.9,0,0,0,100.45,92.1l-8.35,8.35A27.9,27.9,0,0,0,53,139.52l-8.35,8.35a27.9,27.9,0,1,0,5.5,5.5L58.53,145A27.9,27.9,0,0,0,97.6,106L106,97.6A27.9,27.9,0,0,0,145,58.53l8.35-8.35A27.9,27.9,0,1,0,170.15,0Z"/></g></g></svg>